<?xml version="1.0" encoding="utf-8"?>
<!-- Generator: Adobe Illustrator 18.0.0, SVG Export Plug-In . SVG Version: 6.00 Build 0)  -->
<!DOCTYPE svg PUBLIC "-//W3C//DTD SVG 1.1//EN" "http://www.w3.org/Graphics/SVG/1.1/DTD/svg11.dtd">
<svg version="1.1" id="Layer_1" xmlns="http://www.w3.org/2000/svg" xmlns:xlink="http://www.w3.org/1999/xlink" x="0px" y="0px"
	 viewBox="0 0 1020 400" enable-background="new 0 0 1020 400" xml:space="preserve">
<g>
	<g id="XMLID_1_">
		<g>
			<rect x="501.4" y="164.5" fill="#FFFFFF" width="41" height="26.4"/>
			<polygon fill="#FFFFFF" points="459.6,88.1 459.6,141.4 398.5,141.4 398.5,88.1 409.2,88.1 409.2,126.4 448.5,126.4 448.5,88.1 
							"/>
			<polygon fill="#FFFFFF" points="446.7,233.8 446.7,264.1 403,264.1 403,233.8 403,174.6 446.7,174.6 			"/>
			<path fill="#FFFFFF" d="M630,180.5v160H390v-160h8.5v53.3h4.5v30.3v59.2h43.8v-59.2v-30.3h12.9v-53.3l3.3-0.2
				c0.9,1.7,1.6,3.4,2,5.3c0.4,2.5,0.5,5.2,0.6,7.8c0.1,2.5-0.4,5.2,0.2,7.6c0.3,1.4,0.8,2.8,1.4,4.1c0.7,1.8,1.8,3.6,2.7,5.3
				c1.3,2.4,2.5,5,4.3,7c1.4,1.5,3.4,2.5,4.9,3.9c2.3,2.2,3.7,5.4,6.1,7.6c0.9,0.8,1.9,1.6,2.9,2.3c1.3,0.9,2.7,1.4,4.1,2.1
				c2.7,1.4,5.4,3,8,4.5c1.9,1.1,3.7,2.4,5.6,3.4l30.3,0c0.4,0.1,0.5,0,0.8-0.2c3.9-2.5,6.9-6.3,10.4-9.4c2.7-2.3,5.6-4.5,8-7
				c2.9-3,6-6.2,7.6-10c1-2.3,1.5-4.9,2-7.4c0.7-4.3-0.4-8.9,0.2-13.3c0.5-3.8,1.9-7.4,2.5-11.1c0.2-0.8,0.3-1.6,0.2-2.5h8.4V282
				h38.9V180.3L630,180.5z"/>
			<path fill="#FFFFFF" d="M501.4,150.6h-30.3c1-3,1.1-6.4,1.6-9.6c0.4-2.7,0.1-5.7,1-8.2c1.2-3.4,4.2-6.2,6.6-9
				c2.2-2.5,6.3-4.1,7.2-7c0.7-2.2-0.2-5.1-0.6-7.6c-0.3-2-1.3-4-1.2-5.9c0.3-3,2.8-6.1,5.3-8.2c0.3-0.3,0.7-0.5,1-0.8
				c1.8-1.4,4-2.3,6.1-3.5c0.5-0.3,1-0.6,1.3-1.2h7.7v16.8h22.3V89.6l13.4,0.1c1.5,1,2.9,2.1,4.1,3.3c3.7,3.5,6,8.8,8.2,13.5
				c2.5,5.4,4.1,11.2,5.5,17c1.3,5.5,1.4,11.4,2.7,17c0.8,3.4,2.1,6.8,3.1,10.2h-24v-26.4h-41V150.6z"/>
			<rect x="576" y="58.8" fill="#FFFFFF" width="38.9" height="101.8"/>
			<rect x="507.1" y="36.1" fill="#FFFFFF" width="22.3" height="16.8"/>
			<rect x="409.2" y="31.6" fill="#FFFFFF" width="39.3" height="38.3"/>
		</g>
		<g>
			<line fill="none" stroke="#000000" stroke-width="2" x1="390" y1="20.5" x2="630" y2="20.5"/>
			<line fill="none" stroke="#000000" stroke-width="2" x1="630" y1="340.5" x2="390" y2="340.5"/>
			<line fill="none" stroke="#000000" stroke-width="2" x1="390" y1="20.5" x2="390" y2="180.5"/>
			<line fill="none" stroke="#000000" stroke-width="2" x1="390" y1="180.5" x2="390" y2="340.5"/>
			<line fill="none" stroke="#000000" stroke-width="2" x1="630" y1="180.5" x2="630" y2="20.5"/>
			<line fill="none" stroke="#000000" stroke-width="2" x1="630" y1="340.5" x2="630" y2="180.5"/>
			<line fill="none" stroke="#000000" stroke-width="2" stroke-dasharray="2,10" x1="390" y1="180.5" x2="398.5" y2="180.5"/>
			<line fill="none" stroke="#000000" stroke-width="2" stroke-dasharray="2,10" x1="459.6" y1="180.5" x2="462.9" y2="180.3"/>
			<line fill="none" stroke="#000000" stroke-width="2" stroke-dasharray="2,10" x1="567.6" y1="180.3" x2="576" y2="180.3"/>
			<line fill="none" stroke="#000000" stroke-width="2" stroke-dasharray="2,10" x1="614.9" y1="180.3" x2="630" y2="180.5"/>
			<line fill="none" stroke="#000000" stroke-width="2" stroke-dasharray="2,10" x1="505.7" y1="241.2" x2="536" y2="241.2"/>
			<path fill="none" stroke="#000000" stroke-width="2" d="M492,94.3c-0.3,0.2-0.7,0.5-1,0.8c-2.5,2.1-5,5.2-5.3,8.2
				c-0.2,1.8,0.9,3.9,1.2,5.9c0.4,2.5,1.2,5.4,0.6,7.6c-0.9,2.9-5,4.5-7.2,7c-2.5,2.8-5.4,5.6-6.6,9c-0.9,2.5-0.6,5.5-1,8.2"/>
			<path fill="none" stroke="#000000" stroke-width="2" d="M472.7,141c-0.4,3.2-0.5,6.6-1.6,9.6"/>
			<path fill="none" stroke="#000000" stroke-width="2" d="M471.1,150.6c0.2,0.7,0,1.2-0.2,1.8c-1.6,5-7.1,8.6-8.4,13.7
				c-0.8,3-1.1,6.4-0.8,9.6"/>
			<path fill="none" stroke="#000000" stroke-width="2" d="M461.8,175.6c0.2,1.6,0.7,3.1,1.2,4.7"/>
			<path fill="none" stroke="#000000" stroke-width="2" d="M462.9,180.3c0.9,1.7,1.6,3.4,2,5.3c0.4,2.5,0.5,5.2,0.6,7.8
				c0.1,2.5-0.4,5.2,0.2,7.6c0.3,1.4,0.8,2.8,1.4,4.1c0.7,1.8,1.8,3.6,2.7,5.3c1.3,2.4,2.5,5,4.3,7c1.4,1.5,3.4,2.5,4.9,3.9
				c2.3,2.2,3.7,5.4,6.1,7.6c0.9,0.8,1.9,1.6,2.9,2.3c1.3,0.9,2.7,1.4,4.1,2.1c2.7,1.4,5.4,3,8,4.5"/>
			<path fill="none" stroke="#000000" stroke-width="2" d="M500,237.9c1.9,1.1,3.7,2.4,5.6,3.4"/>
			<path fill="none" stroke="#000000" stroke-width="2" d="M536,241.2c0.4,0.1,0.5,0,0.8-0.2c3.9-2.5,6.9-6.3,10.4-9.4
				c2.7-2.3,5.6-4.5,8-7c2.9-3,6-6.2,7.6-10c1-2.3,1.5-4.9,2-7.4c0.7-4.3-0.4-8.9,0.2-13.3c0.5-3.8,1.9-7.4,2.5-11.1"/>
			<path fill="none" stroke="#000000" stroke-width="2" d="M567.4,182.8c0.2-0.8,0.3-1.6,0.2-2.5"/>
			<path fill="none" stroke="#000000" stroke-width="2" d="M567.6,180.3c0.9-4.2,1.4-8.6,1.4-12.9c0-4.2-0.5-8.6-1.4-12.7"/>
			<path fill="none" stroke="#000000" stroke-width="2" d="M567.6,154.7c-0.3-1.4-0.7-2.8-1.2-4.1"/>
			<path fill="none" stroke="#000000" stroke-width="2" d="M566.4,150.6c-1-3.4-2.3-6.7-3.1-10.2c-1.3-5.6-1.4-11.4-2.7-17
				c-1.4-5.8-3-11.6-5.5-17c-2.2-4.7-4.5-10-8.2-13.5"/>
			<path fill="none" stroke="#000000" stroke-width="2" d="M546.9,93c-1.2-1.2-2.7-2.3-4.1-3.3"/>
			<path fill="none" stroke="#000000" stroke-width="2" d="M499.4,89.6c-0.4,0.6-0.8,0.9-1.3,1.2c-2,1.2-4.2,2.1-6.1,3.5"/>
			<line fill="none" stroke="#000000" stroke-width="2" stroke-dasharray="2,10" x1="499.4" y1="89.6" x2="507.1" y2="89.6"/>
			<line fill="none" stroke="#000000" stroke-width="2" stroke-dasharray="2,10" x1="529.3" y1="89.6" x2="542.8" y2="89.7"/>
			<line fill="none" stroke="#000000" stroke-width="2" stroke-dasharray="5,4" x1="471.1" y1="150.6" x2="501.4" y2="150.6"/>
			<line fill="none" stroke="#000000" stroke-width="2" stroke-dasharray="5,4" x1="542.4" y1="150.6" x2="566.4" y2="150.6"/>
			<line fill="none" stroke="#000000" stroke-width="2" stroke-dasharray="2,10" x1="507.1" y1="36.1" x2="529.3" y2="36.1"/>
			<line fill="none" stroke="#000000" stroke-width="2" stroke-dasharray="2,10" x1="507.1" y1="106.4" x2="529.3" y2="106.4"/>
			<line fill="none" stroke="#000000" stroke-width="2" stroke-dasharray="5,4" x1="507.1" y1="53" x2="529.3" y2="53"/>
			<line fill="none" stroke="#000000" stroke-width="2" x1="507.1" y1="36.1" x2="507.1" y2="53"/>
			<line fill="none" stroke="#000000" stroke-width="2" x1="529.3" y1="36.1" x2="529.3" y2="53"/>
			<line fill="none" stroke="#000000" stroke-width="2" x1="507.1" y1="53" x2="507.1" y2="89.6"/>
			<line fill="none" stroke="#000000" stroke-width="2" x1="529.3" y1="53" x2="529.3" y2="89.6"/>
			<line fill="none" stroke="#000000" stroke-width="2" x1="507.1" y1="89.6" x2="507.1" y2="106.4"/>
			<line fill="none" stroke="#000000" stroke-width="2" x1="529.3" y1="89.6" x2="529.3" y2="106.4"/>
			<line fill="none" stroke="#000000" stroke-width="2" stroke-dasharray="4,5" x1="501.4" y1="124.2" x2="542.4" y2="124.2"/>
			<line fill="none" stroke="#000000" stroke-width="2" stroke-dasharray="4,5" x1="501.4" y1="190.8" x2="542.4" y2="190.8"/>
			<line fill="none" stroke="#000000" stroke-width="2" stroke-dasharray="2,10" x1="501.4" y1="164.5" x2="542.4" y2="164.5"/>
			<line fill="none" stroke="#000000" stroke-width="2" x1="501.4" y1="124.2" x2="501.4" y2="150.6"/>
			<line fill="none" stroke="#000000" stroke-width="2" x1="542.4" y1="124.2" x2="542.4" y2="150.6"/>
			<line fill="none" stroke="#000000" stroke-width="2" x1="501.4" y1="150.6" x2="501.4" y2="164.5"/>
			<line fill="none" stroke="#000000" stroke-width="2" x1="542.4" y1="150.6" x2="542.4" y2="164.5"/>
			<line fill="none" stroke="#000000" stroke-width="2" x1="501.4" y1="164.5" x2="501.4" y2="190.8"/>
			<line fill="none" stroke="#000000" stroke-width="2" x1="542.4" y1="164.5" x2="542.4" y2="190.8"/>
			<line fill="none" stroke="#000000" stroke-width="2" stroke-dasharray="5,4" x1="398.5" y1="141.4" x2="459.6" y2="141.4"/>
			<line fill="none" stroke="#000000" stroke-width="2" x1="398.5" y1="88.1" x2="398.5" y2="141.4"/>
			<line fill="none" stroke="#000000" stroke-width="2" x1="459.6" y1="88.1" x2="459.6" y2="141.4"/>
			<line fill="none" stroke="#000000" stroke-width="2" x1="398.5" y1="141.4" x2="398.5" y2="180.5"/>
			<line fill="none" stroke="#000000" stroke-width="2" x1="459.6" y1="141.4" x2="459.6" y2="180.5"/>
			<line fill="none" stroke="#000000" stroke-width="2" x1="398.5" y1="180.5" x2="398.5" y2="233.8"/>
			<line fill="none" stroke="#000000" stroke-width="2" x1="459.6" y1="180.5" x2="459.6" y2="233.8"/>
			<line fill="none" stroke="#000000" stroke-width="2" stroke-dasharray="2,10" x1="398.5" y1="233.8" x2="403" y2="233.8"/>
			<line fill="none" stroke="#000000" stroke-width="2" stroke-dasharray="2,10" x1="446.7" y1="233.8" x2="459.6" y2="233.8"/>
			<line fill="none" stroke="#000000" stroke-width="2" stroke-dasharray="2,10" x1="398.5" y1="88.1" x2="409.2" y2="88.1"/>
			<line fill="none" stroke="#000000" stroke-width="2" stroke-dasharray="2,10" x1="448.5" y1="88.1" x2="459.6" y2="88.1"/>
			<line fill="none" stroke="#000000" stroke-width="2" stroke-dasharray="2,10" x1="576" y1="58.8" x2="614.9" y2="58.8"/>
			<line fill="none" stroke="#000000" stroke-width="2" stroke-dasharray="2,10" x1="576" y1="282" x2="614.9" y2="282"/>
			<line fill="none" stroke="#000000" stroke-width="2" stroke-dasharray="5,4" x1="576" y1="160.5" x2="614.9" y2="160.5"/>
			<line fill="none" stroke="#000000" stroke-width="2" x1="576" y1="58.8" x2="576" y2="160.5"/>
			<line fill="none" stroke="#000000" stroke-width="2" x1="614.9" y1="58.8" x2="614.9" y2="160.5"/>
			<line fill="none" stroke="#000000" stroke-width="2" x1="576" y1="160.5" x2="576" y2="180.3"/>
			<line fill="none" stroke="#000000" stroke-width="2" x1="614.9" y1="160.5" x2="614.9" y2="180.3"/>
			<line fill="none" stroke="#000000" stroke-width="2" x1="576" y1="180.3" x2="576" y2="282"/>
			<line fill="none" stroke="#000000" stroke-width="2" x1="614.9" y1="180.3" x2="614.9" y2="282"/>
			<line fill="none" stroke="#000000" stroke-width="2" stroke-dasharray="2,10" x1="403" y1="174.6" x2="446.7" y2="174.6"/>
			<line fill="none" stroke="#000000" stroke-width="2" stroke-dasharray="2,10" x1="403" y1="323.2" x2="446.7" y2="323.2"/>
			<line fill="none" stroke="#000000" stroke-width="2" stroke-dasharray="5,4" x1="403" y1="264.1" x2="446.7" y2="264.1"/>
			<line fill="none" stroke="#000000" stroke-width="2" x1="403" y1="174.6" x2="403" y2="233.8"/>
			<line fill="none" stroke="#000000" stroke-width="2" x1="446.7" y1="174.6" x2="446.7" y2="233.8"/>
			<line fill="none" stroke="#000000" stroke-width="2" x1="403" y1="233.8" x2="403" y2="264.1"/>
			<line fill="none" stroke="#000000" stroke-width="2" x1="446.7" y1="233.8" x2="446.7" y2="264.1"/>
			<line fill="none" stroke="#000000" stroke-width="2" x1="403" y1="264.1" x2="403" y2="323.2"/>
			<line fill="none" stroke="#000000" stroke-width="2" x1="446.7" y1="264.1" x2="446.7" y2="323.2"/>
			<line fill="none" stroke="#000000" stroke-width="2" stroke-dasharray="2,10" x1="409.2" y1="31.6" x2="448.5" y2="31.6"/>
			<line fill="none" stroke="#000000" stroke-width="2" stroke-dasharray="2,10" x1="409.2" y1="126.4" x2="448.5" y2="126.4"/>
			<line fill="none" stroke="#000000" stroke-width="2" stroke-dasharray="5,4" x1="409.2" y1="69.9" x2="448.5" y2="69.9"/>
			<line fill="none" stroke="#000000" stroke-width="2" x1="409.2" y1="31.6" x2="409.2" y2="69.9"/>
			<line fill="none" stroke="#000000" stroke-width="2" x1="448.5" y1="31.6" x2="448.5" y2="69.9"/>
			<line fill="none" stroke="#000000" stroke-width="2" x1="409.2" y1="69.9" x2="409.2" y2="88.1"/>
			<line fill="none" stroke="#000000" stroke-width="2" x1="448.5" y1="69.9" x2="448.5" y2="88.1"/>
			<line fill="none" stroke="#000000" stroke-width="2" x1="409.2" y1="88.1" x2="409.2" y2="126.4"/>
			<line fill="none" stroke="#000000" stroke-width="2" x1="448.5" y1="88.1" x2="448.5" y2="126.4"/>
		</g>
	</g>
</g>
</svg>
