<?xml version="1.0" encoding="utf-8"?>
<!-- Generator: Adobe Illustrator 18.0.0, SVG Export Plug-In . SVG Version: 6.00 Build 0)  -->
<!DOCTYPE svg PUBLIC "-//W3C//DTD SVG 1.1//EN" "http://www.w3.org/Graphics/SVG/1.1/DTD/svg11.dtd">
<svg version="1.1" id="Layer_1" xmlns="http://www.w3.org/2000/svg" xmlns:xlink="http://www.w3.org/1999/xlink" x="0px" y="0px"
	 viewBox="0 0 768 1024" enable-background="new 0 0 768 1024" xml:space="preserve">
<g>
	<g id="XMLID_1_">
		<g>
			<polygon fill="#AAAAAA" points="537,468.5 537,472 214.5,472 214.5,468.5 214.5,257.5 280,257.5 280,327 280,401.5 453.5,401.5 
				453.5,327 453.5,257.5 537,257.5 			"/>
			<polygon fill="#AAAAAA" points="691.2,462 691.2,871.6 76.8,871.6 76.8,462 125,462 125,815 643,815 643,462 			"/>
			<polygon fill="#AAAAAA" points="643,94.5 643,447.5 557,447.5 557,162 168.5,162 168.5,447.5 125,447.5 125,94.5 			"/>
			<polygon fill="#AAAAAA" points="557,468.5 557,754 168.5,754 168.5,468.5 214.5,468.5 214.5,472 214.5,683 285,683 285,729.5 
				479,729.5 479,683 537,683 537,472 537,468.5 			"/>
			<rect x="285" y="528" fill="#AAAAAA" width="194" height="46.5"/>
			<polygon fill="#AAAAAA" points="453.5,257.5 453.5,327 280,327 280,257.5 280,183 453.5,183 			"/>
		</g>
		<g>
			<line fill="none" stroke="#000000" stroke-width="2" x1="76.8" y1="52.4" x2="691.2" y2="52.4"/>
			<line fill="none" stroke="#000000" stroke-width="2" x1="691.2" y1="871.6" x2="76.8" y2="871.6"/>
			<line fill="none" stroke="#000000" stroke-width="2" x1="76.8" y1="52.4" x2="76.8" y2="462"/>
			<line fill="none" stroke="#000000" stroke-width="2" x1="76.8" y1="462" x2="76.8" y2="871.6"/>
			<line fill="none" stroke="#000000" stroke-width="2" x1="691.2" y1="462" x2="691.2" y2="52.4"/>
			<line fill="none" stroke="#000000" stroke-width="2" x1="691.2" y1="871.6" x2="691.2" y2="462"/>
			<line fill="none" stroke="#000000" stroke-width="2" stroke-dasharray="2,10" x1="76.8" y1="462" x2="125" y2="462"/>
			<line fill="none" stroke="#000000" stroke-width="2" stroke-dasharray="2,10" x1="643" y1="462" x2="691.2" y2="462"/>
			<line fill="none" stroke="#000000" stroke-width="2" stroke-dasharray="2,10" x1="125" y1="94.5" x2="643" y2="94.5"/>
			<line fill="none" stroke="#000000" stroke-width="2" stroke-dasharray="2,10" x1="125" y1="815" x2="643" y2="815"/>
			<line fill="none" stroke="#000000" stroke-width="2" x1="125" y1="94.5" x2="125" y2="447.5"/>
			<line fill="none" stroke="#000000" stroke-width="2" x1="643" y1="94.5" x2="643" y2="447.5"/>
			<line fill="none" stroke="#000000" stroke-width="2" x1="125" y1="447.5" x2="125" y2="462"/>
			<line fill="none" stroke="#000000" stroke-width="2" x1="643" y1="447.5" x2="643" y2="462"/>
			<line fill="none" stroke="#000000" stroke-width="2" x1="125" y1="462" x2="125" y2="815"/>
			<line fill="none" stroke="#000000" stroke-width="2" x1="643" y1="462" x2="643" y2="815"/>
			<line fill="none" stroke="#000000" stroke-width="2" stroke-dasharray="2,10" x1="125" y1="447.5" x2="168.5" y2="447.5"/>
			<line fill="none" stroke="#000000" stroke-width="2" stroke-dasharray="2,10" x1="557" y1="447.5" x2="643" y2="447.5"/>
			<line fill="none" stroke="#000000" stroke-width="2" stroke-dasharray="2,10" x1="168.5" y1="162" x2="557" y2="162"/>
			<line fill="none" stroke="#000000" stroke-width="2" stroke-dasharray="2,10" x1="168.5" y1="754" x2="557" y2="754"/>
			<line fill="none" stroke="#000000" stroke-width="2" x1="168.5" y1="162" x2="168.5" y2="447.5"/>
			<line fill="none" stroke="#000000" stroke-width="2" x1="557" y1="162" x2="557" y2="447.5"/>
			<line fill="none" stroke="#000000" stroke-width="2" x1="168.5" y1="447.5" x2="168.5" y2="468.5"/>
			<line fill="none" stroke="#000000" stroke-width="2" x1="557" y1="447.5" x2="557" y2="468.5"/>
			<line fill="none" stroke="#000000" stroke-width="2" x1="168.5" y1="468.5" x2="168.5" y2="754"/>
			<line fill="none" stroke="#000000" stroke-width="2" x1="557" y1="468.5" x2="557" y2="754"/>
			<line fill="none" stroke="#000000" stroke-width="2" stroke-dasharray="2,10" x1="168.5" y1="468.5" x2="214.5" y2="468.5"/>
			<line fill="none" stroke="#000000" stroke-width="2" stroke-dasharray="2,10" x1="537" y1="468.5" x2="557" y2="468.5"/>
			<line fill="none" stroke="#000000" stroke-width="2" stroke-dasharray="2,10" x1="214.5" y1="472" x2="537" y2="472"/>
			<line fill="none" stroke="#000000" stroke-width="2" x1="214.5" y1="257.5" x2="214.5" y2="468.5"/>
			<line fill="none" stroke="#000000" stroke-width="2" x1="537" y1="257.5" x2="537" y2="468.5"/>
			<line fill="none" stroke="#000000" stroke-width="2" x1="214.5" y1="468.5" x2="214.5" y2="472"/>
			<line fill="none" stroke="#000000" stroke-width="2" x1="537" y1="468.5" x2="537" y2="472"/>
			<line fill="none" stroke="#000000" stroke-width="2" x1="214.5" y1="472" x2="214.5" y2="683"/>
			<line fill="none" stroke="#000000" stroke-width="2" x1="537" y1="472" x2="537" y2="683"/>
			<line fill="none" stroke="#000000" stroke-width="2" stroke-dasharray="2,10" x1="214.5" y1="257.5" x2="280" y2="257.5"/>
			<line fill="none" stroke="#000000" stroke-width="2" stroke-dasharray="2,10" x1="453.5" y1="257.5" x2="537" y2="257.5"/>
			<line fill="none" stroke="#000000" stroke-width="2" stroke-dasharray="2,10" x1="214.5" y1="683" x2="285" y2="683"/>
			<line fill="none" stroke="#000000" stroke-width="2" stroke-dasharray="2,10" x1="479" y1="683" x2="537" y2="683"/>
			<line fill="none" stroke="#000000" stroke-width="2" stroke-dasharray="2,10" x1="280" y1="183" x2="453.5" y2="183"/>
			<line fill="none" stroke="#000000" stroke-width="2" stroke-dasharray="2,10" x1="280" y1="401.5" x2="453.5" y2="401.5"/>
			<line fill="none" stroke="#000000" stroke-width="2" stroke-dasharray="2,10" x1="280" y1="327" x2="453.5" y2="327"/>
			<line fill="none" stroke="#000000" stroke-width="2" x1="280" y1="183" x2="280" y2="257.5"/>
			<line fill="none" stroke="#000000" stroke-width="2" x1="453.5" y1="183" x2="453.5" y2="257.5"/>
			<line fill="none" stroke="#000000" stroke-width="2" x1="280" y1="257.5" x2="280" y2="327"/>
			<line fill="none" stroke="#000000" stroke-width="2" x1="453.5" y1="257.5" x2="453.5" y2="327"/>
			<line fill="none" stroke="#000000" stroke-width="2" x1="280" y1="327" x2="280" y2="401.5"/>
			<line fill="none" stroke="#000000" stroke-width="2" x1="453.5" y1="327" x2="453.5" y2="401.5"/>
			<line fill="none" stroke="#000000" stroke-width="2" stroke-dasharray="2,10" x1="285" y1="528" x2="479" y2="528"/>
			<line fill="none" stroke="#000000" stroke-width="2" stroke-dasharray="2,10" x1="285" y1="729.5" x2="479" y2="729.5"/>
			<line fill="none" stroke="#000000" stroke-width="2" stroke-dasharray="2,10" x1="285" y1="574.5" x2="479" y2="574.5"/>
			<line fill="none" stroke="#000000" stroke-width="2" x1="285" y1="528" x2="285" y2="574.5"/>
			<line fill="none" stroke="#000000" stroke-width="2" x1="479" y1="528" x2="479" y2="574.5"/>
			<line fill="none" stroke="#000000" stroke-width="2" x1="285" y1="574.5" x2="285" y2="683"/>
			<line fill="none" stroke="#000000" stroke-width="2" x1="479" y1="574.5" x2="479" y2="683"/>
			<line fill="none" stroke="#000000" stroke-width="2" x1="285" y1="683" x2="285" y2="729.5"/>
			<line fill="none" stroke="#000000" stroke-width="2" x1="479" y1="683" x2="479" y2="729.5"/>
		</g>
	</g>
</g>
<g id="Layer_2">
</g>
</svg>
