<?xml version="1.0" encoding="utf-8"?>
<!-- Generator: Adobe Illustrator 18.0.0, SVG Export Plug-In . SVG Version: 6.00 Build 0)  -->
<!DOCTYPE svg PUBLIC "-//W3C//DTD SVG 1.1//EN" "http://www.w3.org/Graphics/SVG/1.1/DTD/svg11.dtd">
<svg version="1.1" id="Layer_1" xmlns="http://www.w3.org/2000/svg" xmlns:xlink="http://www.w3.org/1999/xlink" x="0px" y="0px"
	 viewBox="0 0 1020 400" enable-background="new 0 0 1020 400" xml:space="preserve">
<g>
	<g id="XMLID_1_">
		<g>
			<rect x="511.2" y="196.7" fill="#FFFFFF" width="33" height="36.1"/>
			<path fill="#FFFFFF" d="M455.1,180.3c0.2,4.3,0,8.7,0.6,12.9c0.5,3.6,1.4,7.3,2.5,10.7c1.8,5.2,4.8,10,7.6,14.6
				c1.2,2.1,2.4,4.2,3.9,6.1c1.4,1.6,3,3.1,4.7,4.5c3.5,3.1,7.4,5.7,11.3,8.2c4.1,2.5,8.3,5.1,12.9,6.6h12.5v36.1h33v-36.1h7
				c2.3-1,4.4-2.3,6.4-3.7c4-2.7,7.8-5.8,11.1-9.2c3.7-3.7,6.9-8.1,9.8-12.5c2.7-4.3,5-8.9,7-13.5c2.6-5.9,4.8-12,6.4-18.2
				c0.6-2.2,1.1-4.4,1.4-6.6l36.6,0.2v160H390v-160L455.1,180.3z"/>
			<polygon fill="#FFFFFF" points="562.3,161.5 562.3,188.3 506.3,188.3 506.3,161.5 506.3,150.8 523.7,150.8 523.7,161.5 
				523.7,174.6 553.6,174.6 553.6,161.5 553.6,150.8 562.3,150.8 			"/>
			<polygon fill="#FFFFFF" points="553.6,150.8 553.6,161.5 523.7,161.5 523.7,150.8 523.7,137.7 553.6,137.7 			"/>
			<path fill="#FFFFFF" d="M456.3,161.5c0.7-2.7,1.2-5.4,2-8c1.2-4.1,3.2-7.9,5.1-11.7c2.1-4.3,4.5-8.6,7.2-12.5s6-7.5,9.4-10.9
				c0.2-0.2,0.4-0.4,0.6-0.6c1.1-0.9,3.1-0.3,4.3-1.2c0.4-0.3,0.8-0.8,1.2-1.2c1.3-1.4,2.2-3.1,3.5-4.5c1.6-1.8,3.6-3.4,5.5-4.9
				c1.5-1.2,3.1-2.4,4.7-3.5c2-1.4,3.9-2.9,5.9-4.3h10.2v16.6h37.9V98.2h8.4c0.6,0.3,1.2,0.5,1.8,0.8c4.8,1.9,9.6,4.1,13.7,7.2
				c3.2,2.4,6.1,5.4,8.6,8.6c1.2,1.5,2.3,3,3.3,4.7c0.8,1.4,1.5,2.8,2.1,4.3c1.1,2.5,1.8,5.2,2.5,7.8c0.5,1.7,1,3.4,1.4,5.1
				c1.1,5,1.4,10.2,1.4,15.2c0,2.7-0.2,5.5-0.4,8.2c0,0.5-0.1,0.9-0.2,1.4h-33.8v-10.7V124h-56.1v26.8v10.7H456.3z"/>
			<rect x="515.7" y="59.8" fill="#FFFFFF" width="37.9" height="16.6"/>
		</g>
		<g>
			<line fill="none" stroke="#000000" stroke-width="2" x1="390" y1="20.5" x2="630" y2="20.5"/>
			<line fill="none" stroke="#000000" stroke-width="2" x1="630" y1="340.5" x2="390" y2="340.5"/>
			<line fill="none" stroke="#000000" stroke-width="2" x1="390" y1="20.5" x2="390" y2="180.5"/>
			<line fill="none" stroke="#000000" stroke-width="2" x1="390" y1="180.5" x2="390" y2="340.5"/>
			<line fill="none" stroke="#000000" stroke-width="2" x1="630" y1="180.5" x2="630" y2="20.5"/>
			<line fill="none" stroke="#000000" stroke-width="2" x1="630" y1="340.5" x2="630" y2="180.5"/>
			<line fill="none" stroke="#000000" stroke-width="2" stroke-dasharray="2,10" x1="390" y1="180.5" x2="455.1" y2="180.3"/>
			<line fill="none" stroke="#000000" stroke-width="2" stroke-dasharray="2,10" x1="593.4" y1="180.3" x2="630" y2="180.5"/>
			<path fill="none" stroke="#000000" stroke-width="2" d="M480.5,117.8c-0.2,0.2-0.4,0.4-0.6,0.6c-3.4,3.4-6.6,7-9.4,10.9
				s-5.1,8.2-7.2,12.5c-1.9,3.8-3.9,7.7-5.1,11.7"/>
			<path fill="none" stroke="#000000" stroke-width="2" d="M458.2,153.5c-0.8,2.6-1.2,5.3-2,8"/>
			<path fill="none" stroke="#000000" stroke-width="2" d="M456.3,161.5c0.1,1.4,0,2.9-0.2,4.3c-0.4,4-0.5,8.1-0.6,12.1"/>
			<path fill="none" stroke="#000000" stroke-width="2" d="M455.5,177.9c0,0.8,0,1.6-0.4,2.3"/>
			<path fill="none" stroke="#000000" stroke-width="2" d="M455.1,180.3c0.2,4.3,0,8.7,0.6,12.9c0.5,3.6,1.4,7.3,2.5,10.7
				c1.8,5.2,4.8,10,7.6,14.6c1.2,2.1,2.4,4.2,3.9,6.1c1.4,1.6,3,3.1,4.7,4.5c3.5,3.1,7.4,5.7,11.3,8.2"/>
			<path fill="none" stroke="#000000" stroke-width="2" d="M485.8,237.3c4.1,2.5,8.3,5.1,12.9,6.6"/>
			<path fill="none" stroke="#000000" stroke-width="2" d="M551.2,243.9c2.3-1,4.4-2.3,6.4-3.7c4-2.7,7.8-5.8,11.1-9.2
				c3.7-3.7,6.9-8.1,9.8-12.5c2.7-4.3,5-8.9,7-13.5c2.6-5.9,4.8-12,6.4-18.2"/>
			<path fill="none" stroke="#000000" stroke-width="2" d="M592,186.9c0.6-2.2,1.1-4.4,1.4-6.6"/>
			<path fill="none" stroke="#000000" stroke-width="2" d="M593.4,180.3c0.9-3.8,1.4-7.5,2-11.3"/>
			<path fill="none" stroke="#000000" stroke-width="2" d="M595.4,168.9c0.4-2.5,0.6-5,0.8-7.4"/>
			<path fill="none" stroke="#000000" stroke-width="2" d="M596.1,161.5c0.1-0.5,0.2-0.9,0.2-1.4c0.2-2.7,0.4-5.5,0.4-8.2
				c0-5.1-0.3-10.3-1.4-15.2c-0.4-1.7-0.9-3.4-1.4-5.1c-0.8-2.6-1.4-5.3-2.5-7.8c-0.6-1.5-1.3-2.9-2.1-4.3c-1-1.6-2.1-3.2-3.3-4.7
				c-2.5-3.2-5.4-6.2-8.6-8.6c-4.1-3.1-8.9-5.3-13.7-7.2"/>
			<path fill="none" stroke="#000000" stroke-width="2" d="M563.7,99c-0.6-0.2-1.2-0.5-1.8-0.8"/>
			<path fill="none" stroke="#000000" stroke-width="2" d="M505.5,98.2c-2,1.4-3.9,2.9-5.9,4.3c-1.6,1.1-3.2,2.3-4.7,3.5
				c-1.9,1.5-3.8,3.1-5.5,4.9c-1.3,1.4-2.2,3.1-3.5,4.5c-0.4,0.4-0.7,0.9-1.2,1.2c-1.2,0.9-3.2,0.2-4.3,1.2"/>
			<line fill="none" stroke="#000000" stroke-width="2" stroke-dasharray="4,5" x1="456.3" y1="161.5" x2="506.3" y2="161.5"/>
			<line fill="none" stroke="#000000" stroke-width="2" stroke-dasharray="5,4" x1="562.3" y1="161.5" x2="596.1" y2="161.5"/>
			<line fill="none" stroke="#000000" stroke-width="2" stroke-dasharray="2,10" x1="505.5" y1="98.2" x2="515.7" y2="98.2"/>
			<line fill="none" stroke="#000000" stroke-width="2" stroke-dasharray="2,10" x1="553.6" y1="98.2" x2="562" y2="98.2"/>
			<line fill="none" stroke="#000000" stroke-width="2" stroke-dasharray="2,10" x1="498.7" y1="243.9" x2="511.2" y2="243.9"/>
			<line fill="none" stroke="#000000" stroke-width="2" stroke-dasharray="2,10" x1="544.2" y1="243.9" x2="551.2" y2="243.9"/>
			<g>
				<g>
					<line fill="none" stroke="#000000" stroke-width="2" x1="506.3" y1="124" x2="508.3" y2="124"/>
					
						<line fill="none" stroke="#000000" stroke-width="2" stroke-dasharray="4.1644,5.2055" x1="513.5" y1="124" x2="557.7" y2="124"/>
					<line fill="none" stroke="#000000" stroke-width="2" x1="560.3" y1="124" x2="562.3" y2="124"/>
				</g>
			</g>
			<g>
				<g>
					<line fill="none" stroke="#000000" stroke-width="2" x1="506.3" y1="188.3" x2="508.3" y2="188.3"/>
					
						<line fill="none" stroke="#000000" stroke-width="2" stroke-dasharray="4.1644,5.2055" x1="513.5" y1="188.3" x2="557.7" y2="188.3"/>
					<line fill="none" stroke="#000000" stroke-width="2" x1="560.3" y1="188.3" x2="562.3" y2="188.3"/>
				</g>
			</g>
			<line fill="none" stroke="#000000" stroke-width="2" x1="506.3" y1="124" x2="506.3" y2="150.8"/>
			<line fill="none" stroke="#000000" stroke-width="2" x1="562.3" y1="124" x2="562.3" y2="150.8"/>
			<line fill="none" stroke="#000000" stroke-width="2" x1="506.3" y1="150.8" x2="506.3" y2="161.5"/>
			<line fill="none" stroke="#000000" stroke-width="2" x1="562.3" y1="150.8" x2="562.3" y2="161.5"/>
			<line fill="none" stroke="#000000" stroke-width="2" x1="506.3" y1="161.5" x2="506.3" y2="188.3"/>
			<line fill="none" stroke="#000000" stroke-width="2" x1="562.3" y1="161.5" x2="562.3" y2="188.3"/>
			<line fill="none" stroke="#000000" stroke-width="2" stroke-dasharray="2,10" x1="506.3" y1="150.8" x2="523.7" y2="150.8"/>
			<line fill="none" stroke="#000000" stroke-width="2" stroke-dasharray="2,10" x1="553.6" y1="150.8" x2="562.3" y2="150.8"/>
			<line fill="none" stroke="#000000" stroke-width="2" stroke-dasharray="2,10" x1="515.7" y1="59.8" x2="553.6" y2="59.8"/>
			<line fill="none" stroke="#000000" stroke-width="2" stroke-dasharray="2,10" x1="515.7" y1="114.8" x2="553.6" y2="114.8"/>
			<line fill="none" stroke="#000000" stroke-width="2" stroke-dasharray="5,5" x1="515.7" y1="76.4" x2="553.6" y2="76.4"/>
			<line fill="none" stroke="#000000" stroke-width="2" x1="515.7" y1="59.8" x2="515.7" y2="76.4"/>
			<line fill="none" stroke="#000000" stroke-width="2" x1="553.6" y1="59.8" x2="553.6" y2="76.4"/>
			<line fill="none" stroke="#000000" stroke-width="2" x1="515.7" y1="76.4" x2="515.7" y2="98.2"/>
			<line fill="none" stroke="#000000" stroke-width="2" x1="553.6" y1="76.4" x2="553.6" y2="98.2"/>
			<line fill="none" stroke="#000000" stroke-width="2" x1="515.7" y1="98.2" x2="515.7" y2="114.8"/>
			<line fill="none" stroke="#000000" stroke-width="2" x1="553.6" y1="98.2" x2="553.6" y2="114.8"/>
			<line fill="none" stroke="#000000" stroke-width="2" stroke-dasharray="2,10" x1="511.2" y1="196.7" x2="544.2" y2="196.7"/>
			<line fill="none" stroke="#000000" stroke-width="2" stroke-dasharray="2,10" x1="511.2" y1="280.1" x2="544.2" y2="280.1"/>
			<line fill="none" stroke="#000000" stroke-width="2" stroke-dasharray="5,4" x1="511.2" y1="232.8" x2="544.2" y2="232.8"/>
			<line fill="none" stroke="#000000" stroke-width="2" x1="511.2" y1="196.7" x2="511.2" y2="232.8"/>
			<line fill="none" stroke="#000000" stroke-width="2" x1="544.2" y1="196.7" x2="544.2" y2="232.8"/>
			<line fill="none" stroke="#000000" stroke-width="2" x1="511.2" y1="232.8" x2="511.2" y2="243.9"/>
			<line fill="none" stroke="#000000" stroke-width="2" x1="544.2" y1="232.8" x2="544.2" y2="243.9"/>
			<line fill="none" stroke="#000000" stroke-width="2" x1="511.2" y1="243.9" x2="511.2" y2="280.1"/>
			<line fill="none" stroke="#000000" stroke-width="2" x1="544.2" y1="243.9" x2="544.2" y2="280.1"/>
			<line fill="none" stroke="#000000" stroke-width="2" stroke-dasharray="2,10" x1="523.7" y1="137.7" x2="553.6" y2="137.7"/>
			<line fill="none" stroke="#000000" stroke-width="2" stroke-dasharray="2,10" x1="523.7" y1="174.6" x2="553.6" y2="174.6"/>
			<line fill="none" stroke="#000000" stroke-width="2" stroke-dasharray="5,4" x1="523.7" y1="161.5" x2="553.6" y2="161.5"/>
			<line fill="none" stroke="#000000" stroke-width="2" x1="523.7" y1="137.7" x2="523.7" y2="150.8"/>
			<line fill="none" stroke="#000000" stroke-width="2" x1="553.6" y1="137.7" x2="553.6" y2="150.8"/>
			<line fill="none" stroke="#000000" stroke-width="2" x1="523.7" y1="150.8" x2="523.7" y2="161.5"/>
			<line fill="none" stroke="#000000" stroke-width="2" x1="553.6" y1="150.8" x2="553.6" y2="161.5"/>
			<line fill="none" stroke="#000000" stroke-width="2" x1="523.7" y1="161.5" x2="523.7" y2="174.6"/>
			<line fill="none" stroke="#000000" stroke-width="2" x1="553.6" y1="161.5" x2="553.6" y2="174.6"/>
		</g>
	</g>
</g>
</svg>
