<?xml version="1.0" encoding="utf-8"?>
<!-- Generator: Adobe Illustrator 18.0.0, SVG Export Plug-In . SVG Version: 6.00 Build 0)  -->
<!DOCTYPE svg PUBLIC "-//W3C//DTD SVG 1.1//EN" "http://www.w3.org/Graphics/SVG/1.1/DTD/svg11.dtd">
<svg version="1.1" id="Layer_1" xmlns="http://www.w3.org/2000/svg" xmlns:xlink="http://www.w3.org/1999/xlink" x="0px" y="0px"
	 viewBox="0 0 768 1024" enable-background="new 0 0 768 1024" xml:space="preserve">
<g>
	<path fill="none" stroke="#000000" stroke-width="2" d="M76.8,52.4h614.4"/>
	<path fill="none" stroke="#000000" stroke-width="2" d="M691.2,871.6H76.8"/>
	<path fill="none" stroke="#000000" stroke-width="2" d="M76.8,52.4V462"/>
	<path fill="none" stroke="#000000" stroke-width="2" d="M76.8,462v409.6"/>
	<path fill="none" stroke="#000000" stroke-width="2" d="M691.2,462V52.4"/>
	<path fill="none" stroke="#000000" stroke-width="2" d="M691.2,871.6V462"/>
	<path fill="none" stroke="#000000" stroke-width="2" stroke-dasharray="2,10" d="M76.8,462H91"/>
	<path fill="none" stroke="#000000" stroke-width="2" stroke-dasharray="2,10" d="M664.5,462h26.7"/>
	<path fill="none" stroke="#000000" stroke-width="2" stroke-dasharray="2,10" d="M91,97h573.5"/>
	<path fill="none" stroke="#000000" stroke-width="2" stroke-dasharray="2,10" d="M91,828.5h573.5"/>
	<path fill="none" stroke="#000000" stroke-width="2" d="M91,97v365"/>
	<path fill="none" stroke="#000000" stroke-width="2" d="M664.5,97v365"/>
	<path fill="none" stroke="#000000" stroke-width="2" d="M91,462v1.5"/>
	<path fill="none" stroke="#000000" stroke-width="2" d="M664.5,462v1.5"/>
	<path fill="none" stroke="#000000" stroke-width="2" d="M91,463.5v365"/>
	<path fill="none" stroke="#000000" stroke-width="2" d="M664.5,463.5v365"/>
	<path fill="none" stroke="#000000" stroke-width="2" stroke-dasharray="2,10" d="M91,463.5h18.5"/>
	<path fill="none" stroke="#000000" stroke-width="2" stroke-dasharray="2,10" d="M642.5,463.5h22"/>
	<path fill="none" stroke="#000000" stroke-width="2" stroke-dasharray="2,10" d="M109.5,129.5h533"/>
	<path fill="none" stroke="#000000" stroke-width="2" stroke-dasharray="2,10" d="M109.5,797h533"/>
	<path fill="none" stroke="#000000" stroke-width="2" d="M109.5,129.5V463"/>
	<path fill="none" stroke="#000000" stroke-width="2" d="M642.5,129.5V463"/>
	<path fill="none" stroke="#000000" stroke-width="2" d="M109.5,463v0.5"/>
	<path fill="none" stroke="#000000" stroke-width="2" d="M642.5,463v0.5"/>
	<path fill="none" stroke="#000000" stroke-width="2" d="M109.5,463.5V797"/>
	<path fill="none" stroke="#000000" stroke-width="2" d="M642.5,463.5V797"/>
	<path fill="none" stroke="#000000" stroke-width="2" stroke-dasharray="2,10" d="M109.5,463H130"/>
	<path fill="none" stroke="#000000" stroke-width="2" stroke-dasharray="2,10" d="M602.5,463h40"/>
	<path fill="none" stroke="#000000" stroke-width="2" stroke-dasharray="2,10" d="M130,179.5h472.5"/>
	<path fill="none" stroke="#000000" stroke-width="2" stroke-dasharray="2,10" d="M130,762h472.5"/>
	<path fill="none" stroke="#000000" stroke-width="2" d="M130,179.5V463"/>
	<path fill="none" stroke="#000000" stroke-width="2" d="M602.5,179.5V463"/>
	<path fill="none" stroke="#000000" stroke-width="2" d="M130,463v15.5"/>
	<path fill="none" stroke="#000000" stroke-width="2" d="M602.5,463v15.5"/>
	<path fill="none" stroke="#000000" stroke-width="2" d="M130,478.5V762"/>
	<path fill="none" stroke="#000000" stroke-width="2" d="M602.5,478.5V762"/>
	<path fill="none" stroke="#000000" stroke-width="2" stroke-dasharray="2,10" d="M572.5,478.5h30"/>
	<path fill="none" stroke="#000000" stroke-width="2" stroke-dasharray="2,10" d="M130,478.5h26"/>
	<path fill="none" stroke="#000000" stroke-width="2" stroke-dasharray="2,10" d="M392,478.5h42"/>
	<path fill="none" stroke="#000000" stroke-width="2" stroke-dasharray="2,10" d="M434,214h138.5"/>
	<path fill="none" stroke="#000000" stroke-width="2" stroke-dasharray="2,10" d="M434,704.5h138.5"/>
	<path fill="none" stroke="#000000" stroke-width="2" d="M434,214v226"/>
	<path fill="none" stroke="#000000" stroke-width="2" d="M572.5,214v226"/>
	<path fill="none" stroke="#000000" stroke-width="2" d="M434,440v38.5"/>
	<path fill="none" stroke="#000000" stroke-width="2" d="M572.5,440v38.5"/>
	<path fill="none" stroke="#000000" stroke-width="2" d="M434,478.5v226"/>
	<path fill="none" stroke="#000000" stroke-width="2" d="M572.5,478.5v226"/>
	<path fill="none" stroke="#000000" stroke-width="2" stroke-dasharray="2,10" d="M434,440h27.5"/>
	<path fill="none" stroke="#000000" stroke-width="2" stroke-dasharray="2,10" d="M493,440h18.5"/>
	<path fill="none" stroke="#000000" stroke-width="2" stroke-dasharray="2,10" d="M557.5,440h15"/>
	<path fill="none" stroke="#000000" stroke-width="2" stroke-dasharray="2,10" d="M156,220.5h236"/>
	<path fill="none" stroke="#000000" stroke-width="2" stroke-dasharray="2,10" d="M156,720.5h236"/>
	<path fill="none" stroke="#000000" stroke-width="2" d="M156,220.5v242"/>
	<path fill="none" stroke="#000000" stroke-width="2" d="M392,220.5v242"/>
	<path fill="none" stroke="#000000" stroke-width="2" d="M156,462.5v16"/>
	<path fill="none" stroke="#000000" stroke-width="2" d="M392,462.5v16"/>
	<path fill="none" stroke="#000000" stroke-width="2" d="M156,478.5v242"/>
	<path fill="none" stroke="#000000" stroke-width="2" d="M392,478.5v242"/>
	<path fill="none" stroke="#000000" stroke-width="2" stroke-dasharray="2,10" d="M156,462.5h30"/>
	<path fill="none" stroke="#000000" stroke-width="2" stroke-dasharray="2,10" d="M373,462.5h19"/>
	<path fill="none" stroke="#000000" stroke-width="2" stroke-dasharray="2,10" d="M186,249.5h187"/>
	<path fill="none" stroke="#000000" stroke-width="2" stroke-dasharray="2,10" d="M186,687h187"/>
	<path fill="none" stroke="#000000" stroke-width="2" d="M186,249.5v213"/>
	<path fill="none" stroke="#000000" stroke-width="2" d="M373,249.5v213"/>
	<path fill="none" stroke="#000000" stroke-width="2" d="M186,462.5V474"/>
	<path fill="none" stroke="#000000" stroke-width="2" d="M373,462.5V474"/>
	<path fill="none" stroke="#000000" stroke-width="2" d="M186,474v213"/>
	<path fill="none" stroke="#000000" stroke-width="2" d="M373,474v213"/>
	<path fill="none" stroke="#000000" stroke-width="2" stroke-dasharray="2,10" d="M186,474h26.5"/>
	<path fill="none" stroke="#000000" stroke-width="2" stroke-dasharray="2,10" d="M363,474h10"/>
	<path fill="none" stroke="#000000" stroke-width="2" stroke-dasharray="2,10" d="M461.5,283H493"/>
	<path fill="none" stroke="#000000" stroke-width="2" stroke-dasharray="2,10" d="M461.5,691H493"/>
	<path fill="none" stroke="#000000" stroke-width="2" stroke-dasharray="2,10" d="M461.5,534H493"/>
	<path fill="none" stroke="#000000" stroke-width="2" d="M461.5,283v157"/>
	<path fill="none" stroke="#000000" stroke-width="2" d="M493,283v157"/>
	<path fill="none" stroke="#000000" stroke-width="2" d="M461.5,440v94"/>
	<path fill="none" stroke="#000000" stroke-width="2" d="M493,440v94"/>
	<path fill="none" stroke="#000000" stroke-width="2" d="M461.5,534v157"/>
	<path fill="none" stroke="#000000" stroke-width="2" d="M493,534v157"/>
	<path fill="none" stroke="#000000" stroke-width="2" stroke-dasharray="2,10" d="M511.5,243h46"/>
	<path fill="none" stroke="#000000" stroke-width="2" stroke-dasharray="2,10" d="M511.5,669.5h46"/>
	<path fill="none" stroke="#000000" stroke-width="2" stroke-dasharray="2,10" d="M511.5,472.5h46"/>
	<path fill="none" stroke="#000000" stroke-width="2" d="M511.5,243v197"/>
	<path fill="none" stroke="#000000" stroke-width="2" d="M557.5,243v197"/>
	<path fill="none" stroke="#000000" stroke-width="2" d="M511.5,440v32.5"/>
	<path fill="none" stroke="#000000" stroke-width="2" d="M557.5,440v32.5"/>
	<path fill="none" stroke="#000000" stroke-width="2" d="M511.5,472.5v197"/>
	<path fill="none" stroke="#000000" stroke-width="2" d="M557.5,472.5v197"/>
	<path fill="none" stroke="#000000" stroke-width="2" stroke-dasharray="2,10" d="M212.5,286.5H363"/>
	<path fill="none" stroke="#000000" stroke-width="2" stroke-dasharray="2,10" d="M212.5,653.5H363"/>
	<path fill="none" stroke="#000000" stroke-width="2" stroke-dasharray="2,10" d="M212.5,466H363"/>
	<path fill="none" stroke="#000000" stroke-width="2" d="M212.5,286.5V466"/>
	<path fill="none" stroke="#000000" stroke-width="2" d="M363,286.5V466"/>
	<path fill="none" stroke="#000000" stroke-width="2" d="M212.5,466v8"/>
	<path fill="none" stroke="#000000" stroke-width="2" d="M363,466v8"/>
	<path fill="none" stroke="#000000" stroke-width="2" d="M212.5,474v179.5"/>
	<path fill="none" stroke="#000000" stroke-width="2" d="M363,474v179.5"/>
</g>
</svg>
