<?xml version="1.0" encoding="utf-8"?>
<!-- Generator: Adobe Illustrator 18.0.0, SVG Export Plug-In . SVG Version: 6.00 Build 0)  -->
<!DOCTYPE svg PUBLIC "-//W3C//DTD SVG 1.1//EN" "http://www.w3.org/Graphics/SVG/1.1/DTD/svg11.dtd">
<svg version="1.1" id="Layer_1" xmlns="http://www.w3.org/2000/svg" xmlns:xlink="http://www.w3.org/1999/xlink" x="0px" y="0px"
	 viewBox="0 0 768 1024" enable-background="new 0 0 768 1024" xml:space="preserve">
<g>
	<path fill="none" stroke="#000000" stroke-width="2" d="M76.8,52.4h614.4"/>
	<path fill="none" stroke="#000000" stroke-width="2" d="M691.2,871.6H76.8"/>
	<path fill="none" stroke="#000000" stroke-width="2" d="M76.8,52.4V462"/>
	<path fill="none" stroke="#000000" stroke-width="2" d="M76.8,462v409.6"/>
	<path fill="none" stroke="#000000" stroke-width="2" d="M691.2,462V52.4"/>
	<path fill="none" stroke="#000000" stroke-width="2" d="M691.2,871.6V462"/>
	<path fill="none" stroke="#000000" stroke-width="2" stroke-dasharray="2,10" d="M76.8,462l166.7-0.5"/>
	<path fill="none" stroke="#000000" stroke-width="2" stroke-dasharray="2,10" d="M597.5,461.5l93.7,0.5"/>
	<path fill="none" stroke="#000000" stroke-width="2" d="M308.5,301.5c-0.5,0.5-1,1-1.5,1.5c-8.7,8.7-16.9,18-24,28s-13,21-18.5,32
		c-4.9,9.7-9.9,19.6-13,30"/>
	<path fill="none" stroke="#000000" stroke-width="2" d="M251.5,393c-2,6.7-3.2,13.6-5,20.5"/>
	<path fill="none" stroke="#000000" stroke-width="2" d="M246.5,413.5c0.3,3.7-0.1,7.4-0.5,11c-1.1,10.3-1.3,20.7-1.5,31"/>
	<path fill="none" stroke="#000000" stroke-width="2" d="M244.5,455.5c0,2-0.1,4-1,6"/>
	<path fill="none" stroke="#000000" stroke-width="2" d="M243.5,461.5c0.5,11.1,0,22.2,1.5,33c1.3,9.3,3.5,18.7,6.5,27.5
		c4.5,13.2,12.2,25.5,19.5,37.5c3.2,5.3,6.1,10.8,10,15.5c3.5,4.2,7.8,7.9,12,11.5c8.9,7.9,18.9,14.7,29,21"/>
	<path fill="none" stroke="#000000" stroke-width="2" d="M322,607.5c10.5,6.5,21.3,13.1,33,17"/>
	<path fill="none" stroke="#000000" stroke-width="2" d="M489.5,624.5c5.9-2.5,11.3-6,16.5-9.5c10.2-6.8,19.9-14.8,28.5-23.5
		c9.4-9.6,17.7-20.7,25-32c7-10.9,12.7-22.7,18-34.5c6.7-15,12.3-30.7,16.5-46.5"/>
	<path fill="none" stroke="#000000" stroke-width="2" d="M594,478.5c1.5-5.6,2.8-11.3,3.5-17"/>
	<path fill="none" stroke="#000000" stroke-width="2" d="M597.5,461.5c2.3-9.6,3.7-19.3,5-29"/>
	<path fill="none" stroke="#000000" stroke-width="2" d="M602.5,432.5c0.9-6.3,1.6-12.7,2-19"/>
	<path fill="none" stroke="#000000" stroke-width="2" d="M604.5,413.5c0.3-1.2,0.4-2.3,0.5-3.5c0.5-7,1-14,1-21
		c0-13-0.7-26.3-3.5-39c-1-4.4-2.2-8.7-3.5-13c-2-6.7-3.7-13.6-6.5-20c-1.6-3.8-3.4-7.5-5.5-11c-2.5-4.2-5.5-8.2-8.5-12
		c-6.4-8.1-13.9-15.8-22-22c-10.4-7.9-22.8-13.6-35-18.5"/>
	<path fill="none" stroke="#000000" stroke-width="2" d="M521.5,253.5c-1.5-0.6-3-1.2-4.5-2"/>
	<path fill="none" stroke="#000000" stroke-width="2" d="M372.5,251.5c-5,3.6-10,7.4-15,11c-4.1,2.9-8.1,5.9-12,9
		c-4.9,3.9-9.8,7.9-14,12.5c-3.3,3.6-5.7,8-9,11.5c-1,1-1.9,2.2-3,3c-3,2.2-8.2,0.6-11,3"/>
	<path fill="none" stroke="#000000" stroke-width="2" stroke-dasharray="2,10" d="M246.5,413.5h128"/>
	<path fill="none" stroke="#000000" stroke-width="2" stroke-dasharray="2,10" d="M518,413.5h86.5"/>
	<path fill="none" stroke="#000000" stroke-width="2" stroke-dasharray="2,10" d="M372.5,251.5h26"/>
	<path fill="none" stroke="#000000" stroke-width="2" stroke-dasharray="2,10" d="M495.5,251.5H517"/>
	<path fill="none" stroke="#000000" stroke-width="2" stroke-dasharray="2,10" d="M355,624.5h32"/>
	<path fill="none" stroke="#000000" stroke-width="2" stroke-dasharray="2,10" d="M471.5,624.5h18"/>
	<path fill="none" stroke="#000000" stroke-width="2" stroke-dasharray="2,10" d="M374.5,317.5H518"/>
	<path fill="none" stroke="#000000" stroke-width="2" stroke-dasharray="2,10" d="M374.5,482H518"/>
	<path fill="none" stroke="#000000" stroke-width="2" d="M374.5,317.5V386"/>
	<path fill="none" stroke="#000000" stroke-width="2" d="M518,317.5V386"/>
	<path fill="none" stroke="#000000" stroke-width="2" d="M374.5,386v27.5"/>
	<path fill="none" stroke="#000000" stroke-width="2" d="M518,386v27.5"/>
	<path fill="none" stroke="#000000" stroke-width="2" d="M374.5,413.5V482"/>
	<path fill="none" stroke="#000000" stroke-width="2" d="M518,413.5V482"/>
	<path fill="none" stroke="#000000" stroke-width="2" stroke-dasharray="2,10" d="M374.5,386H419"/>
	<path fill="none" stroke="#000000" stroke-width="2" stroke-dasharray="2,10" d="M495.5,386H518"/>
	<path fill="none" stroke="#000000" stroke-width="2" stroke-dasharray="2,10" d="M398.5,153h97"/>
	<path fill="none" stroke="#000000" stroke-width="2" stroke-dasharray="2,10" d="M398.5,294h97"/>
	<path fill="none" stroke="#000000" stroke-width="2" stroke-dasharray="2,10" d="M398.5,195.5h97"/>
	<path fill="none" stroke="#000000" stroke-width="2" d="M398.5,153v42.5"/>
	<path fill="none" stroke="#000000" stroke-width="2" d="M495.5,153v42.5"/>
	<path fill="none" stroke="#000000" stroke-width="2" d="M398.5,195.5v56"/>
	<path fill="none" stroke="#000000" stroke-width="2" d="M495.5,195.5v56"/>
	<path fill="none" stroke="#000000" stroke-width="2" d="M398.5,251.5V294"/>
	<path fill="none" stroke="#000000" stroke-width="2" d="M495.5,251.5V294"/>
	<path fill="none" stroke="#000000" stroke-width="2" stroke-dasharray="2,10" d="M387,503.5h84.5"/>
	<path fill="none" stroke="#000000" stroke-width="2" stroke-dasharray="2,10" d="M387,717h84.5"/>
	<path fill="none" stroke="#000000" stroke-width="2" stroke-dasharray="2,10" d="M387,596h84.5"/>
	<path fill="none" stroke="#000000" stroke-width="2" d="M387,503.5V596"/>
	<path fill="none" stroke="#000000" stroke-width="2" d="M471.5,503.5V596"/>
	<path fill="none" stroke="#000000" stroke-width="2" d="M387,596v28.5"/>
	<path fill="none" stroke="#000000" stroke-width="2" d="M471.5,596v28.5"/>
	<path fill="none" stroke="#000000" stroke-width="2" d="M387,624.5V717"/>
	<path fill="none" stroke="#000000" stroke-width="2" d="M471.5,624.5V717"/>
	<path fill="none" stroke="#000000" stroke-width="2" stroke-dasharray="2,10" d="M419,352.5h76.5"/>
	<path fill="none" stroke="#000000" stroke-width="2" stroke-dasharray="2,10" d="M419,447h76.5"/>
	<path fill="none" stroke="#000000" stroke-width="2" stroke-dasharray="2,10" d="M419,413.5h76.5"/>
	<path fill="none" stroke="#000000" stroke-width="2" d="M419,352.5V386"/>
	<path fill="none" stroke="#000000" stroke-width="2" d="M495.5,352.5V386"/>
	<path fill="none" stroke="#000000" stroke-width="2" d="M419,386v27.5"/>
	<path fill="none" stroke="#000000" stroke-width="2" d="M495.5,386v27.5"/>
	<path fill="none" stroke="#000000" stroke-width="2" d="M419,413.5V447"/>
	<path fill="none" stroke="#000000" stroke-width="2" d="M495.5,413.5V447"/>
</g>
</svg>
