<?xml version="1.0" encoding="utf-8"?>
<!-- Generator: Adobe Illustrator 18.0.0, SVG Export Plug-In . SVG Version: 6.00 Build 0)  -->
<!DOCTYPE svg PUBLIC "-//W3C//DTD SVG 1.1//EN" "http://www.w3.org/Graphics/SVG/1.1/DTD/svg11.dtd">
<svg version="1.1" id="Layer_1" xmlns="http://www.w3.org/2000/svg" xmlns:xlink="http://www.w3.org/1999/xlink" x="0px" y="0px"
	 viewBox="0 0 768 1024" enable-background="new 0 0 768 1024" xml:space="preserve">
<g>
	<g id="XMLID_1_">
		<g>
			<rect x="387" y="503.5" fill="#AAAAAA" width="84.5" height="92.5"/>
			<path fill="#AAAAAA" d="M243.5,461.5c0.5,11.1,0,22.2,1.5,33c1.3,9.3,3.5,18.7,6.5,27.5c4.5,13.2,12.2,25.5,19.5,37.5
				c3.2,5.3,6.1,10.8,10,15.5c3.5,4.2,7.8,7.9,12,11.5c8.9,7.9,18.9,14.7,29,21c10.5,6.5,21.3,13.1,33,17h32V717h84.5v-92.5h18
				c5.9-2.5,11.3-6,16.5-9.5c10.2-6.8,19.9-14.8,28.5-23.5c9.4-9.6,17.7-20.7,25-32c7-10.9,12.7-22.7,18-34.5
				c6.7-15,12.3-30.7,16.5-46.5c1.5-5.6,2.8-11.3,3.5-17l93.7,0.5v409.6H76.8V462L243.5,461.5z"/>
			<polygon fill="#AAAAAA" points="518,413.5 518,482 374.5,482 374.5,413.5 374.5,386 419,386 419,413.5 419,447 495.5,447 
				495.5,413.5 495.5,386 518,386 			"/>
			<polygon fill="#AAAAAA" points="495.5,386 495.5,413.5 419,413.5 419,386 419,352.5 495.5,352.5 			"/>
			<path fill="#AAAAAA" d="M246.5,413.5c1.8-6.9,3-13.8,5-20.5c3.1-10.4,8.1-20.3,13-30c5.5-11,11.4-22,18.5-32s15.3-19.3,24-28
				c0.5-0.5,1-1,1.5-1.5c2.8-2.4,8-0.8,11-3c1.1-0.8,2-2,3-3c3.3-3.5,5.7-7.9,9-11.5c4.2-4.6,9.1-8.6,14-12.5c3.9-3.1,7.9-6.1,12-9
				c5-3.6,10-7.4,15-11h26V294h97v-42.5H517c1.5,0.8,3,1.4,4.5,2c12.2,4.9,24.6,10.6,35,18.5c8.1,6.2,15.6,13.9,22,22
				c3,3.8,6,7.8,8.5,12c2.1,3.5,3.9,7.2,5.5,11c2.8,6.4,4.5,13.3,6.5,20c1.3,4.3,2.5,8.6,3.5,13c2.8,12.7,3.5,26,3.5,39
				c0,7-0.5,14-1,21c-0.1,1.2-0.2,2.3-0.5,3.5H518V386v-68.5H374.5V386v27.5H246.5z"/>
			<rect x="398.5" y="153" fill="#AAAAAA" width="97" height="42.5"/>
		</g>
		<g>
			<line fill="none" stroke="#000000" stroke-width="2" x1="76.8" y1="52.4" x2="691.2" y2="52.4"/>
			<line fill="none" stroke="#000000" stroke-width="2" x1="691.2" y1="871.6" x2="76.8" y2="871.6"/>
			<line fill="none" stroke="#000000" stroke-width="2" x1="76.8" y1="52.4" x2="76.8" y2="462"/>
			<line fill="none" stroke="#000000" stroke-width="2" x1="76.8" y1="462" x2="76.8" y2="871.6"/>
			<line fill="none" stroke="#000000" stroke-width="2" x1="691.2" y1="462" x2="691.2" y2="52.4"/>
			<line fill="none" stroke="#000000" stroke-width="2" x1="691.2" y1="871.6" x2="691.2" y2="462"/>
			<line fill="none" stroke="#000000" stroke-width="2" stroke-dasharray="2,10" x1="76.8" y1="462" x2="243.5" y2="461.5"/>
			<line fill="none" stroke="#000000" stroke-width="2" stroke-dasharray="2,10" x1="597.5" y1="461.5" x2="691.2" y2="462"/>
			<path fill="none" stroke="#000000" stroke-width="2" d="M308.5,301.5c-0.5,0.5-1,1-1.5,1.5c-8.7,8.7-16.9,18-24,28
				s-13,21-18.5,32c-4.9,9.7-9.9,19.6-13,30"/>
			<path fill="none" stroke="#000000" stroke-width="2" d="M251.5,393c-2,6.7-3.2,13.6-5,20.5"/>
			<path fill="none" stroke="#000000" stroke-width="2" d="M246.5,413.5c0.3,3.7-0.1,7.4-0.5,11c-1.1,10.3-1.3,20.7-1.5,31"/>
			<path fill="none" stroke="#000000" stroke-width="2" d="M244.5,455.5c0,2-0.1,4-1,6"/>
			<path fill="none" stroke="#000000" stroke-width="2" d="M243.5,461.5c0.5,11.1,0,22.2,1.5,33c1.3,9.3,3.5,18.7,6.5,27.5
				c4.5,13.2,12.2,25.5,19.5,37.5c3.2,5.3,6.1,10.8,10,15.5c3.5,4.2,7.8,7.9,12,11.5c8.9,7.9,18.9,14.7,29,21"/>
			<path fill="none" stroke="#000000" stroke-width="2" d="M322,607.5c10.5,6.5,21.3,13.1,33,17"/>
			<path fill="none" stroke="#000000" stroke-width="2" d="M489.5,624.5c5.9-2.5,11.3-6,16.5-9.5c10.2-6.8,19.9-14.8,28.5-23.5
				c9.4-9.6,17.7-20.7,25-32c7-10.9,12.7-22.7,18-34.5c6.7-15,12.3-30.7,16.5-46.5"/>
			<path fill="none" stroke="#000000" stroke-width="2" d="M594,478.5c1.5-5.6,2.8-11.3,3.5-17"/>
			<path fill="none" stroke="#000000" stroke-width="2" d="M597.5,461.5c2.3-9.6,3.7-19.3,5-29"/>
			<path fill="none" stroke="#000000" stroke-width="2" d="M602.5,432.5c0.9-6.3,1.6-12.7,2-19"/>
			<path fill="none" stroke="#000000" stroke-width="2" d="M604.5,413.5c0.3-1.2,0.4-2.3,0.5-3.5c0.5-7,1-14,1-21
				c0-13-0.7-26.3-3.5-39c-1-4.4-2.2-8.7-3.5-13c-2-6.7-3.7-13.6-6.5-20c-1.6-3.8-3.4-7.5-5.5-11c-2.5-4.2-5.5-8.2-8.5-12
				c-6.4-8.1-13.9-15.8-22-22c-10.4-7.9-22.8-13.6-35-18.5"/>
			<path fill="none" stroke="#000000" stroke-width="2" d="M521.5,253.5c-1.5-0.6-3-1.2-4.5-2"/>
			<path fill="none" stroke="#000000" stroke-width="2" d="M372.5,251.5c-5,3.6-10,7.4-15,11c-4.1,2.9-8.1,5.9-12,9
				c-4.9,3.9-9.8,7.9-14,12.5c-3.3,3.6-5.7,8-9,11.5c-1,1-1.9,2.2-3,3c-3,2.2-8.2,0.6-11,3"/>
			<line fill="none" stroke="#000000" stroke-width="2" stroke-dasharray="2,10" x1="246.5" y1="413.5" x2="374.5" y2="413.5"/>
			<line fill="none" stroke="#000000" stroke-width="2" stroke-dasharray="2,10" x1="518" y1="413.5" x2="604.5" y2="413.5"/>
			<line fill="none" stroke="#000000" stroke-width="2" stroke-dasharray="2,10" x1="372.5" y1="251.5" x2="398.5" y2="251.5"/>
			<line fill="none" stroke="#000000" stroke-width="2" stroke-dasharray="2,10" x1="495.5" y1="251.5" x2="517" y2="251.5"/>
			<line fill="none" stroke="#000000" stroke-width="2" stroke-dasharray="2,10" x1="355" y1="624.5" x2="387" y2="624.5"/>
			<line fill="none" stroke="#000000" stroke-width="2" stroke-dasharray="2,10" x1="471.5" y1="624.5" x2="489.5" y2="624.5"/>
			<line fill="none" stroke="#000000" stroke-width="2" stroke-dasharray="2,10" x1="374.5" y1="317.5" x2="518" y2="317.5"/>
			<line fill="none" stroke="#000000" stroke-width="2" stroke-dasharray="2,10" x1="374.5" y1="482" x2="518" y2="482"/>
			<line fill="none" stroke="#000000" stroke-width="2" x1="374.5" y1="317.5" x2="374.5" y2="386"/>
			<line fill="none" stroke="#000000" stroke-width="2" x1="518" y1="317.5" x2="518" y2="386"/>
			<line fill="none" stroke="#000000" stroke-width="2" x1="374.5" y1="386" x2="374.5" y2="413.5"/>
			<line fill="none" stroke="#000000" stroke-width="2" x1="518" y1="386" x2="518" y2="413.5"/>
			<line fill="none" stroke="#000000" stroke-width="2" x1="374.5" y1="413.5" x2="374.5" y2="482"/>
			<line fill="none" stroke="#000000" stroke-width="2" x1="518" y1="413.5" x2="518" y2="482"/>
			<line fill="none" stroke="#000000" stroke-width="2" stroke-dasharray="2,10" x1="374.5" y1="386" x2="419" y2="386"/>
			<line fill="none" stroke="#000000" stroke-width="2" stroke-dasharray="2,10" x1="495.5" y1="386" x2="518" y2="386"/>
			<line fill="none" stroke="#000000" stroke-width="2" stroke-dasharray="2,10" x1="398.5" y1="153" x2="495.5" y2="153"/>
			<line fill="none" stroke="#000000" stroke-width="2" stroke-dasharray="2,10" x1="398.5" y1="294" x2="495.5" y2="294"/>
			<line fill="none" stroke="#000000" stroke-width="2" stroke-dasharray="2,10" x1="398.5" y1="195.5" x2="495.5" y2="195.5"/>
			<line fill="none" stroke="#000000" stroke-width="2" x1="398.5" y1="153" x2="398.5" y2="195.5"/>
			<line fill="none" stroke="#000000" stroke-width="2" x1="495.5" y1="153" x2="495.5" y2="195.5"/>
			<line fill="none" stroke="#000000" stroke-width="2" x1="398.5" y1="195.5" x2="398.5" y2="251.5"/>
			<line fill="none" stroke="#000000" stroke-width="2" x1="495.5" y1="195.5" x2="495.5" y2="251.5"/>
			<line fill="none" stroke="#000000" stroke-width="2" x1="398.5" y1="251.5" x2="398.5" y2="294"/>
			<line fill="none" stroke="#000000" stroke-width="2" x1="495.5" y1="251.5" x2="495.5" y2="294"/>
			<line fill="none" stroke="#000000" stroke-width="2" stroke-dasharray="2,10" x1="387" y1="503.5" x2="471.5" y2="503.5"/>
			<line fill="none" stroke="#000000" stroke-width="2" stroke-dasharray="2,10" x1="387" y1="717" x2="471.5" y2="717"/>
			<line fill="none" stroke="#000000" stroke-width="2" stroke-dasharray="2,10" x1="387" y1="596" x2="471.5" y2="596"/>
			<line fill="none" stroke="#000000" stroke-width="2" x1="387" y1="503.5" x2="387" y2="596"/>
			<line fill="none" stroke="#000000" stroke-width="2" x1="471.5" y1="503.5" x2="471.5" y2="596"/>
			<line fill="none" stroke="#000000" stroke-width="2" x1="387" y1="596" x2="387" y2="624.5"/>
			<line fill="none" stroke="#000000" stroke-width="2" x1="471.5" y1="596" x2="471.5" y2="624.5"/>
			<line fill="none" stroke="#000000" stroke-width="2" x1="387" y1="624.5" x2="387" y2="717"/>
			<line fill="none" stroke="#000000" stroke-width="2" x1="471.5" y1="624.5" x2="471.5" y2="717"/>
			<line fill="none" stroke="#000000" stroke-width="2" stroke-dasharray="2,10" x1="419" y1="352.5" x2="495.5" y2="352.5"/>
			<line fill="none" stroke="#000000" stroke-width="2" stroke-dasharray="2,10" x1="419" y1="447" x2="495.5" y2="447"/>
			<line fill="none" stroke="#000000" stroke-width="2" stroke-dasharray="2,10" x1="419" y1="413.5" x2="495.5" y2="413.5"/>
			<line fill="none" stroke="#000000" stroke-width="2" x1="419" y1="352.5" x2="419" y2="386"/>
			<line fill="none" stroke="#000000" stroke-width="2" x1="495.5" y1="352.5" x2="495.5" y2="386"/>
			<line fill="none" stroke="#000000" stroke-width="2" x1="419" y1="386" x2="419" y2="413.5"/>
			<line fill="none" stroke="#000000" stroke-width="2" x1="495.5" y1="386" x2="495.5" y2="413.5"/>
			<line fill="none" stroke="#000000" stroke-width="2" x1="419" y1="413.5" x2="419" y2="447"/>
			<line fill="none" stroke="#000000" stroke-width="2" x1="495.5" y1="413.5" x2="495.5" y2="447"/>
		</g>
	</g>
</g>
</svg>
