<?xml version="1.0" encoding="utf-8"?>
<!-- Generator: Adobe Illustrator 18.0.0, SVG Export Plug-In . SVG Version: 6.00 Build 0)  -->
<!DOCTYPE svg PUBLIC "-//W3C//DTD SVG 1.1//EN" "http://www.w3.org/Graphics/SVG/1.1/DTD/svg11.dtd">
<svg version="1.1" id="Layer_1" xmlns="http://www.w3.org/2000/svg" xmlns:xlink="http://www.w3.org/1999/xlink" x="0px" y="0px"
	 viewBox="0 0 1020 400" enable-background="new 0 0 1020 400" xml:space="preserve">
<g>
	<g id="XMLID_1_">
		<g>
			<polygon fill="#FFFFFF" points="501.8,185.2 501.8,255.3 443,255.3 443,185.2 443,182 501.8,182 			"/>
			<rect x="443" y="111.9" fill="#FFFFFF" width="58.8" height="70.1"/>
			<polygon fill="#FFFFFF" points="577.8,171.9 577.8,184.6 559.8,184.6 559.8,171.9 559.8,94.9 577.8,94.9 			"/>
			<polygon fill="#FFFFFF" points="552.6,171.9 552.6,208.6 540.3,208.6 540.3,171.9 540.3,110.5 552.6,110.5 			"/>
			<polygon fill="#FFFFFF" points="505.7,180.7 505.7,185.2 501.8,185.2 501.8,182 501.8,111.9 443,111.9 443,182 443,185.2 
				432.7,185.2 432.7,180.7 432.7,97.5 505.7,97.5 			"/>
			<polygon fill="#FFFFFF" points="595.4,180.9 595.4,186.9 583.6,186.9 583.6,171.9 583.6,83.6 529.5,83.6 529.5,171.9 
				529.5,186.9 513.1,186.9 513.1,180.7 513.1,86.1 420.9,86.1 420.9,180.7 420.9,186.9 410.8,186.9 410.8,180.9 410.8,70.1 
				595.4,70.1 			"/>
			<polygon fill="#FFFFFF" points="402.8,180.9 402.8,181.1 395.5,181.1 395.5,180.5 395.5,37.9 619.6,37.9 619.6,180.5 
				619.6,181.1 611,181.1 611,180.9 611,50.6 402.8,50.6 			"/>
			<polygon fill="#FFFFFF" points="583.6,186.9 583.6,275.2 529.5,275.2 529.5,186.9 529.5,171.9 540.3,171.9 540.3,208.6 
				540.3,269.9 552.6,269.9 552.6,208.6 552.6,171.9 559.8,171.9 559.8,184.6 559.8,261.5 577.8,261.5 577.8,184.6 577.8,171.9 
				583.6,171.9 			"/>
			<polygon fill="#FFFFFF" points="513.1,186.9 513.1,281.4 420.9,281.4 420.9,186.9 420.9,180.7 432.7,180.7 432.7,185.2 
				432.7,268.4 505.7,268.4 505.7,185.2 505.7,180.7 513.1,180.7 			"/>
			<polygon fill="#FFFFFF" points="611,181.1 611,311.3 402.8,311.3 402.8,181.1 402.8,180.9 410.8,180.9 410.8,186.9 410.8,297.7 
				595.4,297.7 595.4,186.9 595.4,180.9 611,180.9 			"/>
			<polygon fill="#FFFFFF" points="395.5,180.5 395.5,181.1 395.5,323.6 619.6,323.6 619.6,181.1 619.6,180.5 630,180.5 630,340.5 
				390,340.5 390,180.5 			"/>
		</g>
		<g>
			<line fill="none" stroke="#000000" stroke-width="2" x1="390" y1="20.5" x2="630" y2="20.5"/>
			<line fill="none" stroke="#000000" stroke-width="2" x1="630" y1="340.5" x2="390" y2="340.5"/>
			<line fill="none" stroke="#000000" stroke-width="2" x1="390" y1="20.5" x2="390" y2="180.5"/>
			<line fill="none" stroke="#000000" stroke-width="2" x1="390" y1="180.5" x2="390" y2="340.5"/>
			<line fill="none" stroke="#000000" stroke-width="2" x1="630" y1="180.5" x2="630" y2="20.5"/>
			<line fill="none" stroke="#000000" stroke-width="2" x1="630" y1="340.5" x2="630" y2="180.5"/>
			<line fill="none" stroke="#000000" stroke-width="2" stroke-dasharray="2,10" x1="390" y1="180.5" x2="395.5" y2="180.5"/>
			<line fill="none" stroke="#000000" stroke-width="2" stroke-dasharray="2,10" x1="619.6" y1="180.5" x2="630" y2="180.5"/>
			<line fill="none" stroke="#000000" stroke-width="2" stroke-dasharray="2,10" x1="395.5" y1="37.9" x2="619.6" y2="37.9"/>
			<line fill="none" stroke="#000000" stroke-width="2" stroke-dasharray="2,10" x1="395.5" y1="323.6" x2="619.6" y2="323.6"/>
			<line fill="none" stroke="#000000" stroke-width="2" x1="395.5" y1="37.9" x2="395.5" y2="180.5"/>
			<line fill="none" stroke="#000000" stroke-width="2" x1="619.6" y1="37.9" x2="619.6" y2="180.5"/>
			<line fill="none" stroke="#000000" stroke-width="2" x1="395.5" y1="180.5" x2="395.5" y2="181.1"/>
			<line fill="none" stroke="#000000" stroke-width="2" x1="619.6" y1="180.5" x2="619.6" y2="181.1"/>
			<line fill="none" stroke="#000000" stroke-width="2" x1="395.5" y1="181.1" x2="395.5" y2="323.6"/>
			<line fill="none" stroke="#000000" stroke-width="2" x1="619.6" y1="181.1" x2="619.6" y2="323.6"/>
			<line fill="none" stroke="#000000" stroke-width="2" stroke-dasharray="5,4" x1="395.5" y1="181.1" x2="402.8" y2="181.1"/>
			<line fill="none" stroke="#000000" stroke-width="2" stroke-dasharray="5,4" x1="611" y1="181.1" x2="619.6" y2="181.1"/>
			<g>
				<g>
					<line fill="none" stroke="#000000" stroke-width="2" x1="402.8" y1="50.6" x2="404.8" y2="50.6"/>
					
						<line fill="none" stroke="#000000" stroke-width="2" stroke-dasharray="4.0237,5.0296" x1="409.8" y1="50.6" x2="606.5" y2="50.6"/>
					<line fill="none" stroke="#000000" stroke-width="2" x1="609" y1="50.6" x2="611" y2="50.6"/>
				</g>
			</g>
			<line fill="none" stroke="#000000" stroke-width="2" stroke-dasharray="4,5" x1="402.8" y1="311.3" x2="611" y2="311.3"/>
			<line fill="none" stroke="#000000" stroke-width="2" x1="402.8" y1="50.6" x2="402.8" y2="180.9"/>
			<line fill="none" stroke="#000000" stroke-width="2" x1="611" y1="50.6" x2="611" y2="180.9"/>
			<line fill="none" stroke="#000000" stroke-width="2" x1="402.8" y1="180.9" x2="402.8" y2="181.1"/>
			<line fill="none" stroke="#000000" stroke-width="2" x1="611" y1="180.9" x2="611" y2="181.1"/>
			<line fill="none" stroke="#000000" stroke-width="2" x1="402.8" y1="181.1" x2="402.8" y2="311.3"/>
			<line fill="none" stroke="#000000" stroke-width="2" x1="611" y1="181.1" x2="611" y2="311.3"/>
			<line fill="none" stroke="#000000" stroke-width="2" stroke-dasharray="2,10" x1="402.8" y1="180.9" x2="410.8" y2="180.9"/>
			<line fill="none" stroke="#000000" stroke-width="2" stroke-dasharray="2,10" x1="595.4" y1="180.9" x2="611" y2="180.9"/>
			<line fill="none" stroke="#000000" stroke-width="2" stroke-dasharray="2,10" x1="410.8" y1="70.1" x2="595.4" y2="70.1"/>
			<line fill="none" stroke="#000000" stroke-width="2" stroke-dasharray="2,10" x1="410.8" y1="297.7" x2="595.4" y2="297.7"/>
			<line fill="none" stroke="#000000" stroke-width="2" x1="410.8" y1="70.1" x2="410.8" y2="180.9"/>
			<line fill="none" stroke="#000000" stroke-width="2" x1="595.4" y1="70.1" x2="595.4" y2="180.9"/>
			<line fill="none" stroke="#000000" stroke-width="2" x1="410.8" y1="180.9" x2="410.8" y2="186.9"/>
			<line fill="none" stroke="#000000" stroke-width="2" x1="595.4" y1="180.9" x2="595.4" y2="186.9"/>
			<line fill="none" stroke="#000000" stroke-width="2" x1="410.8" y1="186.9" x2="410.8" y2="297.7"/>
			<line fill="none" stroke="#000000" stroke-width="2" x1="595.4" y1="186.9" x2="595.4" y2="297.7"/>
			<line fill="none" stroke="#000000" stroke-width="2" stroke-dasharray="5,4" x1="583.6" y1="186.9" x2="595.4" y2="186.9"/>
			<line fill="none" stroke="#000000" stroke-width="2" stroke-dasharray="5,4" x1="410.8" y1="186.9" x2="420.9" y2="186.9"/>
			<line fill="none" stroke="#000000" stroke-width="2" stroke-dasharray="5,4" x1="513.1" y1="186.9" x2="529.5" y2="186.9"/>
			<line fill="none" stroke="#000000" stroke-width="2" stroke-dasharray="4,5" x1="529.5" y1="83.6" x2="583.6" y2="83.6"/>
			<line fill="none" stroke="#000000" stroke-width="2" stroke-dasharray="4,5" x1="529.5" y1="275.2" x2="583.6" y2="275.2"/>
			<line fill="none" stroke="#000000" stroke-width="2" x1="529.5" y1="83.6" x2="529.5" y2="171.9"/>
			<line fill="none" stroke="#000000" stroke-width="2" x1="583.6" y1="83.6" x2="583.6" y2="171.9"/>
			<line fill="none" stroke="#000000" stroke-width="2" x1="529.5" y1="171.9" x2="529.5" y2="186.9"/>
			<line fill="none" stroke="#000000" stroke-width="2" x1="583.6" y1="171.9" x2="583.6" y2="186.9"/>
			<line fill="none" stroke="#000000" stroke-width="2" x1="529.5" y1="186.9" x2="529.5" y2="275.2"/>
			<line fill="none" stroke="#000000" stroke-width="2" x1="583.6" y1="186.9" x2="583.6" y2="275.2"/>
			<line fill="none" stroke="#000000" stroke-width="2" stroke-dasharray="2,10" x1="529.5" y1="171.9" x2="540.3" y2="171.9"/>
			<line fill="none" stroke="#000000" stroke-width="2" stroke-dasharray="2,10" x1="552.6" y1="171.9" x2="559.8" y2="171.9"/>
			<line fill="none" stroke="#000000" stroke-width="2" stroke-dasharray="2,10" x1="577.8" y1="171.9" x2="583.6" y2="171.9"/>
			<line fill="none" stroke="#000000" stroke-width="2" stroke-dasharray="4,5" x1="420.9" y1="86.1" x2="513.1" y2="86.1"/>
			<line fill="none" stroke="#000000" stroke-width="2" stroke-dasharray="4,5" x1="420.9" y1="281.4" x2="513.1" y2="281.4"/>
			<line fill="none" stroke="#000000" stroke-width="2" x1="420.9" y1="86.1" x2="420.9" y2="180.7"/>
			<line fill="none" stroke="#000000" stroke-width="2" x1="513.1" y1="86.1" x2="513.1" y2="180.7"/>
			<line fill="none" stroke="#000000" stroke-width="2" x1="420.9" y1="180.7" x2="420.9" y2="186.9"/>
			<line fill="none" stroke="#000000" stroke-width="2" x1="513.1" y1="180.7" x2="513.1" y2="186.9"/>
			<line fill="none" stroke="#000000" stroke-width="2" x1="420.9" y1="186.9" x2="420.9" y2="281.4"/>
			<line fill="none" stroke="#000000" stroke-width="2" x1="513.1" y1="186.9" x2="513.1" y2="281.4"/>
			<line fill="none" stroke="#000000" stroke-width="2" stroke-dasharray="2,10" x1="420.9" y1="180.7" x2="432.7" y2="180.7"/>
			<line fill="none" stroke="#000000" stroke-width="2" stroke-dasharray="2,10" x1="505.7" y1="180.7" x2="513.1" y2="180.7"/>
			<line fill="none" stroke="#000000" stroke-width="2" stroke-dasharray="2,10" x1="432.7" y1="97.5" x2="505.7" y2="97.5"/>
			<line fill="none" stroke="#000000" stroke-width="2" stroke-dasharray="2,10" x1="432.7" y1="268.4" x2="505.7" y2="268.4"/>
			<line fill="none" stroke="#000000" stroke-width="2" x1="432.7" y1="97.5" x2="432.7" y2="180.7"/>
			<line fill="none" stroke="#000000" stroke-width="2" x1="505.7" y1="97.5" x2="505.7" y2="180.7"/>
			<line fill="none" stroke="#000000" stroke-width="2" x1="432.7" y1="180.7" x2="432.7" y2="185.2"/>
			<line fill="none" stroke="#000000" stroke-width="2" x1="505.7" y1="180.7" x2="505.7" y2="185.2"/>
			<line fill="none" stroke="#000000" stroke-width="2" x1="432.7" y1="185.2" x2="432.7" y2="268.4"/>
			<line fill="none" stroke="#000000" stroke-width="2" x1="505.7" y1="185.2" x2="505.7" y2="268.4"/>
			<line fill="none" stroke="#000000" stroke-width="2" stroke-dasharray="5,4" x1="432.7" y1="185.2" x2="443" y2="185.2"/>
			<line fill="none" stroke="#000000" stroke-width="2" stroke-dasharray="5,4" x1="501.8" y1="185.2" x2="505.7" y2="185.2"/>
			<line fill="none" stroke="#000000" stroke-width="2" stroke-dasharray="2,10" x1="540.3" y1="110.5" x2="552.6" y2="110.5"/>
			<line fill="none" stroke="#000000" stroke-width="2" stroke-dasharray="2,10" x1="540.3" y1="269.9" x2="552.6" y2="269.9"/>
			<line fill="none" stroke="#000000" stroke-width="2" stroke-dasharray="5,4" x1="540.3" y1="208.6" x2="552.6" y2="208.6"/>
			<line fill="none" stroke="#000000" stroke-width="2" x1="540.3" y1="110.5" x2="540.3" y2="171.9"/>
			<line fill="none" stroke="#000000" stroke-width="2" x1="552.6" y1="110.5" x2="552.6" y2="171.9"/>
			<line fill="none" stroke="#000000" stroke-width="2" x1="540.3" y1="171.9" x2="540.3" y2="208.6"/>
			<line fill="none" stroke="#000000" stroke-width="2" x1="552.6" y1="171.9" x2="552.6" y2="208.6"/>
			<line fill="none" stroke="#000000" stroke-width="2" x1="540.3" y1="208.6" x2="540.3" y2="269.9"/>
			<line fill="none" stroke="#000000" stroke-width="2" x1="552.6" y1="208.6" x2="552.6" y2="269.9"/>
			<line fill="none" stroke="#000000" stroke-width="2" stroke-dasharray="2,10" x1="559.8" y1="94.9" x2="577.8" y2="94.9"/>
			<line fill="none" stroke="#000000" stroke-width="2" stroke-dasharray="2,10" x1="559.8" y1="261.5" x2="577.8" y2="261.5"/>
			<line fill="none" stroke="#000000" stroke-width="2" stroke-dasharray="5,4" x1="559.8" y1="184.6" x2="577.8" y2="184.6"/>
			<line fill="none" stroke="#000000" stroke-width="2" x1="559.8" y1="94.9" x2="559.8" y2="171.9"/>
			<line fill="none" stroke="#000000" stroke-width="2" x1="577.8" y1="94.9" x2="577.8" y2="171.9"/>
			<line fill="none" stroke="#000000" stroke-width="2" x1="559.8" y1="171.9" x2="559.8" y2="184.6"/>
			<line fill="none" stroke="#000000" stroke-width="2" x1="577.8" y1="171.9" x2="577.8" y2="184.6"/>
			<line fill="none" stroke="#000000" stroke-width="2" x1="559.8" y1="184.6" x2="559.8" y2="261.5"/>
			<line fill="none" stroke="#000000" stroke-width="2" x1="577.8" y1="184.6" x2="577.8" y2="261.5"/>
			<line fill="none" stroke="#000000" stroke-width="2" stroke-dasharray="4,5" x1="443" y1="111.9" x2="501.8" y2="111.9"/>
			<line fill="none" stroke="#000000" stroke-width="2" stroke-dasharray="4,5" x1="443" y1="255.3" x2="501.8" y2="255.3"/>
			<line fill="none" stroke="#000000" stroke-width="2" stroke-dasharray="2,10" x1="443" y1="182" x2="501.8" y2="182"/>
			<line fill="none" stroke="#000000" stroke-width="2" x1="443" y1="111.9" x2="443" y2="182"/>
			<line fill="none" stroke="#000000" stroke-width="2" x1="501.8" y1="111.9" x2="501.8" y2="182"/>
			<line fill="none" stroke="#000000" stroke-width="2" x1="443" y1="182" x2="443" y2="185.2"/>
			<line fill="none" stroke="#000000" stroke-width="2" x1="501.8" y1="182" x2="501.8" y2="185.2"/>
			<line fill="none" stroke="#000000" stroke-width="2" x1="443" y1="185.2" x2="443" y2="255.3"/>
			<line fill="none" stroke="#000000" stroke-width="2" x1="501.8" y1="185.2" x2="501.8" y2="255.3"/>
		</g>
	</g>
</g>
</svg>
