<?xml version="1.0" encoding="utf-8"?>
<!-- Generator: Adobe Illustrator 18.0.0, SVG Export Plug-In . SVG Version: 6.00 Build 0)  -->
<!DOCTYPE svg PUBLIC "-//W3C//DTD SVG 1.1//EN" "http://www.w3.org/Graphics/SVG/1.1/DTD/svg11.dtd">
<svg version="1.1" id="Layer_1" xmlns="http://www.w3.org/2000/svg" xmlns:xlink="http://www.w3.org/1999/xlink" x="0px" y="0px"
	 viewBox="0 0 768 1024" enable-background="new 0 0 768 1024" xml:space="preserve">
<g>
	<g id="XMLID_1_">
		<g>
			<path fill="#AAAAAA" d="M691.2,462v409.6H76.8V462l157.7-0.5c0,5.9-0.5,11.7-1,17.5c-1.3,15.3-2.3,30.7-4,46
				c-1.5,13.4-3.7,26.7-5.5,40c-2,15.2-4.5,30.3-6,45.5c-1.5,14.6-7.4,30.7-3,44c2.8,8.6,7.9,18.9,15,24c0.7,0.5,1.4,0.9,2.3,1.1
				h41.8c2.1-0.3,3.6-1.4,4.9-2.6c5.8-5.6,5.2-17.2,8.5-25.5c4.7-11.9,7.4-27.3,17-34.5c5.9-4.4,15.1-8.8,22-8.5
				c9.6,0.4,19.8,10.9,26.5,19c6.4,7.7,7.1,20.5,13.5,28c9.6,11.4,27.8,22.3,41.5,22c13.5-0.3,36.6-11.4,40-23.5
				c2.3-8.3-5.4-20.6-7-31c-2.8-18.5-13.6-44.5-1-56.5c3.1-2.9,7.4-6,11.5-7.5c6.3-2.2,14.2-0.6,21,0.5c14.2,2.4,25.6,17.7,39.5,20
				c13.9,2.3,34.8,2.6,44-6c7.4-7,11.1-23.1,11.5-34c0.8-21.6-35.4-38.1-37.5-60c-0.5-5.3-0.8-11.7-0.5-18L691.2,462z"/>
			<path fill="#AAAAAA" d="M586.5,350.5h-345c2-9.9,3.6-19.9,4.5-30c0.2-1.8,0.2-3.7,0.5-5.5c0.2-1.5,0.7-3,1-4.5
				c1-5.4,0.9-11,1.5-16.5c1.3-12.2,4.3-24.3,5-36.5c0.6-9.5,0-19,0-28.5c0-0.8,0-1.7,0-2.5c0.3-10.6,12-19.8,10.5-30
				c-0.4-2.5-1.5-5-2-7.5c-1.3-6.8-0.6-14.1,0-21s0.9-14.8,3.5-20.5c3.2-6.9,10.5-11.4,18.8-15l93.3-0.1
				c11.4,9.4,15.8,30.4,27.9,39.6c15.2,11.5,37.8,16.1,57.5,18c12.1,1.2,24.9-2.6,37-1c7.9,1,18.4,0.5,23.5,5.5
				c3.9,3.8,6.5,11.3,7,17c0.7,8.1-6.4,16.2-9,24.5c-5.5,17.6-15.9,38.6-11,54.5c4.2,13.7,19.9,25.7,32,36
				C555.2,336.8,576.5,340,586.5,350.5z"/>
		</g>
		<g>
			<line fill="none" stroke="#000000" stroke-width="2" x1="76.8" y1="52.4" x2="691.2" y2="52.4"/>
			<line fill="none" stroke="#000000" stroke-width="2" x1="691.2" y1="871.6" x2="76.8" y2="871.6"/>
			<line fill="none" stroke="#000000" stroke-width="2" x1="76.8" y1="52.4" x2="76.8" y2="462"/>
			<line fill="none" stroke="#000000" stroke-width="2" x1="76.8" y1="462" x2="76.8" y2="871.6"/>
			<line fill="none" stroke="#000000" stroke-width="2" x1="691.2" y1="462" x2="691.2" y2="52.4"/>
			<line fill="none" stroke="#000000" stroke-width="2" x1="691.2" y1="871.6" x2="691.2" y2="462"/>
			<line fill="none" stroke="#000000" stroke-width="2" stroke-dasharray="2,10" x1="76.8" y1="462" x2="234.5" y2="461.5"/>
			<line fill="none" stroke="#000000" stroke-width="2" stroke-dasharray="2,10" x1="529.5" y1="461.5" x2="691.2" y2="462"/>
			<line fill="none" stroke="#000000" stroke-width="2" stroke-dasharray="2,10" x1="284.8" y1="132.5" x2="378.1" y2="132.4"/>
			<line fill="none" stroke="#000000" stroke-width="2" stroke-dasharray="2,10" x1="232.3" y1="679.6" x2="274.1" y2="679.6"/>
			<line fill="none" stroke="#000000" stroke-width="2" stroke-dasharray="2,10" x1="241.5" y1="350.5" x2="586.5" y2="350.5"/>
			<path fill="none" stroke="#000000" stroke-width="2" d="M254,226.5c0,0.8,0,1.7,0,2.5c0,9.5,0.6,19,0,28.5
				c-0.7,12.2-3.7,24.3-5,36.5c-0.6,5.5-0.5,11.1-1.5,16.5c-0.3,1.5-0.8,3-1,4.5c-0.3,1.8-0.3,3.7-0.5,5.5"/>
			<path fill="none" stroke="#000000" stroke-width="2" d="M246,320.5c-0.9,10.1-2.5,20.1-4.5,30"/>
			<path fill="none" stroke="#000000" stroke-width="2" d="M241.5,350.5c0.5,2.9,0.2,5.7,0,8.5c-0.7,7.8-1,15.7-1.5,23.5
				c-1.1,17.5-1.8,35-3,52.5"/>
			<path fill="none" stroke="#000000" stroke-width="2" d="M237,435c-0.6,8.9-1.3,17.7-2.5,26.5"/>
			<path fill="none" stroke="#000000" stroke-width="2" d="M234.5,461.5c0,5.9-0.5,11.7-1,17.5c-1.3,15.3-2.3,30.7-4,46
				c-1.5,13.4-3.7,26.7-5.5,40c-2,15.2-4.5,30.3-6,45.5c-1.5,14.6-7.4,30.7-3,44c2.8,8.6,7.9,18.9,15,24"/>
			<path fill="none" stroke="#000000" stroke-width="2" d="M230,678.5c0.7,0.5,1.4,0.9,2.3,1.1"/>
			<path fill="none" stroke="#000000" stroke-width="2" d="M274.1,679.6c2.1-0.3,3.6-1.4,4.9-2.6c5.8-5.6,5.2-17.2,8.5-25.5
				c4.7-11.9,7.4-27.3,17-34.5c5.9-4.4,15.1-8.8,22-8.5c9.6,0.4,19.8,10.9,26.5,19c6.4,7.7,7.1,20.5,13.5,28
				c9.6,11.4,27.8,22.3,41.5,22c13.5-0.3,36.6-11.4,40-23.5c2.3-8.3-5.4-20.6-7-31c-2.8-18.5-13.6-44.5-1-56.5
				c3.1-2.9,7.4-6,11.5-7.5c6.3-2.2,14.2-0.6,21,0.5c14.2,2.4,25.6,17.7,39.5,20c13.9,2.3,34.8,2.6,44-6c7.4-7,11.1-23.1,11.5-34
				c0.8-21.6-35.4-38.1-37.5-60"/>
			<path fill="none" stroke="#000000" stroke-width="2" d="M530,479.5c-0.5-5.3-0.8-11.7-0.5-18"/>
			<path fill="none" stroke="#000000" stroke-width="2" d="M529.5,461.5c0.8-10.8,3.3-21.4,9.5-27c6.5-5.8,20.1-4.5,28.5-9.5
				c9.6-5.7,20-14.5,24.5-24c6-12.7,4.3-34-2-46"/>
			<path fill="none" stroke="#000000" stroke-width="2" d="M590,355c-0.9-1.7-2.1-3.2-3.5-4.5"/>
			<path fill="none" stroke="#000000" stroke-width="2" d="M586.5,350.5c-10-10.5-31.3-13.7-43.5-24c-12.1-10.3-27.8-22.3-32-36
				c-4.9-15.9,5.5-36.9,11-54.5c2.6-8.3,9.7-16.4,9-24.5c-0.5-5.7-3.1-13.2-7-17c-5.1-5-15.6-4.5-23.5-5.5c-12.1-1.6-24.9,2.2-37,1
				c-19.7-1.9-42.3-6.5-57.5-18"/>
			<path fill="none" stroke="#000000" stroke-width="2" d="M406,172c-12.1-9.2-16.5-30.2-27.9-39.6"/>
			<path fill="none" stroke="#000000" stroke-width="2" d="M284.8,132.5c-8.3,3.6-15.6,8.1-18.8,15c-2.6,5.7-2.9,13.6-3.5,20.5
				s-1.3,14.2,0,21c0.5,2.5,1.6,5,2,7.5c1.5,10.2-10.2,19.4-10.5,30"/>
		</g>
	</g>
</g>
</svg>
