<?xml version="1.0" encoding="utf-8"?>
<!-- Generator: Adobe Illustrator 18.0.0, SVG Export Plug-In . SVG Version: 6.00 Build 0)  -->
<!DOCTYPE svg PUBLIC "-//W3C//DTD SVG 1.1//EN" "http://www.w3.org/Graphics/SVG/1.1/DTD/svg11.dtd">
<svg version="1.1" id="Layer_1" xmlns="http://www.w3.org/2000/svg" xmlns:xlink="http://www.w3.org/1999/xlink" x="0px" y="0px"
	 viewBox="0 0 768 1024" enable-background="new 0 0 768 1024" xml:space="preserve">
<g>
	<g id="XMLID_1_">
		<g>
			<rect x="362" y="421" fill="#AAAAAA" width="105" height="67.5"/>
			<polygon fill="#AAAAAA" points="255,225.5 255,362 98.5,362 98.5,225.5 126,225.5 126,323.5 226.5,323.5 226.5,225.5 			"/>
			<polygon fill="#AAAAAA" points="222,598.5 222,676 110,676 110,598.5 110,447 222,447 			"/>
			<path fill="#AAAAAA" d="M691.2,462v409.6H76.8V462h21.7v136.5H110V676v151.5h112V676v-77.5h33V462l8.5-0.5
				c2.2,4.3,4.2,8.8,5,13.5c1.1,6.5,1.2,13.3,1.5,20c0.3,6.5-0.9,13.2,0.5,19.5c0.8,3.6,2.1,7.1,3.5,10.5c1.9,4.7,4.5,9.1,7,13.5
				c3.4,6.1,6.3,12.9,11,18c3.6,3.9,8.7,6.3,12.5,10c6,5.7,9.4,13.9,15.5,19.5c2.4,2.1,4.8,4.2,7.5,6c3.3,2.2,7,3.6,10.5,5.5
				c6.9,3.7,13.7,7.6,20.5,11.5c4.8,2.8,9.4,6.1,14.4,8.6l77.6-0.1c0.9,0.2,1.4-0.1,2-0.5c10-6.3,17.6-16.1,26.5-24
				c6.8-6,14.3-11.4,20.5-18c7.3-7.7,15.3-15.9,19.5-25.5c2.5-5.9,3.9-12.6,5-19c1.9-11.1-0.9-22.8,0.5-34
				c1.2-9.6,4.8-18.9,6.5-28.5c0.4-2.1,0.7-4.2,0.5-6.5H553V722h99.5V461.5L691.2,462z"/>
			<path fill="#AAAAAA" d="M362,385.5h-77.5c2.6-7.7,2.9-16.3,4-24.5c0.9-7,0.2-14.6,2.5-21c3.1-8.7,10.7-15.9,17-23
				c5.7-6.4,16.2-10.5,18.5-18c1.7-5.7-0.6-13.1-1.5-19.5c-0.7-5-3.4-10.3-3-15c0.7-7.7,7.2-15.6,13.5-21c0.8-0.7,1.7-1.4,2.5-2
				c4.7-3.6,10.3-6,15.5-9c1.3-0.8,2.5-1.6,3.4-3.1h19.6v43.1h57v-43.1l34.4,0.2c3.8,2.6,7.4,5.4,10.6,8.4
				c9.5,8.9,15.3,22.4,21,34.5c6.4,13.7,10.5,28.7,14,43.5c3.4,14.2,3.6,29.2,7,43.5c2.1,8.8,5.5,17.3,8,26H467V318H362V385.5z"/>
			<rect x="553" y="150.5" fill="#AAAAAA" width="99.5" height="260.5"/>
			<rect x="376.5" y="92.5" fill="#AAAAAA" width="57" height="43.1"/>
			<rect x="126" y="81" fill="#AAAAAA" width="100.5" height="98"/>
		</g>
		<g>
			<line fill="none" stroke="#000000" stroke-width="2" x1="76.8" y1="52.4" x2="691.2" y2="52.4"/>
			<line fill="none" stroke="#000000" stroke-width="2" x1="691.2" y1="871.6" x2="76.8" y2="871.6"/>
			<line fill="none" stroke="#000000" stroke-width="2" x1="76.8" y1="52.4" x2="76.8" y2="462"/>
			<line fill="none" stroke="#000000" stroke-width="2" x1="76.8" y1="462" x2="76.8" y2="871.6"/>
			<line fill="none" stroke="#000000" stroke-width="2" x1="691.2" y1="462" x2="691.2" y2="52.4"/>
			<line fill="none" stroke="#000000" stroke-width="2" x1="691.2" y1="871.6" x2="691.2" y2="462"/>
			<line fill="none" stroke="#000000" stroke-width="2" stroke-dasharray="2,10" x1="76.8" y1="462" x2="98.5" y2="462"/>
			<line fill="none" stroke="#000000" stroke-width="2" stroke-dasharray="2,10" x1="255" y1="462" x2="263.5" y2="461.5"/>
			<line fill="none" stroke="#000000" stroke-width="2" stroke-dasharray="2,10" x1="531.5" y1="461.5" x2="553" y2="461.5"/>
			<line fill="none" stroke="#000000" stroke-width="2" stroke-dasharray="2,10" x1="652.5" y1="461.5" x2="691.2" y2="462"/>
			<line fill="none" stroke="#000000" stroke-width="2" stroke-dasharray="2,10" x1="372.9" y1="617.6" x2="450.5" y2="617.5"/>
			<path fill="none" stroke="#000000" stroke-width="2" d="M338,241.5c-0.8,0.6-1.7,1.3-2.5,2c-6.3,5.4-12.8,13.3-13.5,21
				c-0.4,4.7,2.3,10,3,15c0.9,6.4,3.2,13.8,1.5,19.5c-2.3,7.5-12.8,11.6-18.5,18c-6.3,7.1-13.9,14.3-17,23c-2.3,6.4-1.6,14-2.5,21"
				/>
			<path fill="none" stroke="#000000" stroke-width="2" d="M288.5,361c-1.1,8.2-1.4,16.8-4,24.5"/>
			<path fill="none" stroke="#000000" stroke-width="2" d="M284.5,385.5c0.4,1.7,0,3.1-0.5,4.5c-4.2,12.8-18.1,22.1-21.5,35
				c-2,7.7-2.8,16.5-2,24.5"/>
			<path fill="none" stroke="#000000" stroke-width="2" d="M260.5,449.5c0.4,4,1.8,7.9,3,12"/>
			<path fill="none" stroke="#000000" stroke-width="2" d="M263.5,461.5c2.2,4.3,4.2,8.8,5,13.5c1.1,6.5,1.2,13.3,1.5,20
				c0.3,6.5-0.9,13.2,0.5,19.5c0.8,3.6,2.1,7.1,3.5,10.5c1.9,4.7,4.5,9.1,7,13.5c3.4,6.1,6.3,12.9,11,18c3.6,3.9,8.7,6.3,12.5,10
				c6,5.7,9.4,13.9,15.5,19.5c2.4,2.1,4.8,4.2,7.5,6c3.3,2.2,7,3.6,10.5,5.5c6.9,3.7,13.7,7.6,20.5,11.5"/>
			<path fill="none" stroke="#000000" stroke-width="2" d="M358.5,609c4.8,2.8,9.4,6.1,14.4,8.6"/>
			<path fill="none" stroke="#000000" stroke-width="2" d="M450.5,617.5c0.9,0.2,1.4-0.1,2-0.5c10-6.3,17.6-16.1,26.5-24
				c6.8-6,14.3-11.4,20.5-18c7.3-7.7,15.3-15.9,19.5-25.5c2.5-5.9,3.9-12.6,5-19c1.9-11.1-0.9-22.8,0.5-34
				c1.2-9.6,4.8-18.9,6.5-28.5"/>
			<path fill="none" stroke="#000000" stroke-width="2" d="M531,468c0.4-2.1,0.7-4.2,0.5-6.5"/>
			<path fill="none" stroke="#000000" stroke-width="2" d="M531.5,461.5c2.3-10.8,3.6-22,3.5-33c-0.1-10.8-1.4-21.9-3.5-32.5"/>
			<path fill="none" stroke="#000000" stroke-width="2" d="M531.5,396c-0.7-3.6-1.7-7.1-3-10.5"/>
			<path fill="none" stroke="#000000" stroke-width="2" d="M528.5,385.5c-2.5-8.7-5.9-17.2-8-26c-3.4-14.3-3.6-29.3-7-43.5
				c-3.5-14.8-7.6-29.8-14-43.5c-5.7-12.1-11.5-25.6-21-34.5"/>
			<path fill="none" stroke="#000000" stroke-width="2" d="M478.5,238c-3.2-3-6.8-5.8-10.6-8.4"/>
			<path fill="none" stroke="#000000" stroke-width="2" d="M356.9,229.4c-0.9,1.5-2.1,2.3-3.4,3.1c-5.2,3-10.8,5.4-15.5,9"/>
			<line fill="none" stroke="#000000" stroke-width="2" stroke-dasharray="2,10" x1="356.9" y1="229.4" x2="376.5" y2="229.4"/>
			<line fill="none" stroke="#000000" stroke-width="2" stroke-dasharray="2,10" x1="433.5" y1="229.4" x2="467.9" y2="229.6"/>
			<line fill="none" stroke="#000000" stroke-width="2" stroke-dasharray="2,10" x1="284.5" y1="385.5" x2="362" y2="385.5"/>
			<line fill="none" stroke="#000000" stroke-width="2" stroke-dasharray="2,10" x1="467" y1="385.5" x2="528.5" y2="385.5"/>
			<line fill="none" stroke="#000000" stroke-width="2" stroke-dasharray="2,10" x1="376.5" y1="92.5" x2="433.5" y2="92.5"/>
			<line fill="none" stroke="#000000" stroke-width="2" stroke-dasharray="2,10" x1="376.5" y1="272.5" x2="433.5" y2="272.5"/>
			<line fill="none" stroke="#000000" stroke-width="2" stroke-dasharray="2,10" x1="376.5" y1="135.6" x2="433.5" y2="135.6"/>
			<line fill="none" stroke="#000000" stroke-width="2" x1="376.5" y1="92.5" x2="376.5" y2="135.6"/>
			<line fill="none" stroke="#000000" stroke-width="2" x1="433.5" y1="92.5" x2="433.5" y2="135.6"/>
			<line fill="none" stroke="#000000" stroke-width="2" x1="376.5" y1="135.6" x2="376.5" y2="229.4"/>
			<line fill="none" stroke="#000000" stroke-width="2" x1="433.5" y1="135.6" x2="433.5" y2="229.4"/>
			<line fill="none" stroke="#000000" stroke-width="2" x1="376.5" y1="229.4" x2="376.5" y2="272.5"/>
			<line fill="none" stroke="#000000" stroke-width="2" x1="433.5" y1="229.4" x2="433.5" y2="272.5"/>
			<line fill="none" stroke="#000000" stroke-width="2" stroke-dasharray="2,10" x1="362" y1="318" x2="467" y2="318"/>
			<line fill="none" stroke="#000000" stroke-width="2" stroke-dasharray="2,10" x1="362" y1="488.5" x2="467" y2="488.5"/>
			<line fill="none" stroke="#000000" stroke-width="2" stroke-dasharray="2,10" x1="362" y1="421" x2="467" y2="421"/>
			<line fill="none" stroke="#000000" stroke-width="2" x1="362" y1="318" x2="362" y2="385.5"/>
			<line fill="none" stroke="#000000" stroke-width="2" x1="467" y1="318" x2="467" y2="385.5"/>
			<line fill="none" stroke="#000000" stroke-width="2" x1="362" y1="385.5" x2="362" y2="421"/>
			<line fill="none" stroke="#000000" stroke-width="2" x1="467" y1="385.5" x2="467" y2="421"/>
			<line fill="none" stroke="#000000" stroke-width="2" x1="362" y1="421" x2="362" y2="488.5"/>
			<line fill="none" stroke="#000000" stroke-width="2" x1="467" y1="421" x2="467" y2="488.5"/>
			<line fill="none" stroke="#000000" stroke-width="2" stroke-dasharray="2,10" x1="98.5" y1="362" x2="255" y2="362"/>
			<line fill="none" stroke="#000000" stroke-width="2" x1="98.5" y1="225.5" x2="98.5" y2="362"/>
			<line fill="none" stroke="#000000" stroke-width="2" x1="255" y1="225.5" x2="255" y2="362"/>
			<line fill="none" stroke="#000000" stroke-width="2" x1="98.5" y1="362" x2="98.5" y2="462"/>
			<line fill="none" stroke="#000000" stroke-width="2" x1="255" y1="362" x2="255" y2="462"/>
			<line fill="none" stroke="#000000" stroke-width="2" x1="98.5" y1="462" x2="98.5" y2="598.5"/>
			<line fill="none" stroke="#000000" stroke-width="2" x1="255" y1="462" x2="255" y2="598.5"/>
			<line fill="none" stroke="#000000" stroke-width="2" stroke-dasharray="2,10" x1="98.5" y1="598.5" x2="110" y2="598.5"/>
			<line fill="none" stroke="#000000" stroke-width="2" stroke-dasharray="2,10" x1="222" y1="598.5" x2="255" y2="598.5"/>
			<line fill="none" stroke="#000000" stroke-width="2" stroke-dasharray="2,10" x1="98.5" y1="225.5" x2="126" y2="225.5"/>
			<line fill="none" stroke="#000000" stroke-width="2" stroke-dasharray="2,10" x1="226.5" y1="225.5" x2="255" y2="225.5"/>
			<line fill="none" stroke="#000000" stroke-width="2" stroke-dasharray="2,10" x1="553" y1="150.5" x2="652.5" y2="150.5"/>
			<line fill="none" stroke="#000000" stroke-width="2" stroke-dasharray="2,10" x1="553" y1="722" x2="652.5" y2="722"/>
			<line fill="none" stroke="#000000" stroke-width="2" stroke-dasharray="2,10" x1="553" y1="411" x2="652.5" y2="411"/>
			<line fill="none" stroke="#000000" stroke-width="2" x1="553" y1="150.5" x2="553" y2="411"/>
			<line fill="none" stroke="#000000" stroke-width="2" x1="652.5" y1="150.5" x2="652.5" y2="411"/>
			<line fill="none" stroke="#000000" stroke-width="2" x1="553" y1="411" x2="553" y2="461.5"/>
			<line fill="none" stroke="#000000" stroke-width="2" x1="652.5" y1="411" x2="652.5" y2="461.5"/>
			<line fill="none" stroke="#000000" stroke-width="2" x1="553" y1="461.5" x2="553" y2="722"/>
			<line fill="none" stroke="#000000" stroke-width="2" x1="652.5" y1="461.5" x2="652.5" y2="722"/>
			<line fill="none" stroke="#000000" stroke-width="2" stroke-dasharray="2,10" x1="110" y1="447" x2="222" y2="447"/>
			<line fill="none" stroke="#000000" stroke-width="2" stroke-dasharray="2,10" x1="110" y1="827.5" x2="222" y2="827.5"/>
			<line fill="none" stroke="#000000" stroke-width="2" stroke-dasharray="2,10" x1="110" y1="676" x2="222" y2="676"/>
			<line fill="none" stroke="#000000" stroke-width="2" x1="110" y1="447" x2="110" y2="598.5"/>
			<line fill="none" stroke="#000000" stroke-width="2" x1="222" y1="447" x2="222" y2="598.5"/>
			<line fill="none" stroke="#000000" stroke-width="2" x1="110" y1="598.5" x2="110" y2="676"/>
			<line fill="none" stroke="#000000" stroke-width="2" x1="222" y1="598.5" x2="222" y2="676"/>
			<line fill="none" stroke="#000000" stroke-width="2" x1="110" y1="676" x2="110" y2="827.5"/>
			<line fill="none" stroke="#000000" stroke-width="2" x1="222" y1="676" x2="222" y2="827.5"/>
			<line fill="none" stroke="#000000" stroke-width="2" stroke-dasharray="2,10" x1="126" y1="81" x2="226.5" y2="81"/>
			<line fill="none" stroke="#000000" stroke-width="2" stroke-dasharray="2,10" x1="126" y1="323.5" x2="226.5" y2="323.5"/>
			<line fill="none" stroke="#000000" stroke-width="2" stroke-dasharray="2,10" x1="126" y1="179" x2="226.5" y2="179"/>
			<line fill="none" stroke="#000000" stroke-width="2" x1="126" y1="81" x2="126" y2="179"/>
			<line fill="none" stroke="#000000" stroke-width="2" x1="226.5" y1="81" x2="226.5" y2="179"/>
			<line fill="none" stroke="#000000" stroke-width="2" x1="126" y1="179" x2="126" y2="225.5"/>
			<line fill="none" stroke="#000000" stroke-width="2" x1="226.5" y1="179" x2="226.5" y2="225.5"/>
			<line fill="none" stroke="#000000" stroke-width="2" x1="126" y1="225.5" x2="126" y2="323.5"/>
			<line fill="none" stroke="#000000" stroke-width="2" x1="226.5" y1="225.5" x2="226.5" y2="323.5"/>
		</g>
	</g>
</g>
</svg>
