<?xml version="1.0" encoding="utf-8"?>
<!-- Generator: Adobe Illustrator 18.0.0, SVG Export Plug-In . SVG Version: 6.00 Build 0)  -->
<!DOCTYPE svg PUBLIC "-//W3C//DTD SVG 1.1//EN" "http://www.w3.org/Graphics/SVG/1.1/DTD/svg11.dtd">
<svg version="1.1" id="Layer_1" xmlns="http://www.w3.org/2000/svg" xmlns:xlink="http://www.w3.org/1999/xlink" x="0px" y="0px"
	 viewBox="0 0 768 1024" enable-background="new 0 0 768 1024" xml:space="preserve">
<g>
	<path fill="none" stroke="#000000" stroke-width="2" d="M76.8,52.4h614.4"/>
	<path fill="none" stroke="#000000" stroke-width="2" d="M691.2,871.6H76.8"/>
	<path fill="none" stroke="#000000" stroke-width="2" d="M76.8,52.4V462"/>
	<path fill="none" stroke="#000000" stroke-width="2" d="M76.8,462v409.6"/>
	<path fill="none" stroke="#000000" stroke-width="2" d="M691.2,462V52.4"/>
	<path fill="none" stroke="#000000" stroke-width="2" d="M691.2,871.6V462"/>
	<path fill="none" stroke="#000000" stroke-width="2" stroke-dasharray="2,10" d="M76.8,462h21.7"/>
	<path fill="none" stroke="#000000" stroke-width="2" stroke-dasharray="2,10" d="M255,462l8.5-0.5"/>
	<path fill="none" stroke="#000000" stroke-width="2" stroke-dasharray="2,10" d="M531.5,461.5H553"/>
	<path fill="none" stroke="#000000" stroke-width="2" stroke-dasharray="2,10" d="M652.5,461.5l38.7,0.5"/>
	<path fill="none" stroke="#000000" stroke-width="2" stroke-dasharray="2,10" d="M372.9,617.6l77.6-0.1"/>
	<path fill="none" stroke="#000000" stroke-width="2" d="M338,241.5c-0.8,0.6-1.7,1.3-2.5,2c-6.3,5.4-12.8,13.3-13.5,21
		c-0.4,4.7,2.3,10,3,15c0.9,6.4,3.2,13.8,1.5,19.5c-2.3,7.5-12.8,11.6-18.5,18c-6.3,7.1-13.9,14.3-17,23c-2.3,6.4-1.6,14-2.5,21"/>
	<path fill="none" stroke="#000000" stroke-width="2" d="M288.5,361c-1.1,8.2-1.4,16.8-4,24.5"/>
	<path fill="none" stroke="#000000" stroke-width="2" d="M284.5,385.5c0.4,1.7,0,3.1-0.5,4.5c-4.2,12.8-18.1,22.1-21.5,35
		c-2,7.7-2.8,16.5-2,24.5"/>
	<path fill="none" stroke="#000000" stroke-width="2" d="M260.5,449.5c0.4,4,1.8,7.9,3,12"/>
	<path fill="none" stroke="#000000" stroke-width="2" d="M263.5,461.5c2.2,4.3,4.2,8.8,5,13.5c1.1,6.5,1.2,13.3,1.5,20
		c0.3,6.5-0.9,13.2,0.5,19.5c0.8,3.6,2.1,7.1,3.5,10.5c1.9,4.7,4.5,9.1,7,13.5c3.4,6.1,6.3,12.9,11,18c3.6,3.9,8.7,6.3,12.5,10
		c6,5.7,9.4,13.9,15.5,19.5c2.4,2.1,4.8,4.2,7.5,6c3.3,2.2,7,3.6,10.5,5.5c6.9,3.7,13.7,7.6,20.5,11.5"/>
	<path fill="none" stroke="#000000" stroke-width="2" d="M358.5,609c4.8,2.8,9.4,6.1,14.4,8.6"/>
	<path fill="none" stroke="#000000" stroke-width="2" d="M450.5,617.5c0.9,0.2,1.4-0.1,2-0.5c10-6.3,17.6-16.1,26.5-24
		c6.8-6,14.3-11.4,20.5-18c7.3-7.7,15.3-15.9,19.5-25.5c2.5-5.9,3.9-12.6,5-19c1.9-11.1-0.9-22.8,0.5-34c1.2-9.6,4.8-18.9,6.5-28.5"
		/>
	<path fill="none" stroke="#000000" stroke-width="2" d="M531,468c0.4-2.1,0.7-4.2,0.5-6.5"/>
	<path fill="none" stroke="#000000" stroke-width="2" d="M531.5,461.5c2.3-10.8,3.6-22,3.5-33c-0.1-10.8-1.4-21.9-3.5-32.5"/>
	<path fill="none" stroke="#000000" stroke-width="2" d="M531.5,396c-0.7-3.6-1.7-7.1-3-10.5"/>
	<path fill="none" stroke="#000000" stroke-width="2" d="M528.5,385.5c-2.5-8.7-5.9-17.2-8-26c-3.4-14.3-3.6-29.3-7-43.5
		c-3.5-14.8-7.6-29.8-14-43.5c-5.7-12.1-11.5-25.6-21-34.5"/>
	<path fill="none" stroke="#000000" stroke-width="2" d="M478.5,238c-3.2-3-6.8-5.8-10.6-8.4"/>
	<path fill="none" stroke="#000000" stroke-width="2" d="M356.9,229.4c-0.9,1.5-2.1,2.3-3.4,3.1c-5.2,3-10.8,5.4-15.5,9"/>
	<path fill="none" stroke="#000000" stroke-width="2" stroke-dasharray="2,10" d="M356.9,229.4h19.6"/>
	<path fill="none" stroke="#000000" stroke-width="2" stroke-dasharray="2,10" d="M433.5,229.4l34.4,0.2"/>
	<path fill="none" stroke="#000000" stroke-width="2" stroke-dasharray="2,10" d="M284.5,385.5H362"/>
	<path fill="none" stroke="#000000" stroke-width="2" stroke-dasharray="2,10" d="M467,385.5h61.5"/>
	<path fill="none" stroke="#000000" stroke-width="2" stroke-dasharray="2,10" d="M376.5,92.5h57"/>
	<path fill="none" stroke="#000000" stroke-width="2" stroke-dasharray="2,10" d="M376.5,272.5h57"/>
	<path fill="none" stroke="#000000" stroke-width="2" stroke-dasharray="2,10" d="M376.5,135.6h57"/>
	<path fill="none" stroke="#000000" stroke-width="2" d="M376.5,92.5v43.1"/>
	<path fill="none" stroke="#000000" stroke-width="2" d="M433.5,92.5v43.1"/>
	<path fill="none" stroke="#000000" stroke-width="2" d="M376.5,135.6v93.8"/>
	<path fill="none" stroke="#000000" stroke-width="2" d="M433.5,135.6v93.8"/>
	<path fill="none" stroke="#000000" stroke-width="2" d="M376.5,229.4v43.1"/>
	<path fill="none" stroke="#000000" stroke-width="2" d="M433.5,229.4v43.1"/>
	<path fill="none" stroke="#000000" stroke-width="2" stroke-dasharray="2,10" d="M362,318h105"/>
	<path fill="none" stroke="#000000" stroke-width="2" stroke-dasharray="2,10" d="M362,488.5h105"/>
	<path fill="none" stroke="#000000" stroke-width="2" stroke-dasharray="2,10" d="M362,421h105"/>
	<path fill="none" stroke="#000000" stroke-width="2" d="M362,318v67.5"/>
	<path fill="none" stroke="#000000" stroke-width="2" d="M467,318v67.5"/>
	<path fill="none" stroke="#000000" stroke-width="2" d="M362,385.5V421"/>
	<path fill="none" stroke="#000000" stroke-width="2" d="M467,385.5V421"/>
	<path fill="none" stroke="#000000" stroke-width="2" d="M362,421v67.5"/>
	<path fill="none" stroke="#000000" stroke-width="2" d="M467,421v67.5"/>
	<path fill="none" stroke="#000000" stroke-width="2" stroke-dasharray="2,10" d="M98.5,362H255"/>
	<path fill="none" stroke="#000000" stroke-width="2" d="M98.5,225.5V362"/>
	<path fill="none" stroke="#000000" stroke-width="2" d="M255,225.5V362"/>
	<path fill="none" stroke="#000000" stroke-width="2" d="M98.5,362v100"/>
	<path fill="none" stroke="#000000" stroke-width="2" d="M255,362v100"/>
	<path fill="none" stroke="#000000" stroke-width="2" d="M98.5,462v136.5"/>
	<path fill="none" stroke="#000000" stroke-width="2" d="M255,462v136.5"/>
	<path fill="none" stroke="#000000" stroke-width="2" stroke-dasharray="2,10" d="M98.5,598.5H110"/>
	<path fill="none" stroke="#000000" stroke-width="2" stroke-dasharray="2,10" d="M222,598.5h33"/>
	<path fill="none" stroke="#000000" stroke-width="2" stroke-dasharray="2,10" d="M98.5,225.5H126"/>
	<path fill="none" stroke="#000000" stroke-width="2" stroke-dasharray="2,10" d="M226.5,225.5H255"/>
	<path fill="none" stroke="#000000" stroke-width="2" stroke-dasharray="2,10" d="M553,150.5h99.5"/>
	<path fill="none" stroke="#000000" stroke-width="2" stroke-dasharray="2,10" d="M553,722h99.5"/>
	<path fill="none" stroke="#000000" stroke-width="2" stroke-dasharray="2,10" d="M553,411h99.5"/>
	<path fill="none" stroke="#000000" stroke-width="2" d="M553,150.5V411"/>
	<path fill="none" stroke="#000000" stroke-width="2" d="M652.5,150.5V411"/>
	<path fill="none" stroke="#000000" stroke-width="2" d="M553,411v50.5"/>
	<path fill="none" stroke="#000000" stroke-width="2" d="M652.5,411v50.5"/>
	<path fill="none" stroke="#000000" stroke-width="2" d="M553,461.5V722"/>
	<path fill="none" stroke="#000000" stroke-width="2" d="M652.5,461.5V722"/>
	<path fill="none" stroke="#000000" stroke-width="2" stroke-dasharray="2,10" d="M110,447h112"/>
	<path fill="none" stroke="#000000" stroke-width="2" stroke-dasharray="2,10" d="M110,827.5h112"/>
	<path fill="none" stroke="#000000" stroke-width="2" stroke-dasharray="2,10" d="M110,676h112"/>
	<path fill="none" stroke="#000000" stroke-width="2" d="M110,447v151.5"/>
	<path fill="none" stroke="#000000" stroke-width="2" d="M222,447v151.5"/>
	<path fill="none" stroke="#000000" stroke-width="2" d="M110,598.5V676"/>
	<path fill="none" stroke="#000000" stroke-width="2" d="M222,598.5V676"/>
	<path fill="none" stroke="#000000" stroke-width="2" d="M110,676v151.5"/>
	<path fill="none" stroke="#000000" stroke-width="2" d="M222,676v151.5"/>
	<path fill="none" stroke="#000000" stroke-width="2" stroke-dasharray="2,10" d="M126,81h100.5"/>
	<path fill="none" stroke="#000000" stroke-width="2" stroke-dasharray="2,10" d="M126,323.5h100.5"/>
	<path fill="none" stroke="#000000" stroke-width="2" stroke-dasharray="2,10" d="M126,179h100.5"/>
	<path fill="none" stroke="#000000" stroke-width="2" d="M126,81v98"/>
	<path fill="none" stroke="#000000" stroke-width="2" d="M226.5,81v98"/>
	<path fill="none" stroke="#000000" stroke-width="2" d="M126,179v46.5"/>
	<path fill="none" stroke="#000000" stroke-width="2" d="M226.5,179v46.5"/>
	<path fill="none" stroke="#000000" stroke-width="2" d="M126,225.5v98"/>
	<path fill="none" stroke="#000000" stroke-width="2" d="M226.5,225.5v98"/>
</g>
</svg>
