<?xml version="1.0" encoding="utf-8"?>
<!-- Generator: Adobe Illustrator 18.0.0, SVG Export Plug-In . SVG Version: 6.00 Build 0)  -->
<!DOCTYPE svg PUBLIC "-//W3C//DTD SVG 1.1//EN" "http://www.w3.org/Graphics/SVG/1.1/DTD/svg11.dtd">
<svg version="1.1" xmlns="http://www.w3.org/2000/svg" xmlns:xlink="http://www.w3.org/1999/xlink" x="0px" y="0px"
	 viewBox="0 0 768 1024" enable-background="new 0 0 768 1024" xml:space="preserve">
<g id="Layer_2">
</g>
<g id="Layer_1">
	<g>
		<path fill="none" stroke="#000000" stroke-width="0.5" d="M76.8,52.4h614.4"/>
		<path fill="none" stroke="#000000" stroke-width="0.5" d="M691.2,871.6H76.8"/>
		<path fill="none" stroke="#000000" stroke-width="0.5" d="M76.8,52.4V462"/>
		<path fill="none" stroke="#000000" stroke-width="0.5" d="M76.8,462v409.6"/>
		<path fill="none" stroke="#000000" stroke-width="0.5" d="M691.2,462V52.4"/>
		<path fill="none" stroke="#000000" stroke-width="0.5" d="M691.2,871.6V462"/>
		<path fill="none" stroke="#000000" stroke-width="0.5" stroke-dasharray="2,10" d="M76.8,462H125"/>
		<path fill="none" stroke="#000000" stroke-width="0.5" stroke-dasharray="2,10" d="M643,462h48.2"/>
		<path fill="none" stroke="#000000" stroke-width="0.5" stroke-dasharray="2,10" d="M125,94.5h518"/>
		<path fill="none" stroke="#000000" stroke-width="0.5" stroke-dasharray="2,10" d="M125,815h518"/>
		<path fill="none" stroke="#000000" stroke-width="0.5" d="M125,94.5v353"/>
		<path fill="none" stroke="#000000" stroke-width="0.5" d="M643,94.5v353"/>
		<path fill="none" stroke="#000000" stroke-width="0.5" d="M125,447.5V462"/>
		<path fill="none" stroke="#000000" stroke-width="0.5" d="M643,447.5V462"/>
		<path fill="none" stroke="#000000" stroke-width="0.5" d="M125,462v353"/>
		<path fill="none" stroke="#000000" stroke-width="0.5" d="M643,462v353"/>
		<path fill="none" stroke="#000000" stroke-width="0.5" stroke-dasharray="2,10" d="M125,447.5h43.5"/>
		<path fill="none" stroke="#000000" stroke-width="0.5" stroke-dasharray="2,10" d="M557,447.5h86"/>
		<path fill="none" stroke="#000000" stroke-width="0.5" stroke-dasharray="2,10" d="M168.5,162H557"/>
		<path fill="none" stroke="#000000" stroke-width="0.5" stroke-dasharray="2,10" d="M168.5,754H557"/>
		<path fill="none" stroke="#000000" stroke-width="0.5" d="M168.5,162v285.5"/>
		<path fill="none" stroke="#000000" stroke-width="0.5" d="M557,162v285.5"/>
		<path fill="none" stroke="#000000" stroke-width="0.5" d="M168.5,447.5v21"/>
		<path fill="none" stroke="#000000" stroke-width="0.5" d="M557,447.5v21"/>
		<path fill="none" stroke="#000000" stroke-width="0.5" d="M168.5,468.5V754"/>
		<path fill="none" stroke="#000000" stroke-width="0.5" d="M557,468.5V754"/>
		<path fill="none" stroke="#000000" stroke-width="0.5" stroke-dasharray="2,10" d="M168.5,468.5h46"/>
		<path fill="none" stroke="#000000" stroke-width="0.5" stroke-dasharray="2,10" d="M537,468.5h20"/>
		<path fill="none" stroke="#000000" stroke-width="0.5" stroke-dasharray="2,10" d="M214.5,472H537"/>
		<path fill="none" stroke="#000000" stroke-width="0.5" d="M214.5,257.5v211"/>
		<path fill="none" stroke="#000000" stroke-width="0.5" d="M537,257.5v211"/>
		<path fill="none" stroke="#000000" stroke-width="0.5" d="M214.5,468.5v3.5"/>
		<path fill="none" stroke="#000000" stroke-width="0.5" d="M537,468.5v3.5"/>
		<path fill="none" stroke="#000000" stroke-width="0.5" d="M214.5,472v211"/>
		<path fill="none" stroke="#000000" stroke-width="0.5" d="M537,472v211"/>
		<path fill="none" stroke="#000000" stroke-width="0.5" stroke-dasharray="2,10" d="M214.5,257.5H280"/>
		<path fill="none" stroke="#000000" stroke-width="0.5" stroke-dasharray="2,10" d="M453.5,257.5H537"/>
		<path fill="none" stroke="#000000" stroke-width="0.5" stroke-dasharray="2,10" d="M214.5,683H285"/>
		<path fill="none" stroke="#000000" stroke-width="0.5" stroke-dasharray="2,10" d="M479,683h58"/>
		<path fill="none" stroke="#000000" stroke-width="0.5" stroke-dasharray="2,10" d="M280,183h173.5"/>
		<path fill="none" stroke="#000000" stroke-width="0.5" stroke-dasharray="2,10" d="M280,401.5h173.5"/>
		<path fill="none" stroke="#000000" stroke-width="0.5" stroke-dasharray="2,10" d="M280,327h173.5"/>
		<path fill="none" stroke="#000000" stroke-width="0.5" d="M280,183v74.5"/>
		<path fill="none" stroke="#000000" stroke-width="0.5" d="M453.5,183v74.5"/>
		<path fill="none" stroke="#000000" stroke-width="0.5" d="M280,257.5V327"/>
		<path fill="none" stroke="#000000" stroke-width="0.5" d="M453.5,257.5V327"/>
		<path fill="none" stroke="#000000" stroke-width="0.5" d="M280,327v74.5"/>
		<path fill="none" stroke="#000000" stroke-width="0.5" d="M453.5,327v74.5"/>
		<path fill="none" stroke="#000000" stroke-width="0.5" stroke-dasharray="2,10" d="M285,528h194"/>
		<path fill="none" stroke="#000000" stroke-width="0.5" stroke-dasharray="2,10" d="M285,729.5h194"/>
		<path fill="none" stroke="#000000" stroke-width="0.5" stroke-dasharray="2,10" d="M285,574.5h194"/>
		<path fill="none" stroke="#000000" stroke-width="0.5" d="M285,528v46.5"/>
		<path fill="none" stroke="#000000" stroke-width="0.5" d="M479,528v46.5"/>
		<path fill="none" stroke="#000000" stroke-width="0.5" d="M285,574.5V683"/>
		<path fill="none" stroke="#000000" stroke-width="0.5" d="M479,574.5V683"/>
		<path fill="none" stroke="#000000" stroke-width="0.5" d="M285,683v46.5"/>
		<path fill="none" stroke="#000000" stroke-width="0.5" d="M479,683v46.5"/>
	</g>
</g>
</svg>
