<?xml version="1.0" encoding="utf-8"?>
<!-- Generator: Adobe Illustrator 17.0.0, SVG Export Plug-In . SVG Version: 6.00 Build 0)  -->
<!DOCTYPE svg PUBLIC "-//W3C//DTD SVG 1.1//EN" "http://www.w3.org/Graphics/SVG/1.1/DTD/svg11.dtd">
<svg version="1.1" id="Layer_1" xmlns="http://www.w3.org/2000/svg" xmlns:xlink="http://www.w3.org/1999/xlink" x="0px" y="0px"
	 width="1024px" height="1024px" viewBox="0 0 1024 1024" enable-background="new 0 0 1024 1024" xml:space="preserve">
<g>
	<g id="XMLID_1_">
		<g>
			<polygon fill="#FFFFFF" points="489.407,505.373 489.407,698.514 327.401,698.514 327.401,505.373 327.401,496.556 
				489.407,496.556 			"/>
			<rect x="327.401" y="303.416" fill="#FFFFFF" width="162.007" height="193.141"/>
			<polygon fill="#FFFFFF" points="698.804,468.729 698.804,503.72 649.21,503.72 649.21,468.729 649.21,256.577 698.804,256.577 
							"/>
			<polygon fill="#FFFFFF" points="629.372,468.729 629.372,569.845 595.483,569.845 595.483,468.729 595.483,299.558 
				629.372,299.558 			"/>
			<polygon fill="#FFFFFF" points="500.153,492.975 500.153,505.373 489.407,505.373 489.407,496.556 489.407,303.416 
				327.401,303.416 327.401,496.556 327.401,505.373 299.022,505.373 299.022,492.975 299.022,263.741 500.153,263.741 			"/>
			<polygon fill="#FFFFFF" points="747.296,493.526 747.296,510.057 714.784,510.057 714.784,468.729 714.784,225.443 
				565.727,225.443 565.727,468.729 565.727,510.057 520.541,510.057 520.541,492.975 520.541,232.331 266.51,232.331 
				266.51,492.975 266.51,510.057 238.683,510.057 238.683,493.526 238.683,188.248 747.296,188.248 			"/>
			<polygon fill="#FFFFFF" points="216.641,493.526 216.641,494.077 196.528,494.077 196.528,492.424 196.528,99.53 813.972,99.53 
				813.972,492.424 813.972,494.077 790.277,494.077 790.277,493.526 790.277,134.521 216.641,134.521 			"/>
			<polygon fill="#FFFFFF" points="714.784,510.057 714.784,753.342 565.727,753.342 565.727,510.057 565.727,468.729 
				595.483,468.729 595.483,569.845 595.483,738.74 629.372,738.74 629.372,569.845 629.372,468.729 649.21,468.729 649.21,503.72 
				649.21,715.596 698.804,715.596 698.804,503.72 698.804,468.729 714.784,468.729 			"/>
			<polygon fill="#FFFFFF" points="520.541,510.057 520.541,770.425 266.51,770.425 266.51,510.057 266.51,492.975 299.022,492.975 
				299.022,505.373 299.022,734.607 500.153,734.607 500.153,505.373 500.153,492.975 520.541,492.975 			"/>
			<polygon fill="#FFFFFF" points="790.277,494.077 790.277,852.806 216.641,852.806 216.641,494.077 216.641,493.526 
				238.683,493.526 238.683,510.057 238.683,815.335 747.296,815.335 747.296,510.057 747.296,493.526 790.277,493.526 			"/>
			<polygon fill="#FFFFFF" points="196.528,492.424 196.528,494.077 196.528,886.695 813.972,886.695 813.972,494.077 
				813.972,492.424 842.626,492.424 842.626,933.258 181.374,933.258 181.374,492.424 			"/>
		</g>
		<g>
			<line fill="none" stroke="#000000" stroke-width="2" x1="181.374" y1="51.589" x2="842.626" y2="51.589"/>
			<line fill="none" stroke="#000000" stroke-width="2" x1="184.396" y1="933.258" x2="845.648" y2="933.258"/>
			<line fill="none" stroke="#000000" stroke-width="2" x1="842.626" y1="933.258" x2="181.374" y2="933.258"/>
			<line fill="none" stroke="#000000" stroke-width="2" x1="181.374" y1="51.589" x2="181.374" y2="492.424"/>
			<line fill="none" stroke="#000000" stroke-width="2" x1="181.374" y1="492.424" x2="181.374" y2="933.258"/>
			<line fill="none" stroke="#000000" stroke-width="2" x1="842.626" y1="492.424" x2="842.626" y2="51.589"/>
			<line fill="none" stroke="#000000" stroke-width="2" x1="842.626" y1="933.258" x2="842.626" y2="492.424"/>
			
				<line fill="none" stroke="#000000" stroke-width="2" stroke-dasharray="2,10" x1="181.374" y1="492.424" x2="196.528" y2="492.424"/>
			
				<line fill="none" stroke="#000000" stroke-width="2" stroke-dasharray="2,10" x1="813.972" y1="492.424" x2="842.626" y2="492.424"/>
			<line fill="none" stroke="#000000" stroke-width="2" stroke-dasharray="2,10" x1="196.528" y1="99.53" x2="813.972" y2="99.53"/>
			
				<line fill="none" stroke="#000000" stroke-width="2" stroke-dasharray="2,10" x1="196.528" y1="886.695" x2="813.972" y2="886.695"/>
			<line fill="none" stroke="#000000" stroke-width="2" x1="196.528" y1="99.53" x2="196.528" y2="492.424"/>
			<line fill="none" stroke="#000000" stroke-width="2" x1="813.972" y1="99.53" x2="813.972" y2="492.424"/>
			<line fill="none" stroke="#000000" stroke-width="2" x1="196.528" y1="492.424" x2="196.528" y2="494.077"/>
			<line fill="none" stroke="#000000" stroke-width="2" x1="813.972" y1="492.424" x2="813.972" y2="494.077"/>
			<line fill="none" stroke="#000000" stroke-width="2" x1="196.528" y1="494.077" x2="196.528" y2="886.695"/>
			<line fill="none" stroke="#000000" stroke-width="2" x1="813.972" y1="494.077" x2="813.972" y2="886.695"/>
			
				<line fill="none" stroke="#000000" stroke-width="2" stroke-dasharray="5,4" x1="196.528" y1="494.077" x2="216.641" y2="494.077"/>
			
				<line fill="none" stroke="#000000" stroke-width="2" stroke-dasharray="5,4" x1="790.277" y1="494.077" x2="813.972" y2="494.077"/>
			<g>
				<g>
					<line fill="none" stroke="#000000" stroke-width="2" x1="216.641" y1="134.521" x2="222.151" y2="134.521"/>
					
						<line fill="none" stroke="#000000" stroke-width="2" stroke-dasharray="4.0237,5.0296" x1="235.927" y1="134.521" x2="777.878" y2="134.521"/>
					<line fill="none" stroke="#000000" stroke-width="2" x1="784.766" y1="134.521" x2="790.277" y2="134.521"/>
				</g>
			</g>
			
				<line fill="none" stroke="#000000" stroke-width="2" stroke-dasharray="4,5" x1="216.641" y1="852.806" x2="790.277" y2="852.806"/>
			<line fill="none" stroke="#000000" stroke-width="2" x1="216.641" y1="134.521" x2="216.641" y2="493.526"/>
			<line fill="none" stroke="#000000" stroke-width="2" x1="790.277" y1="134.521" x2="790.277" y2="493.526"/>
			<line fill="none" stroke="#000000" stroke-width="2" x1="216.641" y1="493.526" x2="216.641" y2="494.077"/>
			<line fill="none" stroke="#000000" stroke-width="2" x1="790.277" y1="493.526" x2="790.277" y2="494.077"/>
			<line fill="none" stroke="#000000" stroke-width="2" x1="216.641" y1="494.077" x2="216.641" y2="852.806"/>
			<line fill="none" stroke="#000000" stroke-width="2" x1="790.277" y1="494.077" x2="790.277" y2="852.806"/>
			
				<line fill="none" stroke="#000000" stroke-width="2" stroke-dasharray="2,10" x1="216.641" y1="493.526" x2="238.683" y2="493.526"/>
			
				<line fill="none" stroke="#000000" stroke-width="2" stroke-dasharray="2,10" x1="747.296" y1="493.526" x2="790.277" y2="493.526"/>
			
				<line fill="none" stroke="#000000" stroke-width="2" stroke-dasharray="2,10" x1="238.683" y1="188.248" x2="747.296" y2="188.248"/>
			
				<line fill="none" stroke="#000000" stroke-width="2" stroke-dasharray="2,10" x1="238.683" y1="815.335" x2="747.296" y2="815.335"/>
			<line fill="none" stroke="#000000" stroke-width="2" x1="238.683" y1="188.248" x2="238.683" y2="493.526"/>
			<line fill="none" stroke="#000000" stroke-width="2" x1="747.296" y1="188.248" x2="747.296" y2="493.526"/>
			<line fill="none" stroke="#000000" stroke-width="2" x1="238.683" y1="493.526" x2="238.683" y2="510.057"/>
			<line fill="none" stroke="#000000" stroke-width="2" x1="747.296" y1="493.526" x2="747.296" y2="510.057"/>
			<line fill="none" stroke="#000000" stroke-width="2" x1="238.683" y1="510.057" x2="238.683" y2="815.335"/>
			<line fill="none" stroke="#000000" stroke-width="2" x1="747.296" y1="510.057" x2="747.296" y2="815.335"/>
			
				<line fill="none" stroke="#000000" stroke-width="2" stroke-dasharray="5,4" x1="714.784" y1="510.057" x2="747.296" y2="510.057"/>
			
				<line fill="none" stroke="#000000" stroke-width="2" stroke-dasharray="5,4" x1="238.683" y1="510.057" x2="266.51" y2="510.057"/>
			
				<line fill="none" stroke="#000000" stroke-width="2" stroke-dasharray="5,4" x1="520.541" y1="510.057" x2="565.727" y2="510.057"/>
			
				<line fill="none" stroke="#000000" stroke-width="2" stroke-dasharray="4,5" x1="565.727" y1="225.443" x2="714.784" y2="225.443"/>
			
				<line fill="none" stroke="#000000" stroke-width="2" stroke-dasharray="4,5" x1="565.727" y1="753.342" x2="714.784" y2="753.342"/>
			<line fill="none" stroke="#000000" stroke-width="2" x1="565.727" y1="225.443" x2="565.727" y2="468.729"/>
			<line fill="none" stroke="#000000" stroke-width="2" x1="714.784" y1="225.443" x2="714.784" y2="468.729"/>
			<line fill="none" stroke="#000000" stroke-width="2" x1="565.727" y1="468.729" x2="565.727" y2="510.057"/>
			<line fill="none" stroke="#000000" stroke-width="2" x1="714.784" y1="468.729" x2="714.784" y2="510.057"/>
			<line fill="none" stroke="#000000" stroke-width="2" x1="565.727" y1="510.057" x2="565.727" y2="753.342"/>
			<line fill="none" stroke="#000000" stroke-width="2" x1="714.784" y1="510.057" x2="714.784" y2="753.342"/>
			
				<line fill="none" stroke="#000000" stroke-width="2" stroke-dasharray="2,10" x1="565.727" y1="468.729" x2="595.483" y2="468.729"/>
			
				<line fill="none" stroke="#000000" stroke-width="2" stroke-dasharray="2,10" x1="629.372" y1="468.729" x2="649.21" y2="468.729"/>
			
				<line fill="none" stroke="#000000" stroke-width="2" stroke-dasharray="2,10" x1="698.804" y1="468.729" x2="714.784" y2="468.729"/>
			
				<line fill="none" stroke="#000000" stroke-width="2" stroke-dasharray="4,5" x1="266.51" y1="232.331" x2="520.541" y2="232.331"/>
			
				<line fill="none" stroke="#000000" stroke-width="2" stroke-dasharray="4,5" x1="266.51" y1="770.425" x2="520.541" y2="770.425"/>
			<line fill="none" stroke="#000000" stroke-width="2" x1="266.51" y1="232.331" x2="266.51" y2="492.975"/>
			<line fill="none" stroke="#000000" stroke-width="2" x1="520.541" y1="232.331" x2="520.541" y2="492.975"/>
			<line fill="none" stroke="#000000" stroke-width="2" x1="266.51" y1="492.975" x2="266.51" y2="510.057"/>
			<line fill="none" stroke="#000000" stroke-width="2" x1="520.541" y1="492.975" x2="520.541" y2="510.057"/>
			<line fill="none" stroke="#000000" stroke-width="2" x1="266.51" y1="510.057" x2="266.51" y2="770.425"/>
			<line fill="none" stroke="#000000" stroke-width="2" x1="520.541" y1="510.057" x2="520.541" y2="770.425"/>
			
				<line fill="none" stroke="#000000" stroke-width="2" stroke-dasharray="2,10" x1="266.51" y1="492.975" x2="299.022" y2="492.975"/>
			
				<line fill="none" stroke="#000000" stroke-width="2" stroke-dasharray="2,10" x1="500.153" y1="492.975" x2="520.541" y2="492.975"/>
			
				<line fill="none" stroke="#000000" stroke-width="2" stroke-dasharray="2,10" x1="299.022" y1="263.741" x2="500.153" y2="263.741"/>
			
				<line fill="none" stroke="#000000" stroke-width="2" stroke-dasharray="2,10" x1="299.022" y1="734.607" x2="500.153" y2="734.607"/>
			<line fill="none" stroke="#000000" stroke-width="2" x1="299.022" y1="263.741" x2="299.022" y2="492.975"/>
			<line fill="none" stroke="#000000" stroke-width="2" x1="500.153" y1="263.741" x2="500.153" y2="492.975"/>
			<line fill="none" stroke="#000000" stroke-width="2" x1="299.022" y1="492.975" x2="299.022" y2="505.373"/>
			<line fill="none" stroke="#000000" stroke-width="2" x1="500.153" y1="492.975" x2="500.153" y2="505.373"/>
			<line fill="none" stroke="#000000" stroke-width="2" x1="299.022" y1="505.373" x2="299.022" y2="734.607"/>
			<line fill="none" stroke="#000000" stroke-width="2" x1="500.153" y1="505.373" x2="500.153" y2="734.607"/>
			
				<line fill="none" stroke="#000000" stroke-width="2" stroke-dasharray="5,4" x1="299.022" y1="505.373" x2="327.401" y2="505.373"/>
			
				<line fill="none" stroke="#000000" stroke-width="2" stroke-dasharray="5,4" x1="489.407" y1="505.373" x2="500.153" y2="505.373"/>
			
				<line fill="none" stroke="#000000" stroke-width="2" stroke-dasharray="2,10" x1="595.483" y1="299.558" x2="629.372" y2="299.558"/>
			
				<line fill="none" stroke="#000000" stroke-width="2" stroke-dasharray="2,10" x1="595.483" y1="738.74" x2="629.372" y2="738.74"/>
			
				<line fill="none" stroke="#000000" stroke-width="2" stroke-dasharray="5,4" x1="595.483" y1="569.845" x2="629.372" y2="569.845"/>
			<line fill="none" stroke="#000000" stroke-width="2" x1="595.483" y1="299.558" x2="595.483" y2="468.729"/>
			<line fill="none" stroke="#000000" stroke-width="2" x1="629.372" y1="299.558" x2="629.372" y2="468.729"/>
			<line fill="none" stroke="#000000" stroke-width="2" x1="595.483" y1="468.729" x2="595.483" y2="569.845"/>
			<line fill="none" stroke="#000000" stroke-width="2" x1="629.372" y1="468.729" x2="629.372" y2="569.845"/>
			<line fill="none" stroke="#000000" stroke-width="2" x1="595.483" y1="569.845" x2="595.483" y2="738.74"/>
			<line fill="none" stroke="#000000" stroke-width="2" x1="629.372" y1="569.845" x2="629.372" y2="738.74"/>
			
				<line fill="none" stroke="#000000" stroke-width="2" stroke-dasharray="2,10" x1="649.21" y1="256.577" x2="698.804" y2="256.577"/>
			
				<line fill="none" stroke="#000000" stroke-width="2" stroke-dasharray="2,10" x1="649.21" y1="715.596" x2="698.804" y2="715.596"/>
			<line fill="none" stroke="#000000" stroke-width="2" stroke-dasharray="5,4" x1="649.21" y1="503.72" x2="698.804" y2="503.72"/>
			<line fill="none" stroke="#000000" stroke-width="2" x1="649.21" y1="256.577" x2="649.21" y2="468.729"/>
			<line fill="none" stroke="#000000" stroke-width="2" x1="698.804" y1="256.577" x2="698.804" y2="468.729"/>
			<line fill="none" stroke="#000000" stroke-width="2" x1="649.21" y1="468.729" x2="649.21" y2="503.72"/>
			<line fill="none" stroke="#000000" stroke-width="2" x1="698.804" y1="468.729" x2="698.804" y2="503.72"/>
			<line fill="none" stroke="#000000" stroke-width="2" x1="649.21" y1="503.72" x2="649.21" y2="715.596"/>
			<line fill="none" stroke="#000000" stroke-width="2" x1="698.804" y1="503.72" x2="698.804" y2="715.596"/>
			
				<line fill="none" stroke="#000000" stroke-width="2" stroke-dasharray="4,5" x1="327.401" y1="303.416" x2="489.407" y2="303.416"/>
			
				<line fill="none" stroke="#000000" stroke-width="2" stroke-dasharray="4,5" x1="327.401" y1="698.514" x2="489.407" y2="698.514"/>
			
				<line fill="none" stroke="#000000" stroke-width="2" stroke-dasharray="2,10" x1="327.401" y1="496.556" x2="489.407" y2="496.556"/>
			<line fill="none" stroke="#000000" stroke-width="2" x1="327.401" y1="303.416" x2="327.401" y2="496.556"/>
			<line fill="none" stroke="#000000" stroke-width="2" x1="489.407" y1="303.416" x2="489.407" y2="496.556"/>
			<line fill="none" stroke="#000000" stroke-width="2" x1="327.401" y1="496.556" x2="327.401" y2="505.373"/>
			<line fill="none" stroke="#000000" stroke-width="2" x1="489.407" y1="496.556" x2="489.407" y2="505.373"/>
			<line fill="none" stroke="#000000" stroke-width="2" x1="327.401" y1="505.373" x2="327.401" y2="698.514"/>
			<line fill="none" stroke="#000000" stroke-width="2" x1="489.407" y1="505.373" x2="489.407" y2="698.514"/>
		</g>
	</g>
</g>
</svg>
