<?xml version="1.0" encoding="utf-8"?>
<!-- Generator: Adobe Illustrator 17.0.0, SVG Export Plug-In . SVG Version: 6.00 Build 0)  -->
<!DOCTYPE svg PUBLIC "-//W3C//DTD SVG 1.1//EN" "http://www.w3.org/Graphics/SVG/1.1/DTD/svg11.dtd">
<svg version="1.1" id="Layer_1" xmlns="http://www.w3.org/2000/svg" xmlns:xlink="http://www.w3.org/1999/xlink" x="0px" y="0px"
	 width="1024px" height="1024px" viewBox="0 0 1024 1024" enable-background="new 0 0 1024 1024" xml:space="preserve">
<g>
	<g id="XMLID_1_">
		<g>
			<rect x="515.354" y="537.7" fill="#FFFFFF" width="92.229" height="100.893"/>
			<path fill="#FFFFFF" d="M358.565,491.865c0.559,12.018,0,24.315,1.677,36.053c1.397,10.061,3.913,20.402,6.987,29.905
				c5.031,14.533,13.415,27.948,21.241,40.804c3.354,5.869,6.708,11.738,10.9,17.048c3.913,4.472,8.384,8.664,13.136,12.577
				c9.782,8.664,20.682,15.93,31.581,22.917c11.459,6.987,23.197,14.254,36.053,18.446h34.935v100.893h92.229V669.615h19.564
				c6.428-2.795,12.297-6.428,17.887-10.341c11.179-7.546,21.8-16.21,31.022-25.712c10.341-10.341,19.284-22.638,27.389-34.935
				c7.546-12.018,13.974-24.874,19.564-37.73c7.266-16.489,13.415-33.538,17.887-50.866c1.677-6.149,3.074-12.297,3.913-18.446
				l102.29,0.559v447.171H176.622V492.144L358.565,491.865z"/>
			<polygon fill="#FFFFFF" points="658.169,439.322 658.169,514.223 501.659,514.223 501.659,439.322 501.659,409.417 
				550.289,409.417 550.289,439.322 550.289,475.934 633.854,475.934 633.854,439.322 633.854,409.417 658.169,409.417 			"/>
			<polygon fill="#FFFFFF" points="633.854,409.417 633.854,439.322 550.289,439.322 550.289,409.417 550.289,372.805 
				633.854,372.805 			"/>
			<path fill="#FFFFFF" d="M361.918,439.322c1.956-7.546,3.354-15.092,5.59-22.359c3.354-11.459,8.943-22.079,14.254-32.699
				c5.869-12.018,12.577-24.035,20.123-34.935c7.546-10.9,16.769-20.961,26.271-30.464c0.559-0.559,1.118-1.118,1.677-1.677
				c3.074-2.515,8.664-0.838,12.018-3.354c1.118-0.838,2.236-2.236,3.354-3.354c3.633-3.913,6.149-8.664,9.782-12.577
				c4.472-5.031,10.061-9.502,15.371-13.695c4.192-3.354,8.664-6.708,13.136-9.782c5.59-3.913,10.9-8.105,16.489-12.018h28.507
				v46.394h105.924V262.41h23.477c1.677,0.838,3.354,1.397,5.031,2.236c13.415,5.31,26.83,11.459,38.289,20.123
				c8.943,6.708,17.048,15.092,24.035,24.035c3.354,4.192,6.428,8.384,9.223,13.136c2.236,3.913,4.192,7.826,5.869,12.018
				c3.074,6.987,5.031,14.533,6.987,21.8c1.397,4.751,2.795,9.502,3.913,14.254c3.074,13.974,3.913,28.507,3.913,42.481
				c0,7.546-0.559,15.371-1.118,22.918c0,1.397-0.279,2.515-0.559,3.913h-94.465v-29.905v-74.901H502.218v74.901v29.905H361.918z"/>
			<rect x="527.931" y="155.089" fill="#FFFFFF" width="105.924" height="46.394"/>
		</g>
		<g>
			<line fill="none" stroke="#000000" stroke-width="2" x1="176.622" y1="45.253" x2="847.378" y2="45.253"/>
			<line fill="none" stroke="#000000" stroke-width="2" x1="847.378" y1="939.594" x2="176.622" y2="939.594"/>
			<line fill="none" stroke="#000000" stroke-width="2" x1="176.622" y1="45.253" x2="176.622" y2="492.424"/>
			<line fill="none" stroke="#000000" stroke-width="2" x1="176.622" y1="492.424" x2="176.622" y2="939.594"/>
			<line fill="none" stroke="#000000" stroke-width="2" x1="847.378" y1="492.424" x2="847.378" y2="45.253"/>
			<line fill="none" stroke="#000000" stroke-width="2" x1="847.378" y1="939.594" x2="847.378" y2="492.424"/>
			
				<line fill="none" stroke="#000000" stroke-width="2" stroke-dasharray="2,10" x1="176.622" y1="492.424" x2="358.565" y2="491.865"/>
			
				<line fill="none" stroke="#000000" stroke-width="2" stroke-dasharray="2,10" x1="745.088" y1="491.865" x2="847.378" y2="492.424"/>
			<path fill="none" stroke="#000000" stroke-width="2" d="M429.553,317.189c-0.559,0.559-1.118,1.118-1.677,1.677
				c-9.502,9.502-18.446,19.564-26.271,30.464c-7.825,10.9-14.254,22.918-20.123,34.935c-5.31,10.62-10.9,21.52-14.254,32.699"/>
			<path fill="none" stroke="#000000" stroke-width="2" d="M367.229,416.963c-2.236,7.267-3.354,14.813-5.59,22.359"/>
			<path fill="none" stroke="#000000" stroke-width="2" d="M361.918,439.322c0.279,3.913,0,8.105-0.559,12.018
				c-1.118,11.179-1.397,22.638-1.677,33.817"/>
			<path fill="none" stroke="#000000" stroke-width="2" d="M359.682,485.157c0,2.236,0,4.472-1.118,6.428"/>
			<path fill="none" stroke="#000000" stroke-width="2" d="M358.565,491.865c0.559,12.018,0,24.315,1.677,36.053
				c1.397,10.061,3.913,20.402,6.987,29.905c5.031,14.533,13.415,27.948,21.241,40.804c3.354,5.869,6.708,11.738,10.9,17.048
				c3.913,4.472,8.384,8.664,13.136,12.577c9.782,8.664,20.682,15.93,31.581,22.917"/>
			<path fill="none" stroke="#000000" stroke-width="2" d="M444.365,651.169c11.459,6.987,23.197,14.254,36.053,18.446"/>
			<path fill="none" stroke="#000000" stroke-width="2" d="M627.147,669.615c6.428-2.795,12.297-6.428,17.887-10.341
				c11.179-7.546,21.799-16.21,31.022-25.712c10.341-10.341,19.284-22.638,27.389-34.935c7.546-12.018,13.974-24.874,19.564-37.73
				c7.266-16.489,13.415-33.538,17.887-50.866"/>
			<path fill="none" stroke="#000000" stroke-width="2" d="M741.175,510.31c1.677-6.149,3.074-12.297,3.913-18.446"/>
			<path fill="none" stroke="#000000" stroke-width="2" d="M745.088,491.865c2.515-10.62,3.913-20.961,5.59-31.581"/>
			<path fill="none" stroke="#000000" stroke-width="2" d="M750.677,460.004c1.118-6.987,1.677-13.974,2.236-20.682"/>
			<path fill="none" stroke="#000000" stroke-width="2" d="M752.634,439.322c0.279-1.397,0.559-2.515,0.559-3.913
				c0.559-7.546,1.118-15.371,1.118-22.917c0-14.254-0.838-28.787-3.913-42.481c-1.118-4.751-2.515-9.502-3.913-14.254
				c-2.236-7.267-3.913-14.813-6.987-21.8c-1.677-4.192-3.633-8.105-5.869-12.018c-2.795-4.472-5.869-8.943-9.223-13.136
				c-6.987-8.943-15.092-17.328-24.035-24.035c-11.459-8.664-24.874-14.813-38.289-20.123"/>
			<path fill="none" stroke="#000000" stroke-width="2" d="M662.082,264.646c-1.677-0.559-3.354-1.397-5.031-2.236"/>
			<path fill="none" stroke="#000000" stroke-width="2" d="M499.423,262.41c-5.59,3.913-10.9,8.105-16.489,12.018
				c-4.472,3.074-8.943,6.428-13.136,9.782c-5.31,4.192-10.62,8.664-15.371,13.695c-3.633,3.913-6.149,8.664-9.782,12.577
				c-1.118,1.118-1.956,2.515-3.354,3.354c-3.354,2.515-8.943,0.559-12.018,3.354"/>
			
				<line fill="none" stroke="#000000" stroke-width="2" stroke-dasharray="4,5" x1="361.918" y1="439.322" x2="501.659" y2="439.322"/>
			
				<line fill="none" stroke="#000000" stroke-width="2" stroke-dasharray="5,4" x1="658.169" y1="439.322" x2="752.634" y2="439.322"/>
			
				<line fill="none" stroke="#000000" stroke-width="2" stroke-dasharray="2,10" x1="499.423" y1="262.41" x2="527.931" y2="262.41"/>
			
				<line fill="none" stroke="#000000" stroke-width="2" stroke-dasharray="2,10" x1="633.854" y1="262.41" x2="657.331" y2="262.41"/>
			
				<line fill="none" stroke="#000000" stroke-width="2" stroke-dasharray="2,10" x1="480.419" y1="669.615" x2="515.354" y2="669.615"/>
			
				<line fill="none" stroke="#000000" stroke-width="2" stroke-dasharray="2,10" x1="607.583" y1="669.615" x2="627.147" y2="669.615"/>
			<g>
				<g>
					<line fill="none" stroke="#000000" stroke-width="2" x1="501.659" y1="334.516" x2="507.249" y2="334.516"/>
					
						<line fill="none" stroke="#000000" stroke-width="2" stroke-dasharray="4.1644,5.2055" x1="521.782" y1="334.516" x2="645.313" y2="334.516"/>
					<line fill="none" stroke="#000000" stroke-width="2" x1="652.579" y1="334.516" x2="658.169" y2="334.516"/>
				</g>
			</g>
			<g>
				<g>
					<line fill="none" stroke="#000000" stroke-width="2" x1="501.659" y1="514.223" x2="507.249" y2="514.223"/>
					
						<line fill="none" stroke="#000000" stroke-width="2" stroke-dasharray="4.1644,5.2055" x1="521.782" y1="514.223" x2="645.313" y2="514.223"/>
					<line fill="none" stroke="#000000" stroke-width="2" x1="652.579" y1="514.223" x2="658.169" y2="514.223"/>
				</g>
			</g>
			<line fill="none" stroke="#000000" stroke-width="2" x1="501.659" y1="334.516" x2="501.659" y2="409.417"/>
			<line fill="none" stroke="#000000" stroke-width="2" x1="658.169" y1="334.516" x2="658.169" y2="409.417"/>
			<line fill="none" stroke="#000000" stroke-width="2" x1="501.659" y1="409.417" x2="501.659" y2="439.322"/>
			<line fill="none" stroke="#000000" stroke-width="2" x1="658.169" y1="409.417" x2="658.169" y2="439.322"/>
			<line fill="none" stroke="#000000" stroke-width="2" x1="501.659" y1="439.322" x2="501.659" y2="514.223"/>
			<line fill="none" stroke="#000000" stroke-width="2" x1="658.169" y1="439.322" x2="658.169" y2="514.223"/>
			
				<line fill="none" stroke="#000000" stroke-width="2" stroke-dasharray="2,10" x1="501.659" y1="409.417" x2="550.289" y2="409.417"/>
			
				<line fill="none" stroke="#000000" stroke-width="2" stroke-dasharray="2,10" x1="633.854" y1="409.417" x2="658.169" y2="409.417"/>
			
				<line fill="none" stroke="#000000" stroke-width="2" stroke-dasharray="2,10" x1="527.931" y1="155.089" x2="633.854" y2="155.089"/>
			
				<line fill="none" stroke="#000000" stroke-width="2" stroke-dasharray="2,10" x1="527.931" y1="308.804" x2="633.854" y2="308.804"/>
			
				<line fill="none" stroke="#000000" stroke-width="2" stroke-dasharray="5,5" x1="527.931" y1="201.483" x2="633.854" y2="201.483"/>
			<line fill="none" stroke="#000000" stroke-width="2" x1="527.931" y1="155.089" x2="527.931" y2="201.483"/>
			<line fill="none" stroke="#000000" stroke-width="2" x1="633.854" y1="155.089" x2="633.854" y2="201.483"/>
			<line fill="none" stroke="#000000" stroke-width="2" x1="527.931" y1="201.483" x2="527.931" y2="262.41"/>
			<line fill="none" stroke="#000000" stroke-width="2" x1="633.854" y1="201.483" x2="633.854" y2="262.41"/>
			<line fill="none" stroke="#000000" stroke-width="2" x1="527.931" y1="262.41" x2="527.931" y2="308.804"/>
			<line fill="none" stroke="#000000" stroke-width="2" x1="633.854" y1="262.41" x2="633.854" y2="308.804"/>
			<line fill="none" stroke="#000000" stroke-width="2" stroke-dasharray="2,10" x1="515.354" y1="537.7" x2="607.583" y2="537.7"/>
			
				<line fill="none" stroke="#000000" stroke-width="2" stroke-dasharray="2,10" x1="515.354" y1="770.787" x2="607.583" y2="770.787"/>
			
				<line fill="none" stroke="#000000" stroke-width="2" stroke-dasharray="5,4" x1="515.354" y1="638.592" x2="607.583" y2="638.592"/>
			<line fill="none" stroke="#000000" stroke-width="2" x1="515.354" y1="537.7" x2="515.354" y2="638.592"/>
			<line fill="none" stroke="#000000" stroke-width="2" x1="607.583" y1="537.7" x2="607.583" y2="638.592"/>
			<line fill="none" stroke="#000000" stroke-width="2" x1="515.354" y1="638.592" x2="515.354" y2="669.615"/>
			<line fill="none" stroke="#000000" stroke-width="2" x1="607.583" y1="638.592" x2="607.583" y2="669.615"/>
			<line fill="none" stroke="#000000" stroke-width="2" x1="515.354" y1="669.615" x2="515.354" y2="770.787"/>
			<line fill="none" stroke="#000000" stroke-width="2" x1="607.583" y1="669.615" x2="607.583" y2="770.787"/>
			
				<line fill="none" stroke="#000000" stroke-width="2" stroke-dasharray="2,10" x1="550.289" y1="372.805" x2="633.854" y2="372.805"/>
			
				<line fill="none" stroke="#000000" stroke-width="2" stroke-dasharray="2,10" x1="550.289" y1="475.934" x2="633.854" y2="475.934"/>
			
				<line fill="none" stroke="#000000" stroke-width="2" stroke-dasharray="5,4" x1="550.289" y1="439.322" x2="633.854" y2="439.322"/>
			<line fill="none" stroke="#000000" stroke-width="2" x1="550.289" y1="372.805" x2="550.289" y2="409.417"/>
			<line fill="none" stroke="#000000" stroke-width="2" x1="633.854" y1="372.805" x2="633.854" y2="409.417"/>
			<line fill="none" stroke="#000000" stroke-width="2" x1="550.289" y1="409.417" x2="550.289" y2="439.322"/>
			<line fill="none" stroke="#000000" stroke-width="2" x1="633.854" y1="409.417" x2="633.854" y2="439.322"/>
			<line fill="none" stroke="#000000" stroke-width="2" x1="550.289" y1="439.322" x2="550.289" y2="475.934"/>
			<line fill="none" stroke="#000000" stroke-width="2" x1="633.854" y1="439.322" x2="633.854" y2="475.934"/>
		</g>
	</g>
</g>
</svg>
