<?xml version="1.0" encoding="utf-8"?>
<!-- Generator: Adobe Illustrator 17.0.0, SVG Export Plug-In . SVG Version: 6.00 Build 0)  -->
<!DOCTYPE svg PUBLIC "-//W3C//DTD SVG 1.1//EN" "http://www.w3.org/Graphics/SVG/1.1/DTD/svg11.dtd">
<svg version="1.1" id="Layer_1" xmlns="http://www.w3.org/2000/svg" xmlns:xlink="http://www.w3.org/1999/xlink" x="0px" y="0px"
	 width="1024px" height="1024px" viewBox="0 0 1024 1024" enable-background="new 0 0 1024 1024" xml:space="preserve">
<g>
	<g id="XMLID_1_">
		<g>
			<rect x="489.281" y="450.155" fill="#FFFFFF" width="108.313" height="69.743"/>
			<polygon fill="#FFFFFF" points="378.855,248.323 378.855,389.13 217.442,389.13 217.442,248.323 245.709,248.323 
				245.709,349.503 349.531,349.503 349.531,248.323 			"/>
			<polygon fill="#FFFFFF" points="344.776,633.23 344.776,713.276 229.33,713.276 229.33,633.23 229.33,476.837 344.776,476.837 
							"/>
			<path fill="#FFFFFF" d="M829.013,492.424v422.684H194.987V492.424h22.455V633.23h11.888v80.046v156.393h115.71V713.276V633.23
				h34.079V492.424l8.718-0.528c2.378,4.491,4.227,8.982,5.284,14.001c1.057,6.604,1.321,13.737,1.585,20.606
				c0.264,6.604-1.057,13.737,0.528,20.078c0.793,3.698,2.113,7.397,3.698,10.831c1.849,4.755,4.755,9.51,7.133,14.001
				c3.434,6.34,6.604,13.209,11.36,18.492c3.698,3.963,8.982,6.604,12.945,10.303c6.076,5.812,9.775,14.266,16.115,20.078
				c2.378,2.113,5.019,4.227,7.661,6.076c3.434,2.378,7.133,3.698,10.831,5.548c7.133,3.698,14.266,7.925,21.134,11.888
				c5.019,2.906,9.775,6.34,14.794,8.982h80.046c1.057,0.264,1.321,0,2.113-0.528c10.303-6.604,18.228-16.643,27.475-24.833
				c7.133-6.076,14.794-11.888,21.134-18.492c7.661-7.925,15.851-16.379,20.077-26.418c2.642-6.076,3.963-12.945,5.284-19.549
				c1.849-11.36-1.057-23.512,0.528-35.136c1.321-10.039,5.019-19.549,6.604-29.324c0.528-2.113,0.793-4.227,0.528-6.604h22.191
				v268.668h102.765V491.895L829.013,492.424z"/>
			<path fill="#FFFFFF" d="M489.281,413.434h-80.046c2.642-7.925,2.906-16.907,4.227-25.361c1.057-7.133,0.264-15.058,2.642-21.663
				c3.17-8.982,11.095-16.379,17.436-23.776c5.812-6.604,16.643-10.831,19.021-18.492c1.849-5.812-0.528-13.473-1.585-20.077
				c-0.793-5.284-3.434-10.567-3.17-15.586c0.792-7.925,7.397-16.115,14.001-21.663c0.793-0.793,1.849-1.321,2.642-2.113
				c4.755-3.698,10.567-6.076,16.115-9.246c1.321-0.793,2.642-1.585,3.434-3.17h20.342v44.382h58.912v-44.382l35.4,0.264
				c3.963,2.642,7.661,5.548,10.831,8.718c9.775,9.246,15.851,23.248,21.663,35.664c6.604,14.266,10.831,29.588,14.53,44.91
				c3.434,14.53,3.699,30.116,7.133,44.91c2.113,8.982,5.548,17.964,8.189,26.946h-63.403v-69.743H489.281L489.281,413.434
				L489.281,413.434z"/>
			<rect x="686.357" y="170.919" fill="#FFFFFF" width="102.765" height="268.933"/>
			<rect x="504.339" y="110.951" fill="#FFFFFF" width="58.912" height="44.382"/>
			<rect x="245.709" y="99.063" fill="#FFFFFF" width="103.822" height="101.18"/>
		</g>
		<g>
			<line fill="none" stroke="#000000" stroke-width="2" x1="194.987" y1="69.739" x2="829.013" y2="69.739"/>
			<line fill="none" stroke="#000000" stroke-width="2" x1="194.987" y1="915.108" x2="829.013" y2="915.108"/>
			<line fill="none" stroke="#000000" stroke-width="2" x1="194.987" y1="69.739" x2="194.987" y2="492.424"/>
			<line fill="none" stroke="#000000" stroke-width="2" x1="194.987" y1="492.424" x2="194.987" y2="915.108"/>
			<line fill="none" stroke="#000000" stroke-width="2" x1="829.013" y1="492.424" x2="829.013" y2="69.739"/>
			<line fill="none" stroke="#000000" stroke-width="2" x1="829.013" y1="915.108" x2="829.013" y2="492.424"/>
			
				<line fill="none" stroke="#000000" stroke-width="2" stroke-dasharray="2,10" x1="194.987" y1="492.424" x2="217.442" y2="492.424"/>
			
				<line fill="none" stroke="#000000" stroke-width="2" stroke-dasharray="2,10" x1="378.855" y1="492.424" x2="387.572" y2="491.895"/>
			
				<line fill="none" stroke="#000000" stroke-width="2" stroke-dasharray="2,10" x1="664.166" y1="491.895" x2="686.357" y2="491.895"/>
			
				<line fill="none" stroke="#000000" stroke-width="2" stroke-dasharray="2,10" x1="789.122" y1="491.895" x2="829.013" y2="492.424"/>
			
				<line fill="none" stroke="#000000" stroke-width="2" stroke-dasharray="2,10" x1="500.64" y1="652.779" x2="580.686" y2="652.779"/>
			<path fill="none" stroke="#000000" stroke-width="2" d="M464.448,264.703c-0.793,0.528-1.849,1.321-2.642,2.113
				c-6.604,5.548-13.209,13.737-14.001,21.663c-0.528,4.755,2.378,10.303,3.17,15.586c1.057,6.604,3.17,14.266,1.585,20.077
				c-2.378,7.661-13.209,11.888-19.021,18.492c-6.604,7.397-14.266,14.794-17.436,23.776c-2.378,6.604-1.585,14.53-2.642,21.663"/>
			<path fill="none" stroke="#000000" stroke-width="2" d="M413.462,388.073c-1.057,8.454-1.321,17.436-4.227,25.361"/>
			<path fill="none" stroke="#000000" stroke-width="2" d="M409.235,413.434c0.528,1.849,0,3.17-0.528,4.755
				c-4.227,13.209-18.757,22.719-22.191,36.192c-2.113,7.925-2.906,16.907-2.113,25.361"/>
			<path fill="none" stroke="#000000" stroke-width="2" d="M384.666,479.479c0.528,4.227,1.849,8.19,3.17,12.416"/>
			<path fill="none" stroke="#000000" stroke-width="2" d="M387.572,491.895c2.378,4.491,4.227,8.982,5.284,14.001
				c1.057,6.604,1.321,13.737,1.585,20.606c0.264,6.604-1.057,13.737,0.528,20.078c0.793,3.698,2.113,7.397,3.698,10.831
				c1.849,4.755,4.755,9.51,7.133,14.001c3.434,6.34,6.604,13.209,11.36,18.492c3.698,3.963,8.982,6.604,12.945,10.303
				c6.076,5.812,9.775,14.266,16.115,20.078c2.378,2.113,5.019,4.227,7.661,6.076c3.434,2.378,7.133,3.698,10.831,5.548
				c7.133,3.698,14.266,7.925,21.134,11.888"/>
			<path fill="none" stroke="#000000" stroke-width="2" d="M485.582,644.061c5.019,2.906,9.775,6.34,14.794,8.982"/>
			<path fill="none" stroke="#000000" stroke-width="2" d="M580.686,652.779c1.057,0.264,1.321,0,2.113-0.528
				c10.303-6.604,18.228-16.643,27.475-24.833c7.133-6.076,14.794-11.888,21.134-18.492c7.661-7.925,15.851-16.379,20.077-26.418
				c2.642-6.076,3.963-12.945,5.284-19.549c1.849-11.36-1.057-23.512,0.528-35.136c1.321-10.039,5.019-19.549,6.604-29.324"/>
			<path fill="none" stroke="#000000" stroke-width="2" d="M663.638,498.5c0.528-2.113,0.792-4.227,0.528-6.604"/>
			<path fill="none" stroke="#000000" stroke-width="2" d="M664.166,491.895c2.378-11.095,3.699-22.719,3.699-34.079
				c0-11.095-1.321-22.719-3.699-33.551"/>
			<path fill="none" stroke="#000000" stroke-width="2" d="M664.166,424.266c-0.792-3.698-1.849-7.397-3.17-10.831"/>
			<path fill="none" stroke="#000000" stroke-width="2" d="M660.996,413.434c-2.642-8.982-6.076-17.7-8.189-26.946
				c-3.434-14.794-3.699-30.116-7.133-44.91c-3.699-15.322-7.925-30.645-14.53-44.91c-5.812-12.416-11.888-26.418-21.663-35.664"/>
			<path fill="none" stroke="#000000" stroke-width="2" d="M609.482,261.268c-3.17-3.17-7.133-6.076-10.831-8.718"/>
			<path fill="none" stroke="#000000" stroke-width="2" d="M483.997,252.286c-1.057,1.585-2.113,2.378-3.434,3.17
				c-5.284,3.17-11.095,5.548-16.115,9.246"/>
			
				<line fill="none" stroke="#000000" stroke-width="2" stroke-dasharray="2,10" x1="483.997" y1="252.286" x2="504.339" y2="252.286"/>
			
				<line fill="none" stroke="#000000" stroke-width="2" stroke-dasharray="2,10" x1="562.986" y1="252.286" x2="598.65" y2="252.55"/>
			
				<line fill="none" stroke="#000000" stroke-width="2" stroke-dasharray="5,4" x1="409.235" y1="413.434" x2="489.281" y2="413.434"/>
			
				<line fill="none" stroke="#000000" stroke-width="2" stroke-dasharray="5,4" x1="597.594" y1="413.434" x2="660.996" y2="413.434"/>
			
				<line fill="none" stroke="#000000" stroke-width="2" stroke-dasharray="2,10" x1="504.339" y1="110.951" x2="562.986" y2="110.951"/>
			
				<line fill="none" stroke="#000000" stroke-width="2" stroke-dasharray="2,10" x1="504.339" y1="296.668" x2="562.986" y2="296.668"/>
			
				<line fill="none" stroke="#000000" stroke-width="2" stroke-dasharray="5,4" x1="504.339" y1="155.597" x2="562.986" y2="155.597"/>
			<line fill="none" stroke="#000000" stroke-width="2" x1="504.339" y1="110.951" x2="504.339" y2="155.597"/>
			<line fill="none" stroke="#000000" stroke-width="2" x1="562.986" y1="110.951" x2="562.986" y2="155.597"/>
			<line fill="none" stroke="#000000" stroke-width="2" x1="504.339" y1="155.597" x2="504.339" y2="252.286"/>
			<line fill="none" stroke="#000000" stroke-width="2" x1="562.986" y1="155.597" x2="562.986" y2="252.286"/>
			<line fill="none" stroke="#000000" stroke-width="2" x1="504.339" y1="252.286" x2="504.339" y2="296.668"/>
			<line fill="none" stroke="#000000" stroke-width="2" x1="562.986" y1="252.286" x2="562.986" y2="296.668"/>
			
				<line fill="none" stroke="#000000" stroke-width="2" stroke-dasharray="4,5" x1="489.281" y1="343.692" x2="597.594" y2="343.692"/>
			
				<line fill="none" stroke="#000000" stroke-width="2" stroke-dasharray="4,5" x1="489.281" y1="519.634" x2="597.594" y2="519.634"/>
			
				<line fill="none" stroke="#000000" stroke-width="2" stroke-dasharray="2,10" x1="489.281" y1="450.155" x2="597.594" y2="450.155"/>
			<line fill="none" stroke="#000000" stroke-width="2" x1="489.281" y1="343.692" x2="489.281" y2="413.434"/>
			<line fill="none" stroke="#000000" stroke-width="2" x1="597.594" y1="343.692" x2="597.594" y2="413.434"/>
			<line fill="none" stroke="#000000" stroke-width="2" x1="489.281" y1="413.434" x2="489.281" y2="450.155"/>
			<line fill="none" stroke="#000000" stroke-width="2" x1="597.594" y1="413.434" x2="597.594" y2="450.155"/>
			<line fill="none" stroke="#000000" stroke-width="2" x1="489.281" y1="450.155" x2="489.281" y2="519.634"/>
			<line fill="none" stroke="#000000" stroke-width="2" x1="597.594" y1="450.155" x2="597.594" y2="519.634"/>
			
				<line fill="none" stroke="#000000" stroke-width="2" stroke-dasharray="5,4" x1="217.442" y1="389.13" x2="378.855" y2="389.13"/>
			<line fill="none" stroke="#000000" stroke-width="2" x1="217.442" y1="248.323" x2="217.442" y2="389.13"/>
			<line fill="none" stroke="#000000" stroke-width="2" x1="378.855" y1="248.323" x2="378.855" y2="389.13"/>
			<line fill="none" stroke="#000000" stroke-width="2" x1="217.442" y1="389.13" x2="217.442" y2="492.424"/>
			<line fill="none" stroke="#000000" stroke-width="2" x1="378.855" y1="389.13" x2="378.855" y2="492.424"/>
			<line fill="none" stroke="#000000" stroke-width="2" x1="217.442" y1="492.424" x2="217.442" y2="633.23"/>
			<line fill="none" stroke="#000000" stroke-width="2" x1="378.855" y1="492.424" x2="378.855" y2="633.23"/>
			
				<line fill="none" stroke="#000000" stroke-width="2" stroke-dasharray="2,10" x1="217.442" y1="633.23" x2="229.33" y2="633.23"/>
			
				<line fill="none" stroke="#000000" stroke-width="2" stroke-dasharray="2,10" x1="344.776" y1="633.23" x2="378.855" y2="633.23"/>
			
				<line fill="none" stroke="#000000" stroke-width="2" stroke-dasharray="2,10" x1="217.442" y1="248.323" x2="245.709" y2="248.323"/>
			
				<line fill="none" stroke="#000000" stroke-width="2" stroke-dasharray="2,10" x1="349.531" y1="248.323" x2="378.855" y2="248.323"/>
			
				<line fill="none" stroke="#000000" stroke-width="2" stroke-dasharray="2,10" x1="686.357" y1="170.919" x2="789.122" y2="170.919"/>
			
				<line fill="none" stroke="#000000" stroke-width="2" stroke-dasharray="2,10" x1="686.357" y1="760.564" x2="789.122" y2="760.564"/>
			
				<line fill="none" stroke="#000000" stroke-width="2" stroke-dasharray="5,4" x1="686.357" y1="439.588" x2="789.122" y2="439.588"/>
			<line fill="none" stroke="#000000" stroke-width="2" x1="686.357" y1="170.919" x2="686.357" y2="439.588"/>
			<line fill="none" stroke="#000000" stroke-width="2" x1="789.122" y1="170.919" x2="789.122" y2="439.588"/>
			<line fill="none" stroke="#000000" stroke-width="2" x1="686.357" y1="439.588" x2="686.357" y2="491.895"/>
			<line fill="none" stroke="#000000" stroke-width="2" x1="789.122" y1="439.588" x2="789.122" y2="491.895"/>
			<line fill="none" stroke="#000000" stroke-width="2" x1="686.357" y1="491.895" x2="686.357" y2="760.564"/>
			<line fill="none" stroke="#000000" stroke-width="2" x1="789.122" y1="491.895" x2="789.122" y2="760.564"/>
			
				<line fill="none" stroke="#000000" stroke-width="2" stroke-dasharray="2,10" x1="229.33" y1="476.837" x2="344.776" y2="476.837"/>
			
				<line fill="none" stroke="#000000" stroke-width="2" stroke-dasharray="2,10" x1="229.33" y1="869.405" x2="344.776" y2="869.405"/>
			
				<line fill="none" stroke="#000000" stroke-width="2" stroke-dasharray="5,4" x1="229.33" y1="713.276" x2="344.776" y2="713.276"/>
			<line fill="none" stroke="#000000" stroke-width="2" x1="229.33" y1="476.837" x2="229.33" y2="633.23"/>
			<line fill="none" stroke="#000000" stroke-width="2" x1="344.776" y1="476.837" x2="344.776" y2="633.23"/>
			<line fill="none" stroke="#000000" stroke-width="2" x1="229.33" y1="633.23" x2="229.33" y2="713.276"/>
			<line fill="none" stroke="#000000" stroke-width="2" x1="344.776" y1="633.23" x2="344.776" y2="713.276"/>
			<line fill="none" stroke="#000000" stroke-width="2" x1="229.33" y1="713.276" x2="229.33" y2="869.405"/>
			<line fill="none" stroke="#000000" stroke-width="2" x1="344.776" y1="713.276" x2="344.776" y2="869.405"/>
			
				<line fill="none" stroke="#000000" stroke-width="2" stroke-dasharray="2,10" x1="245.709" y1="99.063" x2="349.531" y2="99.063"/>
			
				<line fill="none" stroke="#000000" stroke-width="2" stroke-dasharray="2,10" x1="245.709" y1="349.503" x2="349.531" y2="349.503"/>
			
				<line fill="none" stroke="#000000" stroke-width="2" stroke-dasharray="5,4" x1="245.709" y1="200.243" x2="349.531" y2="200.243"/>
			<line fill="none" stroke="#000000" stroke-width="2" x1="245.709" y1="99.063" x2="245.709" y2="200.243"/>
			<line fill="none" stroke="#000000" stroke-width="2" x1="349.531" y1="99.063" x2="349.531" y2="200.243"/>
			<line fill="none" stroke="#000000" stroke-width="2" x1="245.709" y1="200.243" x2="245.709" y2="248.323"/>
			<line fill="none" stroke="#000000" stroke-width="2" x1="349.531" y1="200.243" x2="349.531" y2="248.323"/>
			<line fill="none" stroke="#000000" stroke-width="2" x1="245.709" y1="248.323" x2="245.709" y2="349.503"/>
			<line fill="none" stroke="#000000" stroke-width="2" x1="349.531" y1="248.323" x2="349.531" y2="349.503"/>
		</g>
	</g>
</g>
</svg>
