<?xml version="1.0" encoding="utf-8"?>
<!-- Generator: Adobe Illustrator 17.0.0, SVG Export Plug-In . SVG Version: 6.00 Build 0)  -->
<!DOCTYPE svg PUBLIC "-//W3C//DTD SVG 1.1//EN" "http://www.w3.org/Graphics/SVG/1.1/DTD/svg11.dtd">
<svg version="1.1" id="Layer_1" xmlns="http://www.w3.org/2000/svg" xmlns:xlink="http://www.w3.org/1999/xlink" x="0px" y="0px"
	 width="1024px" height="1024px" viewBox="0 0 1024 1024" enable-background="new 0 0 1024 1024" xml:space="preserve">
<g>
	<g id="XMLID_1_">
		<g>
			<polygon fill="#FFFFFF" points="678.569,503.287 678.569,732.806 615.34,732.806 615.34,614.704 615.34,564.009 404.204,564.009 
				404.204,614.704 404.204,732.806 327.604,732.806 327.604,503.287 			"/>
			<polygon fill="#FFFFFF" points="615.34,732.806 615.34,783.501 404.204,783.501 404.204,732.806 404.204,614.704 615.34,614.704 
							"/>
			<polygon fill="#FFFFFF" points="678.569,499.387 678.569,503.287 327.604,503.287 327.604,499.387 327.604,269.867 
				398.911,269.867 398.911,345.353 398.911,426.409 587.485,426.409 587.485,345.353 587.485,269.867 678.569,269.867 			"/>
			<polygon fill="#FFFFFF" points="846.252,492.424 846.252,938.093 177.748,938.093 177.748,492.424 230.114,492.424 
				230.114,876.535 793.886,876.535 793.886,492.424 			"/>
			<polygon fill="#FFFFFF" points="793.886,92.435 793.886,476.547 700.295,476.547 700.295,165.971 277.467,165.971 
				277.467,476.547 230.114,476.547 230.114,92.435 			"/>
			<polygon fill="#FFFFFF" points="700.295,499.387 700.295,809.963 277.467,809.963 277.467,499.387 327.604,499.387 
				327.604,503.287 327.604,732.806 404.204,732.806 404.204,783.501 615.34,783.501 615.34,732.806 678.569,732.806 
				678.569,503.287 678.569,499.387 			"/>
			<rect x="404.204" y="564.009" fill="#FFFFFF" width="211.136" height="50.695"/>
			<polygon fill="#FFFFFF" points="587.485,269.867 587.485,345.353 398.911,345.353 398.911,269.867 398.911,188.811 
				587.485,188.811 			"/>
		</g>
		<g>
			<line fill="none" stroke="#000000" stroke-width="2" x1="177.748" y1="46.754" x2="846.252" y2="46.754"/>
			<line fill="none" stroke="#000000" stroke-width="2" x1="846.252" y1="938.093" x2="177.748" y2="938.093"/>
			<line fill="none" stroke="#000000" stroke-width="2" x1="177.748" y1="46.754" x2="177.748" y2="492.424"/>
			<line fill="none" stroke="#000000" stroke-width="2" x1="177.748" y1="492.424" x2="177.748" y2="938.093"/>
			<line fill="none" stroke="#000000" stroke-width="2" x1="846.252" y1="492.424" x2="846.252" y2="46.754"/>
			<line fill="none" stroke="#000000" stroke-width="2" x1="846.252" y1="938.093" x2="846.252" y2="492.424"/>
			
				<line fill="none" stroke="#000000" stroke-width="2" stroke-dasharray="2,10" x1="177.748" y1="492.424" x2="230.114" y2="492.424"/>
			
				<line fill="none" stroke="#000000" stroke-width="2" stroke-dasharray="2,10" x1="793.886" y1="492.424" x2="846.252" y2="492.424"/>
			
				<line fill="none" stroke="#000000" stroke-width="2" stroke-dasharray="2,10" x1="230.114" y1="92.435" x2="793.886" y2="92.435"/>
			
				<line fill="none" stroke="#000000" stroke-width="2" stroke-dasharray="2,10" x1="230.114" y1="876.535" x2="793.886" y2="876.535"/>
			<line fill="none" stroke="#000000" stroke-width="2" x1="230.114" y1="92.435" x2="230.114" y2="476.547"/>
			<line fill="none" stroke="#000000" stroke-width="2" x1="793.886" y1="92.435" x2="793.886" y2="476.547"/>
			<line fill="none" stroke="#000000" stroke-width="2" x1="230.114" y1="476.547" x2="230.114" y2="492.424"/>
			<line fill="none" stroke="#000000" stroke-width="2" x1="793.886" y1="476.547" x2="793.886" y2="492.424"/>
			<line fill="none" stroke="#000000" stroke-width="2" x1="230.114" y1="492.424" x2="230.114" y2="876.535"/>
			<line fill="none" stroke="#000000" stroke-width="2" x1="793.886" y1="492.424" x2="793.886" y2="876.535"/>
			
				<line fill="none" stroke="#000000" stroke-width="2" stroke-dasharray="5,4" x1="230.114" y1="476.547" x2="277.467" y2="476.547"/>
			
				<line fill="none" stroke="#000000" stroke-width="2" stroke-dasharray="5,4" x1="700.295" y1="476.547" x2="793.886" y2="476.547"/>
			
				<line fill="none" stroke="#000000" stroke-width="2" stroke-dasharray="4,5" x1="277.467" y1="165.971" x2="700.295" y2="165.971"/>
			
				<line fill="none" stroke="#000000" stroke-width="2" stroke-dasharray="4,5" x1="277.467" y1="809.963" x2="700.295" y2="809.963"/>
			<line fill="none" stroke="#000000" stroke-width="2" x1="277.467" y1="165.971" x2="277.467" y2="476.547"/>
			<line fill="none" stroke="#000000" stroke-width="2" x1="700.295" y1="165.971" x2="700.295" y2="476.547"/>
			<line fill="none" stroke="#000000" stroke-width="2" x1="277.467" y1="476.547" x2="277.467" y2="499.387"/>
			<line fill="none" stroke="#000000" stroke-width="2" x1="700.295" y1="476.547" x2="700.295" y2="499.387"/>
			<line fill="none" stroke="#000000" stroke-width="2" x1="277.467" y1="499.387" x2="277.467" y2="809.963"/>
			<line fill="none" stroke="#000000" stroke-width="2" x1="700.295" y1="499.387" x2="700.295" y2="809.963"/>
			
				<line fill="none" stroke="#000000" stroke-width="2" stroke-dasharray="2,10" x1="277.467" y1="499.387" x2="327.604" y2="499.387"/>
			
				<line fill="none" stroke="#000000" stroke-width="2" stroke-dasharray="2,10" x1="678.569" y1="499.387" x2="700.295" y2="499.387"/>
			
				<line fill="none" stroke="#000000" stroke-width="2" stroke-dasharray="5,4" x1="327.604" y1="503.287" x2="678.569" y2="503.287"/>
			<line fill="none" stroke="#000000" stroke-width="2" x1="327.604" y1="269.867" x2="327.604" y2="499.387"/>
			<line fill="none" stroke="#000000" stroke-width="2" x1="678.569" y1="269.867" x2="678.569" y2="499.387"/>
			<line fill="none" stroke="#000000" stroke-width="2" x1="327.604" y1="499.387" x2="327.604" y2="503.287"/>
			<line fill="none" stroke="#000000" stroke-width="2" x1="678.569" y1="499.387" x2="678.569" y2="503.287"/>
			<line fill="none" stroke="#000000" stroke-width="2" x1="327.604" y1="503.287" x2="327.604" y2="732.806"/>
			<line fill="none" stroke="#000000" stroke-width="2" x1="678.569" y1="503.287" x2="678.569" y2="732.806"/>
			
				<line fill="none" stroke="#000000" stroke-width="2" stroke-dasharray="2,10" x1="327.604" y1="269.867" x2="398.911" y2="269.867"/>
			
				<line fill="none" stroke="#000000" stroke-width="2" stroke-dasharray="2,10" x1="587.485" y1="269.867" x2="678.569" y2="269.867"/>
			
				<line fill="none" stroke="#000000" stroke-width="2" stroke-dasharray="2,10" x1="327.604" y1="732.806" x2="404.204" y2="732.806"/>
			
				<line fill="none" stroke="#000000" stroke-width="2" stroke-dasharray="2,10" x1="615.34" y1="732.806" x2="678.569" y2="732.806"/>
			
				<line fill="none" stroke="#000000" stroke-width="2" stroke-dasharray="2,10" x1="398.911" y1="188.811" x2="587.485" y2="188.811"/>
			
				<line fill="none" stroke="#000000" stroke-width="2" stroke-dasharray="2,10" x1="398.911" y1="426.409" x2="587.485" y2="426.409"/>
			
				<line fill="none" stroke="#000000" stroke-width="2" stroke-dasharray="5,4" x1="398.911" y1="345.353" x2="587.485" y2="345.353"/>
			<line fill="none" stroke="#000000" stroke-width="2" x1="398.911" y1="188.811" x2="398.911" y2="269.867"/>
			<line fill="none" stroke="#000000" stroke-width="2" x1="587.485" y1="188.811" x2="587.485" y2="269.867"/>
			<line fill="none" stroke="#000000" stroke-width="2" x1="398.911" y1="269.867" x2="398.911" y2="345.353"/>
			<line fill="none" stroke="#000000" stroke-width="2" x1="587.485" y1="269.867" x2="587.485" y2="345.353"/>
			<line fill="none" stroke="#000000" stroke-width="2" x1="398.911" y1="345.353" x2="398.911" y2="426.409"/>
			<line fill="none" stroke="#000000" stroke-width="2" x1="587.485" y1="345.353" x2="587.485" y2="426.409"/>
			
				<line fill="none" stroke="#000000" stroke-width="2" stroke-dasharray="2,10" x1="404.204" y1="564.009" x2="615.34" y2="564.009"/>
			
				<line fill="none" stroke="#000000" stroke-width="2" stroke-dasharray="2,10" x1="404.204" y1="783.501" x2="615.34" y2="783.501"/>
			
				<line fill="none" stroke="#000000" stroke-width="2" stroke-dasharray="5,4" x1="404.204" y1="614.704" x2="615.34" y2="614.704"/>
			<line fill="none" stroke="#000000" stroke-width="2" x1="404.204" y1="564.009" x2="404.204" y2="614.704"/>
			<line fill="none" stroke="#000000" stroke-width="2" x1="615.34" y1="564.009" x2="615.34" y2="614.704"/>
			<line fill="none" stroke="#000000" stroke-width="2" x1="404.204" y1="614.704" x2="404.204" y2="732.806"/>
			<line fill="none" stroke="#000000" stroke-width="2" x1="615.34" y1="614.704" x2="615.34" y2="732.806"/>
			<line fill="none" stroke="#000000" stroke-width="2" x1="404.204" y1="732.806" x2="404.204" y2="783.501"/>
			<line fill="none" stroke="#000000" stroke-width="2" x1="615.34" y1="732.806" x2="615.34" y2="783.501"/>
		</g>
	</g>
</g>
<g id="Layer_2">
</g>
</svg>
