<?xml version="1.0" encoding="utf-8"?>
<!-- Generator: Adobe Illustrator 18.0.0, SVG Export Plug-In . SVG Version: 6.00 Build 0)  -->
<!DOCTYPE svg PUBLIC "-//W3C//DTD SVG 1.1//EN" "http://www.w3.org/Graphics/SVG/1.1/DTD/svg11.dtd">
<svg version="1.1" id="Layer_1" xmlns="http://www.w3.org/2000/svg" xmlns:xlink="http://www.w3.org/1999/xlink" x="0px" y="0px"
	 viewBox="0 0 768 1024" enable-background="new 0 0 768 1024" xml:space="preserve">
<g>
	<g id="XMLID_1_">
		<g>
			<polygon fill="#AAAAAA" points="363,474 363,653.5 212.5,653.5 212.5,474 212.5,466 363,466 			"/>
			<rect x="212.5" y="286.5" fill="#FFFFFF" width="150.5" height="179.5"/>
			<polygon fill="#AAAAAA" points="557.5,440 557.5,472.5 511.5,472.5 511.5,440 511.5,243 557.5,243 			"/>
			<polygon fill="#AAAAAA" points="493,440 493,534 461.5,534 461.5,440 461.5,283 493,283 			"/>
			<polygon fill="#AAAAAA" points="373,462.5 373,474 363,474 363,466 363,286.5 212.5,286.5 212.5,466 212.5,474 186,474 
				186,462.5 186,249.5 373,249.5 			"/>
			<polygon fill="#AAAAAA" points="602.5,463 602.5,478.5 572.5,478.5 572.5,440 572.5,214 434,214 434,440 434,478.5 392,478.5 
				392,462.5 392,220.5 156,220.5 156,462.5 156,478.5 130,478.5 130,463 130,179.5 602.5,179.5 			"/>
			<polygon fill="#AAAAAA" points="109.5,463 109.5,463.5 91,463.5 91,462 91,97 664.5,97 664.5,462 664.5,463.5 642.5,463.5 
				642.5,463 642.5,129.5 109.5,129.5 			"/>
			<polygon fill="#AAAAAA" points="572.5,478.5 572.5,704.5 434,704.5 434,478.5 434,440 461.5,440 461.5,534 461.5,691 493,691 
				493,534 493,440 511.5,440 511.5,472.5 511.5,669.5 557.5,669.5 557.5,472.5 557.5,440 572.5,440 			"/>
			<polygon fill="#AAAAAA" points="392,478.5 392,720.5 156,720.5 156,478.5 156,462.5 186,462.5 186,474 186,687 373,687 373,474 
				373,462.5 392,462.5 			"/>
			<polygon fill="#AAAAAA" points="642.5,463.5 642.5,797 109.5,797 109.5,463.5 109.5,463 130,463 130,478.5 130,762 602.5,762 
				602.5,478.5 602.5,463 642.5,463 			"/>
			<polygon fill="#AAAAAA" points="91,462 91,463.5 91,828.5 664.5,828.5 664.5,463.5 664.5,462 691.2,462 691.2,871.6 76.8,871.6 
				76.8,462 			"/>
		</g>
		<g>
			<line fill="none" stroke="#000000" stroke-width="2" x1="76.8" y1="52.4" x2="691.2" y2="52.4"/>
			<line fill="none" stroke="#000000" stroke-width="2" x1="691.2" y1="871.6" x2="76.8" y2="871.6"/>
			<line fill="none" stroke="#000000" stroke-width="2" x1="76.8" y1="52.4" x2="76.8" y2="462"/>
			<line fill="none" stroke="#000000" stroke-width="2" x1="76.8" y1="462" x2="76.8" y2="871.6"/>
			<line fill="none" stroke="#000000" stroke-width="2" x1="691.2" y1="462" x2="691.2" y2="52.4"/>
			<line fill="none" stroke="#000000" stroke-width="2" x1="691.2" y1="871.6" x2="691.2" y2="462"/>
			<line fill="none" stroke="#000000" stroke-width="2" stroke-dasharray="2,10" x1="76.8" y1="462" x2="91" y2="462"/>
			<line fill="none" stroke="#000000" stroke-width="2" stroke-dasharray="2,10" x1="664.5" y1="462" x2="691.2" y2="462"/>
			<line fill="none" stroke="#000000" stroke-width="2" stroke-dasharray="2,10" x1="91" y1="97" x2="664.5" y2="97"/>
			<line fill="none" stroke="#000000" stroke-width="2" stroke-dasharray="2,10" x1="91" y1="828.5" x2="664.5" y2="828.5"/>
			<line fill="none" stroke="#000000" stroke-width="2" x1="91" y1="97" x2="91" y2="462"/>
			<line fill="none" stroke="#000000" stroke-width="2" x1="664.5" y1="97" x2="664.5" y2="462"/>
			<line fill="none" stroke="#000000" stroke-width="2" x1="91" y1="462" x2="91" y2="463.5"/>
			<line fill="none" stroke="#000000" stroke-width="2" x1="664.5" y1="462" x2="664.5" y2="463.5"/>
			<line fill="none" stroke="#000000" stroke-width="2" x1="91" y1="463.5" x2="91" y2="828.5"/>
			<line fill="none" stroke="#000000" stroke-width="2" x1="664.5" y1="463.5" x2="664.5" y2="828.5"/>
			<line fill="none" stroke="#000000" stroke-width="2" stroke-dasharray="2,10" x1="91" y1="463.5" x2="109.5" y2="463.5"/>
			<line fill="none" stroke="#000000" stroke-width="2" stroke-dasharray="2,10" x1="642.5" y1="463.5" x2="664.5" y2="463.5"/>
			<line fill="none" stroke="#000000" stroke-width="2" stroke-dasharray="2,10" x1="109.5" y1="129.5" x2="642.5" y2="129.5"/>
			<line fill="none" stroke="#000000" stroke-width="2" stroke-dasharray="2,10" x1="109.5" y1="797" x2="642.5" y2="797"/>
			<line fill="none" stroke="#000000" stroke-width="2" x1="109.5" y1="129.5" x2="109.5" y2="463"/>
			<line fill="none" stroke="#000000" stroke-width="2" x1="642.5" y1="129.5" x2="642.5" y2="463"/>
			<line fill="none" stroke="#000000" stroke-width="2" x1="109.5" y1="463" x2="109.5" y2="463.5"/>
			<line fill="none" stroke="#000000" stroke-width="2" x1="642.5" y1="463" x2="642.5" y2="463.5"/>
			<line fill="none" stroke="#000000" stroke-width="2" x1="109.5" y1="463.5" x2="109.5" y2="797"/>
			<line fill="none" stroke="#000000" stroke-width="2" x1="642.5" y1="463.5" x2="642.5" y2="797"/>
			<line fill="none" stroke="#000000" stroke-width="2" stroke-dasharray="2,10" x1="109.5" y1="463" x2="130" y2="463"/>
			<line fill="none" stroke="#000000" stroke-width="2" stroke-dasharray="2,10" x1="602.5" y1="463" x2="642.5" y2="463"/>
			<line fill="none" stroke="#000000" stroke-width="2" stroke-dasharray="2,10" x1="130" y1="179.5" x2="602.5" y2="179.5"/>
			<line fill="none" stroke="#000000" stroke-width="2" stroke-dasharray="2,10" x1="130" y1="762" x2="602.5" y2="762"/>
			<line fill="none" stroke="#000000" stroke-width="2" x1="130" y1="179.5" x2="130" y2="463"/>
			<line fill="none" stroke="#000000" stroke-width="2" x1="602.5" y1="179.5" x2="602.5" y2="463"/>
			<line fill="none" stroke="#000000" stroke-width="2" x1="130" y1="463" x2="130" y2="478.5"/>
			<line fill="none" stroke="#000000" stroke-width="2" x1="602.5" y1="463" x2="602.5" y2="478.5"/>
			<line fill="none" stroke="#000000" stroke-width="2" x1="130" y1="478.5" x2="130" y2="762"/>
			<line fill="none" stroke="#000000" stroke-width="2" x1="602.5" y1="478.5" x2="602.5" y2="762"/>
			<line fill="none" stroke="#000000" stroke-width="2" stroke-dasharray="2,10" x1="572.5" y1="478.5" x2="602.5" y2="478.5"/>
			<line fill="none" stroke="#000000" stroke-width="2" stroke-dasharray="2,10" x1="130" y1="478.5" x2="156" y2="478.5"/>
			<line fill="none" stroke="#000000" stroke-width="2" stroke-dasharray="2,10" x1="392" y1="478.5" x2="434" y2="478.5"/>
			<line fill="none" stroke="#000000" stroke-width="2" stroke-dasharray="2,10" x1="434" y1="214" x2="572.5" y2="214"/>
			<line fill="none" stroke="#000000" stroke-width="2" stroke-dasharray="2,10" x1="434" y1="704.5" x2="572.5" y2="704.5"/>
			<line fill="none" stroke="#000000" stroke-width="2" x1="434" y1="214" x2="434" y2="440"/>
			<line fill="none" stroke="#000000" stroke-width="2" x1="572.5" y1="214" x2="572.5" y2="440"/>
			<line fill="none" stroke="#000000" stroke-width="2" x1="434" y1="440" x2="434" y2="478.5"/>
			<line fill="none" stroke="#000000" stroke-width="2" x1="572.5" y1="440" x2="572.5" y2="478.5"/>
			<line fill="none" stroke="#000000" stroke-width="2" x1="434" y1="478.5" x2="434" y2="704.5"/>
			<line fill="none" stroke="#000000" stroke-width="2" x1="572.5" y1="478.5" x2="572.5" y2="704.5"/>
			<line fill="none" stroke="#000000" stroke-width="2" stroke-dasharray="2,10" x1="434" y1="440" x2="461.5" y2="440"/>
			<line fill="none" stroke="#000000" stroke-width="2" stroke-dasharray="2,10" x1="493" y1="440" x2="511.5" y2="440"/>
			<line fill="none" stroke="#000000" stroke-width="2" stroke-dasharray="2,10" x1="557.5" y1="440" x2="572.5" y2="440"/>
			<line fill="none" stroke="#000000" stroke-width="2" stroke-dasharray="2,10" x1="156" y1="220.5" x2="392" y2="220.5"/>
			<line fill="none" stroke="#000000" stroke-width="2" stroke-dasharray="2,10" x1="156" y1="720.5" x2="392" y2="720.5"/>
			<line fill="none" stroke="#000000" stroke-width="2" x1="156" y1="220.5" x2="156" y2="462.5"/>
			<line fill="none" stroke="#000000" stroke-width="2" x1="392" y1="220.5" x2="392" y2="462.5"/>
			<line fill="none" stroke="#000000" stroke-width="2" x1="156" y1="462.5" x2="156" y2="478.5"/>
			<line fill="none" stroke="#000000" stroke-width="2" x1="392" y1="462.5" x2="392" y2="478.5"/>
			<line fill="none" stroke="#000000" stroke-width="2" x1="156" y1="478.5" x2="156" y2="720.5"/>
			<line fill="none" stroke="#000000" stroke-width="2" x1="392" y1="478.5" x2="392" y2="720.5"/>
			<line fill="none" stroke="#000000" stroke-width="2" stroke-dasharray="2,10" x1="156" y1="462.5" x2="186" y2="462.5"/>
			<line fill="none" stroke="#000000" stroke-width="2" stroke-dasharray="2,10" x1="373" y1="462.5" x2="392" y2="462.5"/>
			<line fill="none" stroke="#000000" stroke-width="2" stroke-dasharray="2,10" x1="186" y1="249.5" x2="373" y2="249.5"/>
			<line fill="none" stroke="#000000" stroke-width="2" stroke-dasharray="2,10" x1="186" y1="687" x2="373" y2="687"/>
			<line fill="none" stroke="#000000" stroke-width="2" x1="186" y1="249.5" x2="186" y2="462.5"/>
			<line fill="none" stroke="#000000" stroke-width="2" x1="373" y1="249.5" x2="373" y2="462.5"/>
			<line fill="none" stroke="#000000" stroke-width="2" x1="186" y1="462.5" x2="186" y2="474"/>
			<line fill="none" stroke="#000000" stroke-width="2" x1="373" y1="462.5" x2="373" y2="474"/>
			<line fill="none" stroke="#000000" stroke-width="2" x1="186" y1="474" x2="186" y2="687"/>
			<line fill="none" stroke="#000000" stroke-width="2" x1="373" y1="474" x2="373" y2="687"/>
			<line fill="none" stroke="#000000" stroke-width="2" stroke-dasharray="2,10" x1="186" y1="474" x2="212.5" y2="474"/>
			<line fill="none" stroke="#000000" stroke-width="2" stroke-dasharray="2,10" x1="363" y1="474" x2="373" y2="474"/>
			<line fill="none" stroke="#000000" stroke-width="2" stroke-dasharray="2,10" x1="461.5" y1="283" x2="493" y2="283"/>
			<line fill="none" stroke="#000000" stroke-width="2" stroke-dasharray="2,10" x1="461.5" y1="691" x2="493" y2="691"/>
			<line fill="none" stroke="#000000" stroke-width="2" stroke-dasharray="2,10" x1="461.5" y1="534" x2="493" y2="534"/>
			<line fill="none" stroke="#000000" stroke-width="2" x1="461.5" y1="283" x2="461.5" y2="440"/>
			<line fill="none" stroke="#000000" stroke-width="2" x1="493" y1="283" x2="493" y2="440"/>
			<line fill="none" stroke="#000000" stroke-width="2" x1="461.5" y1="440" x2="461.5" y2="534"/>
			<line fill="none" stroke="#000000" stroke-width="2" x1="493" y1="440" x2="493" y2="534"/>
			<line fill="none" stroke="#000000" stroke-width="2" x1="461.5" y1="534" x2="461.5" y2="691"/>
			<line fill="none" stroke="#000000" stroke-width="2" x1="493" y1="534" x2="493" y2="691"/>
			<line fill="none" stroke="#000000" stroke-width="2" stroke-dasharray="2,10" x1="511.5" y1="243" x2="557.5" y2="243"/>
			<line fill="none" stroke="#000000" stroke-width="2" stroke-dasharray="2,10" x1="511.5" y1="669.5" x2="557.5" y2="669.5"/>
			<line fill="none" stroke="#000000" stroke-width="2" stroke-dasharray="2,10" x1="511.5" y1="472.5" x2="557.5" y2="472.5"/>
			<line fill="none" stroke="#000000" stroke-width="2" x1="511.5" y1="243" x2="511.5" y2="440"/>
			<line fill="none" stroke="#000000" stroke-width="2" x1="557.5" y1="243" x2="557.5" y2="440"/>
			<line fill="none" stroke="#000000" stroke-width="2" x1="511.5" y1="440" x2="511.5" y2="472.5"/>
			<line fill="none" stroke="#000000" stroke-width="2" x1="557.5" y1="440" x2="557.5" y2="472.5"/>
			<line fill="none" stroke="#000000" stroke-width="2" x1="511.5" y1="472.5" x2="511.5" y2="669.5"/>
			<line fill="none" stroke="#000000" stroke-width="2" x1="557.5" y1="472.5" x2="557.5" y2="669.5"/>
			<line fill="none" stroke="#000000" stroke-width="2" stroke-dasharray="2,10" x1="212.5" y1="286.5" x2="363" y2="286.5"/>
			<line fill="none" stroke="#000000" stroke-width="2" stroke-dasharray="2,10" x1="212.5" y1="653.5" x2="363" y2="653.5"/>
			<line fill="none" stroke="#000000" stroke-width="2" stroke-dasharray="2,10" x1="212.5" y1="466" x2="363" y2="466"/>
			<line fill="none" stroke="#000000" stroke-width="2" x1="212.5" y1="286.5" x2="212.5" y2="466"/>
			<line fill="none" stroke="#000000" stroke-width="2" x1="363" y1="286.5" x2="363" y2="466"/>
			<line fill="none" stroke="#000000" stroke-width="2" x1="212.5" y1="466" x2="212.5" y2="474"/>
			<line fill="none" stroke="#000000" stroke-width="2" x1="363" y1="466" x2="363" y2="474"/>
			<line fill="none" stroke="#000000" stroke-width="2" x1="212.5" y1="474" x2="212.5" y2="653.5"/>
			<line fill="none" stroke="#000000" stroke-width="2" x1="363" y1="474" x2="363" y2="653.5"/>
		</g>
	</g>
</g>
</svg>
